<svg width="45" height="45" viewBox="0 0 45 45" fill="none" xmlns="http://www.w3.org/2000/svg">
<path d="M35.7385 45H0V11.25H45V35.7385L35.7385 45Z" fill="#E4EDFB"/>
<path d="M0 11.25H45V16.875H0V11.25Z" fill="#D7E1F2"/>
<path d="M8.4375 5.625H5.625V1.40625C5.625 0.629654 6.25465 0 7.03125 0C7.80785 0 8.4375 0.629654 8.4375 1.40625V5.625Z" fill="#BFC9D1"/>
<path d="M39.375 5.625H36.5625V1.40625C36.5625 0.629654 37.1922 0 37.9688 0C38.7453 0 39.375 0.629654 39.375 1.40625V5.625Z" fill="#BFC9D1"/>
<path d="M35.7385 35.7385V45L45 35.7385H35.7385Z" fill="#C8D5E8"/>
<path d="M45 14.0625H0V7.03125C0 5.47806 1.25931 4.21875 2.8125 4.21875H42.1875C43.7407 4.21875 45 5.47806 45 7.03125V14.0625Z" fill="#FF7761"/>
<path d="M29.5916 38.3879L22.4999 34.7934L15.4082 38.3879L16.7623 30.7658L10.9587 25.3139L18.9743 24.1915L22.4999 17.3052L26.0255 24.1915L34.041 25.3139L28.2375 30.7658L29.5916 38.3879Z" fill="#FFDA6B"/>
<path d="M29.5918 38.388L22.5001 34.7934L15.4084 38.388L16.7625 30.7658L26.0257 24.1916L34.0413 25.3139L28.2377 30.7658L29.5918 38.388Z" fill="#F5CD00"/>
</svg>
