<svg width="45" height="45" viewBox="0 0 45 45" fill="none" xmlns="http://www.w3.org/2000/svg">
<g clip-path="url(#clip0)">
<path d="M42.568 10.2544C42.6037 9.96375 42.6562 9.67687 42.6562 9.375C42.6562 9.07313 42.6037 8.78625 42.568 8.49563L44.2555 7.21687C44.6324 6.93187 44.7374 6.40875 44.5012 6L42.9843 3.375C42.748 2.96625 42.2437 2.79562 41.8087 2.97937L39.8643 3.79875C39.3899 3.43875 38.8855 3.11813 38.3287 2.88563L38.0699 0.82125C38.0118 0.3525 37.6143 0 37.1418 0H34.1099C33.6374 0 33.238 0.3525 33.1799 0.82125L32.9212 2.88563C32.3643 3.11813 31.8599 3.43875 31.3856 3.79875L29.4412 2.97937C29.0043 2.79562 28.4999 2.96625 28.2637 3.375L26.7468 6C26.5106 6.40875 26.6156 6.93187 26.9924 7.21687L28.6799 8.49563C28.6462 8.78625 28.5937 9.07313 28.5937 9.375C28.5937 9.67687 28.6462 9.96375 28.6818 10.2544L26.9943 11.5331C26.6174 11.8181 26.5124 12.3413 26.7487 12.75L28.2656 15.375C28.5018 15.7837 29.0062 15.9544 29.4412 15.7706L31.3856 14.9494C31.8599 15.3094 32.3643 15.63 32.9212 15.8625L33.1799 17.9269C33.238 18.3975 33.6356 18.75 34.1081 18.75H37.1399C37.6124 18.75 38.0118 18.3975 38.0699 17.9288L38.3287 15.8644C38.8855 15.6319 39.3899 15.3112 39.8643 14.9512L41.8087 15.7725C42.2455 15.9544 42.7499 15.7837 42.9862 15.375L44.503 12.75C44.7393 12.3413 44.6343 11.8181 44.2574 11.5331L42.568 10.2544ZM35.6249 13.125C33.5531 13.125 31.8749 11.4469 31.8749 9.375C31.8749 7.305 33.5531 5.625 35.6249 5.625C37.6949 5.625 39.3749 7.305 39.3749 9.375C39.3749 11.445 37.6949 13.125 35.6249 13.125Z" fill="black"/>
<path d="M35.625 0H34.1081C33.6356 0 33.2362 0.3525 33.1781 0.82125L32.9193 2.88563C32.3625 3.11813 31.8581 3.43875 31.3837 3.79875L29.4393 2.97937C29.3212 2.92875 29.1975 2.90625 29.0756 2.90625C28.7493 2.90625 28.4343 3.07687 28.2618 3.375L26.745 6C26.5087 6.40875 26.6137 6.93187 26.9906 7.21687L28.6781 8.49563C28.6462 8.78625 28.5937 9.07313 28.5937 9.375C28.5937 9.67687 28.6462 9.96375 28.6818 10.2544L26.9943 11.5331C26.6175 11.8181 26.5125 12.3413 26.7487 12.75L28.2656 15.375C28.4381 15.6731 28.7512 15.8437 29.0793 15.8437C29.2012 15.8437 29.325 15.8194 29.4431 15.7706L31.3875 14.9494C31.8618 15.3094 32.3662 15.63 32.9231 15.8625L33.1818 17.9269C33.2381 18.3975 33.6356 18.75 34.1081 18.75H35.625V13.125C33.5531 13.125 31.875 11.4469 31.875 9.375C31.875 7.305 33.5531 5.625 35.625 5.625V0Z" fill="black"/>
<path d="M27.9825 30C28.0781 29.3869 28.125 28.7569 28.125 28.125C28.125 27.4969 28.0781 26.8744 27.9843 26.265L31.0837 23.8331C31.8112 23.2613 32.0118 22.2262 31.5506 21.42L29.55 17.955C29.085 17.1506 28.0856 16.8056 27.225 17.1525L23.5725 18.6244C22.575 17.82 21.4931 17.1937 20.3475 16.7587L19.7925 12.8587C19.6612 11.9419 18.8643 11.25 17.9362 11.25H13.9387C13.0106 11.25 12.2137 11.9419 12.0825 12.8606L11.5275 16.7625C10.38 17.2031 9.28684 17.8369 8.31747 18.6244L4.64809 17.1525C3.78747 16.8075 2.78997 17.1525 2.32497 17.955L0.326216 21.42C-0.138784 22.2262 0.063716 23.265 0.796841 23.835L3.89247 26.25C3.79684 26.8631 3.74997 27.4931 3.74997 28.125C3.74997 28.7531 3.79684 29.3756 3.89059 29.985L0.791216 32.4169C0.063716 32.9887 -0.136909 34.0238 0.324341 34.83L2.32309 38.295C2.78809 39.0975 3.78747 39.4425 4.64809 39.0975L8.30059 37.6256C9.29809 38.43 10.38 39.0563 11.5256 39.4913L12.0806 43.3913C12.2137 44.3081 13.0106 45 13.9387 45H17.9362C18.8643 45 19.6612 44.3081 19.7925 43.3894L20.3475 39.4875C21.495 39.0469 22.5881 38.4131 23.5575 37.6256L27.2268 39.0975C28.0912 39.4444 29.0868 39.0994 29.55 38.295L31.5487 34.83C32.0137 34.0238 31.8112 32.985 31.0781 32.415L27.9825 30ZM15.9375 34.6875C12.3187 34.6875 9.37497 31.7437 9.37497 28.125C9.37497 24.5063 12.3187 21.5625 15.9375 21.5625C19.5562 21.5625 22.5 24.5063 22.5 28.125C22.5 31.7437 19.5562 34.6875 15.9375 34.6875Z" fill="white"/>
<path d="M15.9375 11.25H13.9387C13.0106 11.25 12.2137 11.9419 12.0825 12.8606L11.5275 16.7625C10.38 17.2031 9.28684 17.8369 8.31747 18.6244L4.64809 17.1525C4.42309 17.0625 4.18872 17.0194 3.95622 17.0194C3.30184 17.0194 2.66809 17.3625 2.32497 17.955L0.326216 21.42C-0.138784 22.2262 0.063716 23.265 0.796841 23.835L3.89247 26.25C3.79684 26.8631 3.74997 27.4931 3.74997 28.125C3.74997 28.7531 3.79684 29.3756 3.89059 29.985L0.791216 32.4169C0.063716 32.9887 -0.136909 34.0238 0.324341 34.83L2.32309 38.295C2.66622 38.8875 3.29997 39.2306 3.95434 39.2306C4.18684 39.2306 4.42122 39.1875 4.64809 39.0975L8.30059 37.6256C9.29809 38.43 10.38 39.0563 11.5256 39.4913L12.0806 43.3913C12.2137 44.3081 13.0106 45 13.9387 45H15.9375V34.6875C12.3187 34.6875 9.37497 31.7437 9.37497 28.125C9.37497 24.5063 12.3187 21.5625 15.9375 21.5625V11.25Z" fill="white"/>
</g>
<defs>
<clipPath id="clip0">
<rect width="45" height="45" fill="white"/>
</clipPath>
</defs>
</svg>
