<svg width="216" height="137" viewBox="0 0 216 137" fill="none" xmlns="http://www.w3.org/2000/svg">
<path d="M0.470706 52.469L26.9464 10.2211L22.3147 3.14847C21.6948 2.2018 21.9691 0.939559 22.9281 0.327604C23.8871 -0.284351 25.1683 -0.0147838 25.7895 0.934449L29.47 6.55958L33.1558 0.933172C33.7757 -0.0135064 35.0569 -0.284351 36.0146 0.327604C36.9735 0.939559 37.2479 2.20307 36.6306 3.14975L32.0001 10.2224L58.4745 52.4703C59.0711 53.4093 59.1035 54.5859 58.5587 55.5556C58.0151 56.5265 56.9798 57.1206 55.8578 57.1206H44.1392C43.0819 57.1206 42.0958 56.5879 41.5238 55.7102L31.5679 40.3704C31.1097 39.6652 30.3203 39.2398 29.4726 39.2398C28.6263 39.2398 27.8355 39.6652 27.3774 40.3717L17.4267 55.7102C16.8572 56.5904 15.8711 57.1232 14.8112 57.1232H3.08877C1.96545 57.1232 0.930129 56.5291 0.386586 55.5569C-0.156958 54.5846 -0.125898 53.408 0.470706 52.469Z" fill="#0075FF" fill-opacity="0.85"/>
<path d="M81.8953 32.464C83.048 32.464 83.6244 32.911 83.6244 33.8048C83.6244 34.4883 83.4148 35.1981 82.9956 35.9342C82.5765 36.6703 82.2883 37.1699 82.1311 37.4328C82.0263 37.6431 81.9215 37.8008 81.8167 37.906C81.7643 38.0111 81.6595 38.0374 81.5023 37.9848C81.3452 37.8797 81.2666 37.7745 81.2666 37.6694C81.2666 36.6704 80.4544 36.1709 78.8301 36.1709C77.2059 36.1709 75.1362 37.4853 72.6212 40.1143C73.7215 46.1609 74.7956 49.9991 75.8436 51.6291C76.2627 52.3126 77.0225 52.6544 78.1228 52.6544C80.1138 52.6018 83.572 49.3945 88.4972 43.0324C88.7068 43.2953 88.7592 43.6108 88.6544 43.9788C88.602 44.2943 88.2353 44.8727 87.5541 45.714C84.9867 48.9739 82.5765 51.4977 80.3234 53.2853C78.9087 54.4421 77.494 55.0205 76.0793 55.0205C74.6646 55.0205 73.5381 54.5735 72.6998 53.6797C71.809 52.4704 70.7611 49.1053 69.556 43.5845C66.3598 47.6331 64.3164 50.9982 63.4256 53.6797C63.1637 54.3106 62.4563 54.6524 61.3036 54.705C60.1509 54.8101 59.5745 54.6787 59.5745 54.3106C59.5745 54.2055 59.6793 53.9426 59.8889 53.5219C60.0985 53.0487 60.7796 51.4977 61.9324 48.8687C63.0851 46.1872 63.871 44.3732 64.2902 43.4268C64.7617 42.4278 65.4953 40.8241 66.4908 38.6158C67.4863 36.3549 68.3247 34.5409 69.0058 33.1738C71.678 28.0737 73.5381 24.5772 74.586 22.6843C77.0487 18.2151 80.009 14.3768 83.4672 11.1695C86.9254 7.96218 90.3311 6.35851 93.6845 6.35851C94.5228 6.35851 95.2564 6.59512 95.8851 7.06833C96.5663 7.48897 96.9068 8.11992 96.9068 8.96118V11.2484C96.9068 11.4587 96.7758 11.5638 96.5139 11.5638C96.3043 11.5638 96.1995 11.5113 96.1995 11.4061C96.1995 9.98647 95.204 9.27665 93.2129 9.27665C91.2218 9.27665 89.2832 9.671 87.3969 10.4597C85.5107 11.1958 83.8864 12.3 82.5241 13.7722C81.1618 15.2444 79.7209 17.1635 78.2014 19.5296C74.7432 24.8926 70.6563 33.91 65.9407 46.5815C67.1458 44.9516 68.2723 43.5319 69.3202 42.3226C69.2154 41.4288 69.3726 40.6927 69.7918 40.1143C70.2634 39.5359 70.7349 39.0101 71.2065 38.5369C71.678 38.0111 71.9924 37.6431 72.1496 37.4328L72.3854 38.7735C76.4723 34.5672 79.6423 32.464 81.8953 32.464Z" fill="#0075FF" fill-opacity="0.85"/>
<path d="M93.5445 33.0161L95.9809 33.095C98.0244 30.3083 100.068 26.654 102.111 22.1322C102.583 22.0797 103.316 21.7905 104.312 21.2647C105.307 20.6863 106.015 20.1868 106.434 19.7662C106.906 19.293 107.194 19.0564 107.298 19.0564C107.456 19.0564 107.534 19.1352 107.534 19.293C107.534 19.3981 107.325 19.6873 106.906 20.1605C106.486 20.6337 105.438 22.2111 103.762 24.8926C102.137 27.5216 100.644 30.2557 99.2819 33.095H105.648C106.172 33.095 106.46 33.1738 106.513 33.3316C106.565 33.4893 106.382 33.6471 105.962 33.8048C105.596 33.91 105.229 34.0151 104.862 34.1203C104.548 34.2254 103.814 34.3306 102.661 34.4357C100.094 34.5935 98.4959 35.1193 97.8672 36.0131C97.2908 36.8544 96.2691 39.0627 94.802 42.6381C92.0774 49.263 91.6582 52.5755 93.5445 52.5755C95.1687 52.5755 98.1553 50.0517 102.504 45.0041L103.998 43.1113C104.102 43.269 104.155 43.5319 104.155 43.9C104.155 44.2155 103.867 44.7675 103.29 45.5562C98.4697 51.7606 94.1208 54.8627 90.2435 54.8627C88.986 54.8627 88.3572 54.3632 88.3572 53.3642C88.3572 52.1023 89.379 49.4208 91.4224 45.3196L95.6665 35.7765C90.3221 42.2963 87.5975 45.6351 87.4927 45.7928C87.1259 46.3186 86.9426 46.266 86.9426 45.6351C86.9426 45.2145 87.0735 44.8464 87.3355 44.5309C90.8985 40.0617 93.3611 36.9333 94.7234 35.1456C94.2518 35.1456 92.8371 35.277 90.4793 35.5399C89.9553 35.5399 90.1387 35.1193 91.0295 34.278C91.9726 33.4367 92.6275 33.0161 92.9943 33.0161H93.5445Z" fill="#0075FF" fill-opacity="0.85"/>
<path d="M117.378 34.1991C117.378 34.8827 116.932 35.8817 116.041 37.1961C115.151 38.5106 113.788 40.9555 111.955 44.5309C110.173 48.0537 109.282 50.2883 109.282 51.2348C109.282 52.1286 109.649 52.5755 110.383 52.5755C111.378 52.5755 113.081 51.4188 115.491 49.1053C117.902 46.7918 120.102 43.9263 122.093 40.5086C124.137 37.0384 125.368 35.1981 125.787 34.9878C128.04 33.8311 129.429 33.2001 129.953 33.095C130.477 32.9898 130.974 32.9372 131.446 32.9372C131.97 32.9372 132.232 33.1213 132.232 33.4893C132.232 33.8574 131.996 34.0414 131.525 34.0414C130.424 34.0414 129.534 34.5409 128.852 35.5399C127.595 37.3276 124.058 45.1882 118.242 59.1216C116.775 62.5918 115.334 65.5626 113.919 68.0338C112.505 70.5576 110.618 73.0551 108.261 75.5263C104.017 79.9955 99.4581 82.2301 94.5852 82.2301C92.4894 82.2301 90.5245 81.7569 88.6907 80.8105C85.4945 79.128 83.8964 76.2624 83.8964 72.2138V70.873C83.8964 70.0844 84.2108 69.69 84.8395 69.69C84.9443 69.69 84.9967 69.7426 84.9967 69.8478L84.8395 71.8195C84.8395 74.1855 85.5993 75.9995 87.1188 77.2614C88.5859 78.5759 90.3935 79.2331 92.5418 79.2331C94.6376 79.2331 96.6811 78.8388 98.6721 78.0501C103.126 76.1047 106.898 73.0025 109.99 68.7436C113.133 64.5373 116.015 59.3845 118.635 53.2853C119.893 50.1832 121.229 46.5289 122.643 42.3226C120.181 45.6877 117.928 48.3692 115.884 50.3672C112.793 53.3642 109.859 54.8627 107.082 54.8627C105.824 54.8627 105.195 54.3632 105.195 53.3642C105.195 52.1023 106.217 49.4208 108.261 45.3196C108.732 44.3732 109.361 43.085 110.147 41.455C110.933 39.8251 111.457 38.7472 111.719 38.2214C112.033 37.6956 112.19 37.3276 112.19 37.1173C112.19 36.8544 112.112 36.7229 111.955 36.7229C111.588 36.7229 110.566 37.4853 108.889 39.0101C107.213 40.5349 105.274 42.7958 103.073 45.7928C102.759 46.266 102.576 46.266 102.523 45.7928C102.471 45.267 102.602 44.8464 102.916 44.5309C105.064 41.6391 106.794 39.457 108.103 37.9848C109.466 36.46 110.199 35.6188 110.304 35.461C110.461 35.3033 110.749 35.0404 111.169 34.6723C111.64 34.2517 112.007 33.9625 112.269 33.8048C113.317 33.1738 114.417 32.8584 115.57 32.8584C116.775 32.8584 117.378 33.3053 117.378 34.1991Z" fill="#0075FF" fill-opacity="0.85"/>
<path d="M149.424 54.4684C148.639 53.89 148.246 52.8384 148.246 51.3136C148.35 48.0537 148.874 44.6624 149.817 41.1396C149.555 41.5602 149.189 42.2174 148.717 43.1113C148.246 43.9526 147.879 44.5835 147.617 45.0041C144.368 49.7363 141.827 52.6544 139.993 53.7586C137.635 55.2833 135.775 55.52 134.413 54.4684C133.732 53.89 133.417 52.8384 133.47 51.3136C133.47 46.7918 134.256 42.4278 135.828 38.2214C135.094 39.273 133.968 40.7978 132.448 42.7958C130.929 44.7412 130.143 45.7402 130.09 45.7928C129.723 46.3186 129.54 46.266 129.54 45.6351C129.54 45.2145 129.671 44.8464 129.933 44.5309C132.867 40.5875 135.304 37.091 137.242 34.0414C139.129 33.7785 140.36 33.3842 140.936 32.8584C141.513 32.3326 141.801 32.28 141.801 32.7006C141.801 32.9109 141.722 33.1213 141.565 33.3316C140.622 34.7512 139.548 37.4328 138.343 41.3762C137.138 45.3196 136.535 48.2378 136.535 50.1306C136.535 51.9709 137.007 52.891 137.95 52.891C139.888 52.891 142.665 49.9991 146.281 44.2155C147.067 42.9536 148.088 41.087 149.346 38.6158C150.603 36.1446 151.415 34.6198 151.782 34.0414C153.616 33.7785 154.821 33.3842 155.398 32.8584C156.026 32.3326 156.341 32.28 156.341 32.7006C156.393 32.9109 156.341 33.1213 156.184 33.3316C155.24 34.6986 154.219 37.3802 153.118 41.3762C152.018 45.3196 151.468 48.2378 151.468 50.1306C151.468 51.9709 152.018 52.891 153.118 52.891C153.642 52.891 154.376 52.6807 155.319 52.2601C156.262 51.8394 157.231 51.1296 158.227 50.1306C161.738 46.5552 164.253 42.6907 165.772 38.5369C166.715 36.0131 166.899 34.1729 166.322 33.0161C166.06 32.5955 165.72 32.3326 165.3 32.2274C164.934 32.0697 164.881 31.8857 165.143 31.6753C165.458 31.465 165.693 31.3599 165.851 31.3599C166.06 31.3599 166.217 31.3599 166.322 31.3599C168.418 31.8857 169.466 33.0424 169.466 34.8301C169.466 35.6188 169.256 36.5389 168.837 37.5905C167.685 40.5875 165.851 43.6371 163.336 46.7393C160.873 49.8414 158.279 52.1812 155.555 53.7586C152.883 55.3359 150.839 55.5725 149.424 54.4684Z" fill="#0075FF" fill-opacity="0.85"/>
<path d="M192.809 34.1991C192.809 34.8827 192.363 35.8554 191.472 37.1173C190.634 38.3792 189.35 40.7715 187.621 44.2943C185.892 47.7645 185.028 49.9729 185.028 50.9193C185.028 51.8131 185.394 52.2601 186.128 52.2601C186.914 52.2601 187.909 51.7868 189.115 50.8404C190.372 49.8414 191.472 48.7898 192.416 47.6857C193.411 46.5815 194.721 45.0304 196.345 43.0324C196.45 43.1902 196.502 43.4268 196.502 43.7422C196.502 44.0577 196.162 44.6624 195.481 45.5562C192.809 49.1842 190.555 51.708 188.722 53.1276C186.888 54.5472 185.237 55.2571 183.77 55.2571C182.094 55.2571 181.255 54.4421 181.255 52.8121C181.255 51.1296 182.094 48.6058 183.77 45.2407C185.499 41.8231 186.888 38.9575 187.936 36.6441C188.46 35.5399 188.093 35.3296 186.835 36.0131C180.862 39.7462 176.225 46.0031 172.924 54.7838C172.61 54.7838 171.981 54.9416 171.038 55.2571C170.147 55.6251 169.623 55.8091 169.466 55.8091C169.256 55.8091 169.256 55.5462 169.466 55.0205C169.728 54.5472 170.173 53.5219 170.802 51.9446C171.483 50.3672 172.295 48.3692 173.239 45.9506C175.072 41.3236 176.304 38.274 176.932 36.8018C174.155 39.7988 171.64 42.7958 169.387 45.7928C169.021 46.3186 168.837 46.266 168.837 45.6351C168.837 45.2145 168.968 44.8464 169.23 44.5309C172.95 39.904 175.806 36.1446 177.797 33.2527C180.417 32.8847 181.936 32.5166 182.355 32.1486C182.775 31.7805 183.037 31.5965 183.141 31.5965C183.246 31.5965 183.299 31.7016 183.299 31.9119C183.351 32.1223 183.194 32.4377 182.827 32.8584C182.513 33.2264 180.469 36.9333 176.697 43.9788C179.212 40.6664 182.146 37.7482 185.499 35.2244C187.647 33.6471 189.403 32.8584 190.765 32.8584C192.127 32.8584 192.809 33.3053 192.809 34.1991Z" fill="#0075FF" fill-opacity="0.85"/>
<path d="M198.866 45.2407C198.08 47.2913 197.688 49.2105 197.688 50.9982C197.688 52.7333 198.762 53.6008 200.91 53.6008C201.696 53.6008 202.718 53.3642 203.975 52.891C206.019 52.2075 208.141 50.893 210.341 48.9476C212.542 47.0021 214.35 45.1093 215.764 43.269C215.921 43.4268 216 43.6371 216 43.9C216 44.1629 215.817 44.5572 215.45 45.083C213.511 47.7645 211.101 50.1306 208.219 52.1812C205.337 54.2318 202.403 55.2571 199.417 55.2571C195.539 55.2571 193.601 53.8374 193.601 50.9982C193.601 48.7373 194.806 45.6088 197.216 41.6128C198.578 39.457 200.517 37.459 203.032 35.6188C205.547 33.7259 207.957 32.7795 210.263 32.7795C212.568 32.7795 213.721 33.8837 213.721 36.092C213.721 38.4055 212.804 40.1669 210.97 41.3762C209.188 42.5329 207.145 43.4793 204.84 44.2155C202.587 44.899 200.596 45.2407 198.866 45.2407ZM199.495 43.6634C199.81 43.6634 200.386 43.6634 201.224 43.6634C202.115 43.6634 203.163 43.4793 204.368 43.1113C207.355 42.2174 209.293 40.5349 210.184 38.0637C210.446 37.3276 210.577 36.6441 210.577 36.0131C210.577 35.3296 210.367 34.8564 209.948 34.5935C209.529 34.278 209.162 34.1203 208.848 34.1203C205.442 34.1729 202.325 37.3539 199.495 43.6634Z" fill="#0075FF" fill-opacity="0.85"/>
<path d="M85.1439 112.049C87.7346 112.049 90.2672 111.341 92.4213 110.013C94.5755 108.685 96.2544 106.798 97.2458 104.59C98.2373 102.382 98.4967 99.9522 97.9912 97.6081C97.4858 95.2641 96.2382 93.111 94.4063 91.4211C92.5744 89.7311 90.2403 88.5803 87.6994 88.114C85.1584 87.6477 82.5246 87.887 80.1311 88.8016C77.7375 89.7162 75.6918 91.265 74.2524 93.2522C72.8131 95.2393 72.0448 97.5756 72.0448 99.9656C72.0448 103.17 73.4249 106.244 75.8814 108.51C78.338 110.776 81.6698 112.049 85.1439 112.049ZM84.7213 109.711C82.2062 109.625 79.8075 108.711 77.9605 107.134L83.9607 101.599C84.1923 101.736 84.4507 101.83 84.7213 101.876V109.711ZM85.5664 109.711V101.876C85.8303 101.825 86.0813 101.729 86.3059 101.591L92.3272 107.126C90.4815 108.706 88.0827 109.623 85.5664 109.711ZM92.9061 106.592L86.9059 101.057C87.0575 100.844 87.1623 100.606 87.2144 100.355H95.7076C95.6129 102.677 94.6189 104.889 92.9061 106.592ZM95.7076 99.5758H87.2144C87.1597 99.3323 87.055 99.1008 86.9059 98.8936L92.9061 93.339C94.6189 95.0417 95.6129 97.2546 95.7076 99.5758ZM85.5664 90.2206C88.0816 90.3059 90.4802 91.22 92.3272 92.7972L86.327 98.3323C86.0954 98.1952 85.8371 98.1012 85.5664 98.0555V90.2206ZM86.4115 99.9656C86.4115 100.197 86.3372 100.423 86.1979 100.615C86.0586 100.808 85.8606 100.957 85.629 101.046C85.3973 101.134 85.1425 101.158 84.8966 101.112C84.6507 101.067 84.4248 100.956 84.2475 100.792C84.0702 100.629 83.9495 100.421 83.9006 100.194C83.8517 99.9669 83.8768 99.7317 83.9727 99.5181C84.0687 99.3044 84.2311 99.1217 84.4396 98.9932C84.6481 98.8648 84.8932 98.7962 85.1439 98.7962C85.4801 98.7962 85.8025 98.9194 86.0402 99.1387C86.278 99.358 86.4115 99.6554 86.4115 99.9656ZM84.7213 90.2206V98.0555C84.4574 98.106 84.2064 98.2026 83.9819 98.3401L77.9605 92.805C79.8063 91.225 82.2051 90.308 84.7213 90.2206ZM77.3816 93.339L83.3818 98.8741C83.2303 99.0872 83.1255 99.3255 83.0734 99.5758H74.5801C74.6749 97.2546 75.6689 95.0417 77.3816 93.339ZM83.0734 100.355C83.1281 100.599 83.2328 100.83 83.3818 101.038L77.3816 106.592C75.6689 104.889 74.6749 102.677 74.5801 100.355H83.0734Z" fill="#0075FF" fill-opacity="0.85"/>
<path d="M50.9291 78.164C50.9291 83.6322 49.462 88.8639 46.5279 93.8589C43.5937 98.8013 39.5854 102.797 34.5029 105.847C29.4729 108.844 24.0499 110.342 18.2339 110.342C6.44474 110.342 0.55016 106.189 0.55016 97.8812C0.55016 92.8336 2.30543 87.5231 5.81598 81.9497C7.59745 79.0053 9.7195 76.35 12.1821 73.984C14.6447 71.5653 17.6837 69.5936 21.2991 68.0688C24.9144 66.4915 28.7655 65.7028 32.8524 65.7028C39.0876 65.7028 43.6461 66.7281 46.5279 68.7786C49.462 70.7766 50.9291 73.9051 50.9291 78.164ZM46.4493 77.4542C46.4493 70.4086 41.9694 66.8858 33.0096 66.8858C28.5559 66.8858 24.0761 68.6735 19.57 72.2489C15.1163 75.8242 11.5272 80.0831 8.80257 85.0256C6.07796 89.968 4.71566 94.4898 4.71566 98.591C4.71566 105.637 9.01215 109.159 17.6051 109.159C22.74 109.159 27.5604 107.529 32.0665 104.27C36.625 101.01 40.1617 96.961 42.6767 92.1238C45.1918 87.2339 46.4493 82.344 46.4493 77.4542Z" fill="#0075FF" fill-opacity="0.85"/>
<path d="M86.8271 66.0182C86.8271 66.2286 86.6961 66.3337 86.4341 66.3337C86.2246 66.3337 86.1198 66.2811 86.1198 66.176C86.1198 64.7563 85.0718 64.0465 82.976 64.0465C80.8801 64.0465 78.9153 64.4409 77.0814 65.2296C75.2999 65.9657 73.6495 67.0698 72.13 68.542C70.6629 70.0143 69.3268 71.539 68.1217 73.1164C66.9689 74.6938 65.8162 76.6392 64.6635 78.9527C63.5108 81.2136 62.5677 83.159 61.8341 84.789C61.1006 86.4189 60.236 88.4169 59.2405 90.783C58.2974 93.0965 57.59 94.779 57.1184 95.8306C57.0661 96.0409 57.0922 96.146 57.197 96.146C62.6462 90.6778 66.6546 87.9437 69.222 87.9437C70.1127 87.9437 70.5581 88.5747 70.5581 89.8366V90.5464C69.9293 94.9105 67.8073 99.2745 64.1919 103.639C60.629 107.95 56.7779 110.106 52.6386 110.106C50.0712 110.106 48.7874 109.396 48.7874 107.976C48.7874 106.977 50.1759 103.297 52.9529 96.9347C52.4814 97.4605 51.8526 98.1441 51.0667 98.9853C50.3331 99.8266 49.8354 100.431 49.5734 100.799C49.3638 101.115 49.2328 101.036 49.1804 100.563C49.128 100.037 49.3114 99.5374 49.7306 99.0642C50.1497 98.5384 50.9619 97.5657 52.167 96.146C53.3721 94.7264 54.2628 93.6748 54.8392 92.9913C59.974 82.16 65.5018 73.8262 71.4226 67.99C76.0859 63.4156 80.1466 61.1284 83.6047 61.1284C84.4431 61.1284 85.1766 61.365 85.8054 61.8382C86.4341 62.2588 86.7747 62.8898 86.8271 63.731V66.0182ZM66.707 91.6505C66.707 90.967 66.4712 90.6252 65.9996 90.6252C65.2137 90.6252 63.93 91.4665 62.1485 93.149C60.367 94.8316 58.9261 96.3301 57.8258 97.6446C54.0533 101.956 52.167 105.137 52.167 107.188C52.167 108.239 52.822 108.765 54.1319 108.765C55.4418 108.765 57.0137 107.845 58.8475 106.005C60.2098 104.743 61.8603 102.429 63.799 99.0642C65.7376 95.6991 66.707 93.2279 66.707 91.6505Z" fill="#0075FF" fill-opacity="0.85"/>
<path d="M98.2583 105.847C99.5682 105.163 100.747 104.822 101.795 104.822C102.895 104.822 103.707 104.874 104.231 104.979C104.755 105.032 105.515 105.426 106.511 106.162C107.559 106.951 109.131 108.344 111.226 110.342C115.104 114.233 118.012 116.179 119.95 116.179C120.893 116.074 121.601 115.811 122.072 115.39C122.596 115.022 122.754 114.549 122.544 113.97C122.23 112.814 121.601 111.893 120.658 111.21C120.448 111 120.5 110.816 120.815 110.658C121.129 110.553 121.365 110.553 121.522 110.658C123.042 111.394 123.801 112.656 123.801 114.444C123.801 115.285 123.513 116.126 122.937 116.967C122.361 117.861 121.627 118.492 120.736 118.86C119.846 119.228 119.06 119.412 118.378 119.412L116.885 119.176C115.994 118.913 114.946 118.203 113.741 117.046C112.589 115.889 111.331 114.522 109.969 112.945C108.607 111.42 107.716 110.395 107.297 109.869C106.877 109.396 106.589 109.081 106.432 108.923C106.327 108.765 106.092 108.476 105.725 108.055C105.358 107.635 105.07 107.372 104.86 107.267C104.651 107.109 104.362 106.898 103.996 106.636C103.681 106.373 103.393 106.189 103.131 106.083C102.502 105.821 101.716 105.689 100.773 105.689C99.8302 105.689 98.8084 106.057 97.7081 106.793C96.6602 107.529 96.0052 108.371 95.7433 109.317C95.4813 110.211 95.2455 110.842 95.0359 111.21C94.6168 111.788 94.1976 111.893 93.7784 111.525C93.3593 111.157 93.1497 110.816 93.1497 110.5C93.1497 110.237 93.333 109.817 93.6998 109.238C94.0666 108.607 95.2455 107.24 97.2366 105.137C99.2276 102.981 100.747 101.457 101.795 100.563C102.895 99.6163 104.755 97.96 107.375 95.594C110.047 93.2279 112.222 91.3614 113.899 89.9943C106.668 89.9943 102.66 90.5464 101.874 91.6505C101.402 92.2289 100.983 92.4655 100.616 92.3604C100.302 92.2552 100.328 92.0186 100.695 91.6505C101.061 91.2825 101.743 90.2309 102.738 88.4958C102.895 88.601 103.734 88.6535 105.253 88.6535L115.706 88.4169C116.125 88.4169 116.492 88.7324 116.807 89.3633C117.121 89.9417 117.304 90.4675 117.357 90.9407C110.545 95.8306 106.72 98.6173 105.882 99.3008C105.044 99.9843 102.502 102.166 98.2583 105.847Z" fill="#0075FF" fill-opacity="0.85"/>
<path d="M130.118 88.969C130.118 89.6525 129.673 90.6515 128.782 91.966C127.892 93.2805 126.529 95.7254 124.695 99.3008C122.914 102.824 122.023 105.058 122.023 106.005C122.023 106.898 122.39 107.345 123.124 107.345C124.119 107.345 125.822 106.189 128.232 103.875C130.642 101.562 132.843 98.6961 134.834 95.2785C136.878 91.8083 138.109 89.968 138.528 89.7577C140.781 88.601 142.17 87.97 142.694 87.8648C143.218 87.7597 143.715 87.7071 144.187 87.7071C144.711 87.7071 144.973 87.8911 144.973 88.2592C144.973 88.6273 144.737 88.8113 144.265 88.8113C143.165 88.8113 142.274 89.3108 141.593 90.3098C140.336 92.0975 136.799 99.958 130.983 113.891C129.516 117.362 128.075 120.332 126.66 122.804C125.246 125.327 123.359 127.825 121.002 130.296C116.757 134.765 112.199 137 107.326 137C105.23 137 103.265 136.527 101.432 135.58C98.2354 133.898 96.6373 131.032 96.6373 126.984V125.643C96.6373 124.854 96.9517 124.46 97.5804 124.46C97.6852 124.46 97.7376 124.512 97.7376 124.618L97.5804 126.589C97.5804 128.955 98.3402 130.769 99.8596 132.031C101.327 133.346 103.134 134.003 105.283 134.003C107.379 134.003 109.422 133.609 111.413 132.82C115.867 130.875 119.639 127.772 122.731 123.513C125.874 119.307 128.756 114.154 131.376 108.055C132.633 104.953 133.97 101.299 135.384 97.0925C132.922 100.458 130.669 103.139 128.625 105.137C125.534 108.134 122.6 109.633 119.823 109.633C118.565 109.633 117.936 109.133 117.936 108.134C117.936 106.872 118.958 104.191 121.002 100.089C121.473 99.1431 122.102 97.8549 122.888 96.2249C123.674 94.595 124.198 93.5171 124.46 92.9913C124.774 92.4655 124.931 92.0975 124.931 91.8871C124.931 91.6243 124.853 91.4928 124.695 91.4928C124.329 91.4928 123.307 92.2552 121.63 93.78C119.954 95.3048 118.015 97.5657 115.814 100.563C115.5 101.036 115.317 101.036 115.264 100.563C115.212 100.037 115.343 99.6163 115.657 99.3008C117.805 96.4089 119.534 94.2269 120.844 92.7547C122.207 91.2299 122.94 90.3886 123.045 90.2309C123.202 90.0732 123.49 89.8103 123.91 89.4422C124.381 89.0216 124.748 88.7324 125.01 88.5747C126.058 87.9437 127.158 87.6282 128.311 87.6282C129.516 87.6282 130.118 88.0752 130.118 88.969Z" fill="#0075FF" fill-opacity="0.85"/>
</svg>
