<svg width="44" height="44" viewBox="0 0 44 44" fill="none" xmlns="http://www.w3.org/2000/svg">
<g clip-path="url(#clip0)">
<path d="M19.4635 2.66614H2.78386C1.24635 2.66614 0 3.91257 0 5.44999V19.2929C0 20.8183 1.22702 22.0565 2.74777 22.0758V22.0767L3.52344 22.5156H7.94922L8.9876 22.0767H19.4632C21.0007 22.0767 22.2471 20.8304 22.2471 19.2929V5.44999C22.2471 3.91266 21.0008 2.66631 19.4635 2.66614Z" fill="#6B61B1"/>
<path d="M24.7982 2.66614H19.2162C20.7537 2.66614 22 3.91249 22 5.44999V19.2929C22 20.8304 20.7537 22.0767 19.2162 22.0767H24.7982C26.3358 22.0767 27.5821 20.8304 27.5821 19.2929V5.44999C27.5821 3.91257 26.3358 2.66614 24.7982 2.66614Z" fill="#5E54AC"/>
<path d="M2.7478 28.5435C2.7478 28.9491 3.25973 29.1269 3.51119 28.8086L8.4941 22.5003C8.70533 22.2328 9.02743 22.0768 9.36826 22.0768H2.7478V28.5435Z" fill="#5E54AC"/>
<path d="M34.2427 33.8995L35.2426 35.1655C35.4143 35.1592 35.5535 35.0286 35.576 34.8584C35.6765 34.0978 36.1612 33.4434 36.8708 33.1096C37.9569 32.5987 38.7088 31.4949 38.7088 30.2151V14.3134C38.7088 12.5473 37.277 11.1155 35.5109 11.1155H15.5135C13.7473 11.1155 12.3156 12.5472 12.3156 14.3134V30.2151C12.3156 31.9813 13.7473 33.413 15.5135 33.413H33.2383C33.63 33.413 34 33.5923 34.2427 33.8995Z" fill="#E49542"/>
<path d="M40.8021 11.1155H35.2012C36.9673 11.1155 38.3991 12.5472 38.3991 14.3134V30.2151C38.3991 31.4949 37.6472 32.5987 36.5611 33.1096C35.7611 33.4859 35.2427 34.2814 35.2427 35.1655L39.9667 41.146C40.2555 41.5117 40.8436 41.3074 40.8436 40.8415V33.4119C42.5905 33.3896 44.0001 31.9673 44.0001 30.215V14.3134C44 12.5472 42.5683 11.1155 40.8021 11.1155Z" fill="#E27D47"/>
<path d="M38.693 17.5864H17.6226C17.2559 17.5864 16.9586 17.2892 16.9586 16.9225C16.9586 16.5558 17.2559 16.2585 17.6226 16.2585H38.693C39.0597 16.2585 39.3569 16.5558 39.3569 16.9225C39.3569 17.2892 39.0597 17.5864 38.693 17.5864Z" fill="#F0F7FF"/>
<path d="M38.693 22.6622H17.6226C17.2559 22.6622 16.9586 22.365 16.9586 21.9983C16.9586 21.6316 17.2559 21.3343 17.6226 21.3343H38.693C39.0597 21.3343 39.3569 21.6316 39.3569 21.9983C39.3569 22.3649 39.0597 22.6622 38.693 22.6622Z" fill="#F0F7FF"/>
<path d="M38.693 27.738H17.6226C17.2559 27.738 16.9586 27.4407 16.9586 27.074C16.9586 26.7073 17.2559 26.4101 17.6226 26.4101H38.693C39.0597 26.4101 39.3569 26.7073 39.3569 27.074C39.3569 27.4407 39.0597 27.738 38.693 27.738Z" fill="#F0F7FF"/>
</g>
<defs>
<clipPath id="clip0">
<rect width="44" height="44" fill="white"/>
</clipPath>
</defs>
</svg>
