<svg width="184" height="184" viewBox="0 0 184 184" fill="none" xmlns="http://www.w3.org/2000/svg">
<path d="M100.219 8.73966L85.7589 8.87278C83.6573 8.89208 81.93 10.6116 81.9012 12.7133L81.6845 28.5859C81.6556 30.6875 83.3363 32.3758 85.4383 32.3565L99.8987 32.2237C100.95 32.2143 101.907 31.7795 102.605 31.0846C103.303 30.3898 103.742 29.4342 103.756 28.3834L103.973 12.5106C103.987 11.5013 103.599 10.537 102.895 9.8299C102.191 9.12281 101.229 8.73021 100.219 8.73966Z" fill="#61729B"/>
<path d="M100.22 8.73966L92.919 8.80686L92.7366 22.1633L95.3894 32.2652L99.8989 32.2237C100.95 32.2143 101.907 31.7795 102.605 31.0844C103.303 30.3896 103.742 29.434 103.757 28.3833L103.973 12.5104C103.988 11.5011 103.599 10.537 102.896 9.82972C102.191 9.12228 101.229 8.73021 100.22 8.73966Z" fill="#47568C"/>
<path d="M103.321 45.3797L81.6559 45.5784L77.7982 49.4189L76.6837 131.933L80.4298 135.402L102.095 135.203L105.936 131.664L107.075 49.1503L103.321 45.3797Z" fill="#D9F2FF"/>
<path d="M94.9555 45.4565L92.3662 49.2849L87.0459 67.349L91.8947 83.8181L91.2399 131.799L93.7292 135.28L102.095 135.203L105.936 131.664L107.075 49.1502L103.321 45.3796L94.9555 45.4565Z" fill="#C4E1FF"/>
<path d="M107.075 49.1503L107.312 31.7548C107.348 29.1568 106.369 26.7234 104.557 24.9032C102.745 23.0831 100.316 22.0937 97.7181 22.1176L87.896 22.2077C82.5324 22.2566 78.109 26.6603 78.036 32.0237L77.7985 49.4191L107.075 49.1503Z" fill="#FF6699"/>
<path d="M76.684 131.933C77.7992 148.855 81.0056 160.15 85.7697 175.451L87.0388 179.527C87.5262 181.091 88.9735 182.141 90.6235 182.126C91.6574 182.116 92.6231 181.69 93.3305 180.986C93.7519 180.566 94.0818 180.048 94.2795 179.46L95.6602 175.36C100.843 159.968 104.359 148.611 105.936 131.664L76.684 131.933Z" fill="#61729B"/>
<path d="M97.718 22.1173L92.7366 22.163L92.4986 39.5968L90.8439 49.2992L107.075 49.1504L107.312 31.7549C107.348 29.1568 106.369 26.7235 104.557 24.9033C102.745 23.0828 100.316 22.0934 97.718 22.1173Z" fill="#E62E6B"/>
<path d="M90.5529 182.124C90.5765 182.124 90.5996 182.126 90.6233 182.126C91.6574 182.116 92.6231 181.69 93.3307 180.985C93.7521 180.566 94.082 180.048 94.2797 179.46L95.6604 175.36C100.844 159.968 104.359 148.611 105.937 131.664L91.2401 131.799L90.5529 182.124Z" fill="#47568C"/>
<path d="M88.7247 35.8264L73.4045 35.9671C71.3029 35.9864 69.5757 37.7059 69.5468 39.8076L68.9431 84.0288C68.9142 86.1304 70.595 87.8187 72.6969 87.7994L88.0172 87.6589C89.0266 87.6497 90.0001 87.24 90.7235 86.5198C91.4469 85.7996 91.8613 84.8279 91.8747 83.8186L92.4783 39.5972C92.5073 37.495 90.8266 35.8068 88.7247 35.8264Z" fill="#FED843"/>
</svg>
