<svg width="30" height="30" viewBox="0 0 45 45" fill="none" xmlns="http://www.w3.org/2000/svg">
<path d="M5.10961 18.808C6.55632 18.808 7.8631 17.9394 8.4227 16.6049C10.7332 11.1 16.1663 7.22034 22.5 7.22034C25.9909 7.22034 29.1913 8.41685 31.7572 10.4014L29.746 10.7127C29.0591 10.8192 28.5247 11.3642 28.4316 12.053C28.3383 12.7415 28.7094 13.4094 29.3429 13.694L40.4025 18.6696C40.8873 18.8873 41.4489 18.8455 41.8958 18.5583C42.3419 18.2707 42.6128 17.7771 42.6158 17.2461L42.6731 5.05997C42.677 4.36673 42.2251 3.75365 41.5626 3.55157C40.899 3.34949 40.1821 3.60597 39.7982 4.18302L38.2738 6.47399C34.2096 2.47319 28.6405 0 22.5 0C13.1894 0 5.18442 5.68579 1.77028 13.767C1.29611 14.8871 1.41562 16.1697 2.08698 17.1831C2.75834 18.1968 3.89315 18.808 5.10961 18.808Z" fill="#00CFFB"/>
<path d="M42.9132 27.817C42.2417 26.8032 41.1068 26.192 39.8904 26.192C38.4437 26.192 37.137 27.0607 36.5773 28.3951C34.2667 33.9001 28.8337 37.7797 22.5 37.7797C19.009 37.7797 15.8086 36.5832 13.2427 34.5987L15.2539 34.2875C15.9408 34.1811 16.4752 33.636 16.5684 32.9471C16.6616 32.2587 16.2906 31.5907 15.6571 31.306L4.59754 26.3305C4.11266 26.1129 3.55112 26.1545 3.10419 26.4418C2.65819 26.7294 2.38712 27.2229 2.38425 27.7539L2.32681 39.94C2.32293 40.6332 2.77475 41.2463 3.43733 41.4484C4.10093 41.6505 4.81791 41.3939 5.20175 40.8168L6.72614 38.5258C10.7903 42.5268 16.3594 45 22.4999 45C31.8107 45 39.8154 39.3143 43.2295 31.2331C43.7039 30.1129 43.5844 28.8304 42.9132 27.817Z" fill="#00CFFB"/>
</svg>
