<svg width="30" height="33" viewBox="0 0 30 33" fill="none" xmlns="http://www.w3.org/2000/svg">
<path d="M29.9999 27.3246C29.9999 29.0477 29.4027 30.4428 28.2264 31.4703C27.0637 32.4857 25.5261 33 23.6565 33H6.34263C4.47304 33 2.93539 32.4857 1.77358 31.4703C0.596405 30.442 0 29.0472 0 27.3246C0 26.662 0.0238672 26.0064 0.0716015 25.3759C0.120159 24.7314 0.218371 24.03 0.36322 23.29C0.509166 22.544 0.696811 21.8388 0.921492 21.1943C1.15468 20.5271 1.47016 19.869 1.86054 19.2385C2.26601 18.5842 2.74226 18.0142 3.27611 17.5449C3.83576 17.0537 4.51995 16.6592 5.31086 16.3716C6.09902 16.0856 6.97278 15.9406 7.90771 15.9406C8.2745 15.9406 8.62976 16.0783 9.3145 16.4877C9.74302 16.7443 10.2368 17.0363 10.7819 17.3561C11.2527 17.6315 11.8902 17.8898 12.6784 18.1232C13.3711 18.3289 14.0742 18.4437 14.7688 18.4636C14.8454 18.4661 14.9219 18.4674 14.9985 18.4674C15.7699 18.4674 16.5501 18.3513 17.3193 18.1232C18.1075 17.8898 18.7459 17.6315 19.2164 17.3561C19.7672 17.033 20.261 16.7412 20.6832 16.4885C21.3685 16.0783 21.7232 15.9406 22.0908 15.9406C23.025 15.9406 23.8987 16.0856 24.6874 16.3716C25.4783 16.6592 26.1625 17.0544 26.7216 17.5449C27.2563 18.0142 27.7325 18.5842 28.1377 19.2385C28.5284 19.8695 28.8444 20.5271 29.0768 21.1935C29.3017 21.8388 29.4899 22.544 29.6359 23.2905C29.7799 24.0312 29.8784 24.7327 29.9267 25.3754C29.9752 26.0038 29.9991 26.6595 29.9999 27.3246V27.3246Z" fill="#6AA9FF"/>
<path d="M29.9999 27.3246C29.9999 29.0477 29.4027 30.4428 28.2263 31.4703C27.0637 32.4857 25.526 33 23.6564 33H14.7688V18.4636C14.8453 18.4661 14.9219 18.4674 14.9984 18.4674C15.7698 18.4674 16.5501 18.3513 17.3193 18.1232C18.1075 17.8898 18.7458 17.6315 19.2163 17.3561C19.7672 17.033 20.261 16.7412 20.6832 16.4885C21.3685 16.0783 21.7232 15.9406 22.0908 15.9406C23.0249 15.9406 23.8987 16.0856 24.6874 16.3716C25.4783 16.6592 26.1625 17.0544 26.7216 17.5449C27.2563 18.0142 27.7325 18.5842 28.1377 19.2385C28.5284 19.8695 28.8444 20.5271 29.0768 21.1935C29.3017 21.8388 29.4899 22.544 29.6359 23.2905C29.7799 24.0312 29.8784 24.7327 29.9267 25.3754C29.9752 26.0038 29.9991 26.6595 29.9999 27.3246V27.3246Z" fill="#6AA9FF"/>
<path d="M23.4335 7.94762C23.4335 10.1317 22.5801 12.0223 20.8965 13.5676C19.2129 15.1127 17.1526 15.896 14.7728 15.896H14.7687C12.3918 15.8952 10.3329 15.112 8.64936 13.5676C6.96549 12.0223 6.1123 10.1317 6.1123 7.94762C6.1123 5.76427 6.96549 3.87348 8.64936 2.32837C10.3321 0.783759 12.391 0.000755313 14.7687 0H14.7728C17.1518 0 19.2121 0.783256 20.8965 2.32837C22.5801 3.87348 23.4335 5.76427 23.4335 7.94762Z" fill="#FFBB85"/>
<path d="M14.7729 15.896H14.7688V0H14.7729C17.1519 0 19.2122 0.783256 20.8966 2.32837C22.5802 3.87348 23.4337 5.76427 23.4337 7.94762C23.4337 10.1317 22.5802 12.0223 20.8966 13.5676C19.213 15.1127 17.1528 15.896 14.7729 15.896Z" fill="#FFBB85"/>
<rect x="16.2278" width="13.1845" height="12.1" rx="6.04999" fill="url(#paint0_linear)"/>
<path d="M22.8199 0.711792C19.6125 0.711792 17.0032 3.10649 17.0032 6.05002C17.0032 8.99356 19.6125 11.3883 22.8199 11.3883C26.0272 11.3883 28.6365 8.99356 28.6365 6.05002C28.6365 3.10649 26.0272 0.711792 22.8199 0.711792ZM22.8199 10.6257C20.0706 10.6257 17.8341 8.57311 17.8341 6.05002C17.8341 3.52694 20.0706 1.47439 22.8199 1.47439C25.5691 1.47439 27.8056 3.52694 27.8056 6.05002C27.8056 8.57311 25.5691 10.6257 22.8199 10.6257Z" fill="white"/>
<path d="M22.82 3.508C22.5905 3.508 22.4045 3.67869 22.4045 3.8893V8.21073C22.4045 8.42134 22.5905 8.59203 22.82 8.59203C23.0495 8.59203 23.2355 8.42134 23.2355 8.21073V3.8893C23.2355 3.67869 23.0495 3.508 22.82 3.508Z" fill="white"/>
<path d="M25.1743 5.6687H20.4655C20.236 5.6687 20.05 5.8394 20.05 6.05001C20.05 6.26061 20.236 6.43131 20.4655 6.43131H25.1743C25.4038 6.43131 25.5898 6.26061 25.5898 6.05001C25.5898 5.8394 25.4038 5.6687 25.1743 5.6687Z" fill="white"/>
<defs>
<linearGradient id="paint0_linear" x1="26.6978" y1="-7.42428e-08" x2="20.9646" y2="12.4942" gradientUnits="userSpaceOnUse">
<stop stop-color="#097D2A"/>
<stop offset="1" stop-color="#34FF01"/>
</linearGradient>
</defs>
</svg>
