<svg width="99" height="63" viewBox="0 0 99 63" fill="none" xmlns="http://www.w3.org/2000/svg">
<path d="M0.215606 23.9498L12.3428 4.66547L10.2212 1.43714C9.93725 1.00502 10.0629 0.428867 10.5022 0.149537C10.9414 -0.129793 11.5283 -0.00674814 11.8128 0.426534L13.4987 2.99416L15.1869 0.425951C15.4709 -0.00616503 16.0577 -0.129793 16.4964 0.149537C16.9357 0.428867 17.0613 1.0056 16.7786 1.43772L14.6576 4.66605L26.7842 23.9503C27.0574 24.379 27.0723 24.916 26.8227 25.3586C26.5737 25.8018 26.0995 26.073 25.5856 26.073H20.2179C19.7336 26.073 19.2819 25.8298 19.0199 25.4292L14.4596 18.4273C14.2498 18.1054 13.8882 17.9112 13.4999 17.9112C13.1122 17.9112 12.75 18.1054 12.5402 18.4279L7.98225 25.4292C7.72143 25.831 7.26973 26.0742 6.78424 26.0742H1.41481C0.900271 26.0742 0.426044 25.803 0.177075 25.3592C-0.0718941 24.9155 -0.0576673 24.3784 0.215606 23.9498Z" fill="white"/>
<path d="M37.512 14.8184C38.04 14.8184 38.304 15.0224 38.304 15.4304C38.304 15.7424 38.208 16.0664 38.016 16.4024C37.824 16.7384 37.692 16.9664 37.62 17.0864C37.572 17.1824 37.524 17.2544 37.476 17.3024C37.452 17.3504 37.404 17.3624 37.332 17.3384C37.26 17.2904 37.224 17.2424 37.224 17.1944C37.224 16.7384 36.852 16.5104 36.108 16.5104C35.364 16.5104 34.416 17.1104 33.264 18.3104C33.768 21.0704 34.26 22.8224 34.74 23.5664C34.932 23.8784 35.28 24.0344 35.784 24.0344C36.696 24.0104 38.28 22.5464 40.536 19.6424C40.632 19.7624 40.656 19.9064 40.608 20.0744C40.584 20.2184 40.416 20.4824 40.104 20.8664C38.928 22.3544 37.824 23.5064 36.792 24.3224C36.144 24.8504 35.496 25.1144 34.848 25.1144C34.2 25.1144 33.684 24.9104 33.3 24.5024C32.892 23.9504 32.412 22.4144 31.86 19.8944C30.396 21.7424 29.46 23.2784 29.052 24.5024C28.932 24.7904 28.608 24.9464 28.08 24.9704C27.552 25.0184 27.288 24.9584 27.288 24.7904C27.288 24.7424 27.336 24.6224 27.432 24.4304C27.528 24.2144 27.84 23.5064 28.368 22.3064C28.896 21.0824 29.256 20.2544 29.448 19.8224C29.664 19.3664 30 18.6344 30.456 17.6264C30.912 16.5944 31.296 15.7664 31.608 15.1424C32.832 12.8144 33.684 11.2184 34.164 10.3544C35.292 8.31438 36.648 6.56238 38.232 5.09838C39.816 3.63438 41.376 2.90238 42.912 2.90238C43.296 2.90238 43.632 3.01038 43.92 3.22638C44.232 3.41838 44.388 3.70638 44.388 4.09038V5.13438C44.388 5.23038 44.328 5.27838 44.208 5.27838C44.112 5.27838 44.064 5.25438 44.064 5.20638C44.064 4.55838 43.608 4.23438 42.696 4.23438C41.784 4.23438 40.896 4.41438 40.032 4.77438C39.168 5.11038 38.424 5.61438 37.8 6.28638C37.176 6.95838 36.516 7.83438 35.82 8.91438C34.236 11.3624 32.364 15.4784 30.204 21.2624C30.756 20.5184 31.272 19.8704 31.752 19.3184C31.704 18.9104 31.776 18.5744 31.968 18.3104C32.184 18.0464 32.4 17.8064 32.616 17.5904C32.832 17.3504 32.976 17.1824 33.048 17.0864L33.156 17.6984C35.028 15.7784 36.48 14.8184 37.512 14.8184Z" fill="white"/>
<path d="M42.8479 15.0704L43.9639 15.1064C44.8999 13.8344 45.8359 12.1664 46.7719 10.1024C46.9879 10.0784 47.3239 9.94638 47.7799 9.70638C48.2359 9.44238 48.5599 9.21438 48.7519 9.02238C48.9679 8.80638 49.0999 8.69838 49.1479 8.69838C49.2199 8.69838 49.2559 8.73438 49.2559 8.80638C49.2559 8.85438 49.1599 8.98638 48.9679 9.20238C48.7759 9.41838 48.2959 10.1384 47.5279 11.3624C46.7839 12.5624 46.0999 13.8104 45.4759 15.1064H48.3919C48.6319 15.1064 48.7639 15.1424 48.7879 15.2144C48.8119 15.2864 48.7279 15.3584 48.5359 15.4304C48.3679 15.4784 48.1999 15.5264 48.0319 15.5744C47.8879 15.6224 47.5519 15.6704 47.0239 15.7184C45.8479 15.7904 45.1159 16.0304 44.8279 16.4384C44.5639 16.8224 44.0959 17.8304 43.4239 19.4624C42.1759 22.4864 41.9839 23.9984 42.8479 23.9984C43.5919 23.9984 44.9599 22.8464 46.9519 20.5424L47.6359 19.6784C47.6839 19.7504 47.7079 19.8704 47.7079 20.0384C47.7079 20.1824 47.5759 20.4344 47.3119 20.7944C45.1039 23.6264 43.1119 25.0424 41.3359 25.0424C40.7599 25.0424 40.4719 24.8144 40.4719 24.3584C40.4719 23.7824 40.9399 22.5584 41.8759 20.6864L43.8199 16.3304C41.3719 19.3064 40.1239 20.8304 40.0759 20.9024C39.9079 21.1424 39.8239 21.1184 39.8239 20.8304C39.8239 20.6384 39.8839 20.4704 40.0039 20.3264C41.6359 18.2864 42.7639 16.8584 43.3879 16.0424C43.1719 16.0424 42.5239 16.1024 41.4439 16.2224C41.2039 16.2224 41.2879 16.0304 41.6959 15.6464C42.1279 15.2624 42.4279 15.0704 42.5959 15.0704H42.8479Z" fill="white"/>
<path d="M53.7646 15.6104C53.7646 15.9224 53.5606 16.3784 53.1526 16.9784C52.7446 17.5784 52.1206 18.6944 51.2806 20.3264C50.4646 21.9344 50.0566 22.9544 50.0566 23.3864C50.0566 23.7944 50.2246 23.9984 50.5606 23.9984C51.0166 23.9984 51.7966 23.4704 52.9006 22.4144C54.0046 21.3584 55.0126 20.0504 55.9246 18.4904C56.8606 16.9064 57.4246 16.0664 57.6166 15.9704C58.6486 15.4424 59.2846 15.1544 59.5246 15.1064C59.7646 15.0584 59.9926 15.0344 60.2086 15.0344C60.4486 15.0344 60.5686 15.1184 60.5686 15.2864C60.5686 15.4544 60.4606 15.5384 60.2446 15.5384C59.7406 15.5384 59.3326 15.7664 59.0206 16.2224C58.4446 17.0384 56.8246 20.6264 54.1606 26.9864C53.4886 28.5704 52.8286 29.9264 52.1806 31.0544C51.5326 32.2064 50.6686 33.3464 49.5886 34.4744C47.6446 36.5144 45.5566 37.5344 43.3246 37.5344C42.3646 37.5344 41.4646 37.3184 40.6246 36.8864C39.1606 36.1184 38.4286 34.8104 38.4286 32.9624V32.3504C38.4286 31.9904 38.5726 31.8104 38.8606 31.8104C38.9086 31.8104 38.9326 31.8344 38.9326 31.8824L38.8606 32.7824C38.8606 33.8624 39.2086 34.6904 39.9046 35.2664C40.5766 35.8664 41.4046 36.1664 42.3886 36.1664C43.3486 36.1664 44.2846 35.9864 45.1966 35.6264C47.2366 34.7384 48.9646 33.3224 50.3806 31.3784C51.8206 29.4584 53.1406 27.1064 54.3406 24.3224C54.9166 22.9064 55.5286 21.2384 56.1766 19.3184C55.0486 20.8544 54.0166 22.0784 53.0806 22.9904C51.6646 24.3584 50.3206 25.0424 49.0486 25.0424C48.4726 25.0424 48.1846 24.8144 48.1846 24.3584C48.1846 23.7824 48.6526 22.5584 49.5886 20.6864C49.8046 20.2544 50.0926 19.6664 50.4526 18.9224C50.8126 18.1784 51.0526 17.6864 51.1726 17.4464C51.3166 17.2064 51.3886 17.0384 51.3886 16.9424C51.3886 16.8224 51.3526 16.7624 51.2806 16.7624C51.1126 16.7624 50.6446 17.1104 49.8766 17.8064C49.1086 18.5024 48.2206 19.5344 47.2126 20.9024C47.0686 21.1184 46.9846 21.1184 46.9606 20.9024C46.9366 20.6624 46.9966 20.4704 47.1406 20.3264C48.1246 19.0064 48.9166 18.0104 49.5166 17.3384C50.1406 16.6424 50.4766 16.2584 50.5246 16.1864C50.5966 16.1144 50.7286 15.9944 50.9206 15.8264C51.1366 15.6344 51.3046 15.5024 51.4246 15.4304C51.9046 15.1424 52.4086 14.9984 52.9366 14.9984C53.4886 14.9984 53.7646 15.2024 53.7646 15.6104Z" fill="white"/>
<path d="M68.4436 24.8624C68.0836 24.5984 67.9036 24.1184 67.9036 23.4224C67.9516 21.9344 68.1916 20.3864 68.6236 18.7784C68.5036 18.9704 68.3356 19.2704 68.1196 19.6784C67.9036 20.0624 67.7356 20.3504 67.6156 20.5424C66.1276 22.7024 64.9636 24.0344 64.1236 24.5384C63.0436 25.2344 62.1916 25.3424 61.5676 24.8624C61.2556 24.5984 61.1116 24.1184 61.1356 23.4224C61.1356 21.3584 61.4956 19.3664 62.2156 17.4464C61.8796 17.9264 61.3636 18.6224 60.6676 19.5344C59.9716 20.4224 59.6116 20.8784 59.5876 20.9024C59.4196 21.1424 59.3356 21.1184 59.3356 20.8304C59.3356 20.6384 59.3956 20.4704 59.5156 20.3264C60.8596 18.5264 61.9756 16.9304 62.8636 15.5384C63.7276 15.4184 64.2916 15.2384 64.5556 14.9984C64.8196 14.7584 64.9516 14.7344 64.9516 14.9264C64.9516 15.0224 64.9156 15.1184 64.8436 15.2144C64.4116 15.8624 63.9196 17.0864 63.3676 18.8864C62.8156 20.6864 62.5396 22.0184 62.5396 22.8824C62.5396 23.7224 62.7556 24.1424 63.1876 24.1424C64.0756 24.1424 65.3476 22.8224 67.0036 20.1824C67.3636 19.6064 67.8316 18.7544 68.4076 17.6264C68.9836 16.4984 69.3556 15.8024 69.5236 15.5384C70.3636 15.4184 70.9156 15.2384 71.1796 14.9984C71.4676 14.7584 71.6116 14.7344 71.6116 14.9264C71.6356 15.0224 71.6116 15.1184 71.5396 15.2144C71.1076 15.8384 70.6396 17.0624 70.1356 18.8864C69.6316 20.6864 69.3796 22.0184 69.3796 22.8824C69.3796 23.7224 69.6316 24.1424 70.1356 24.1424C70.3756 24.1424 70.7116 24.0464 71.1436 23.8544C71.5756 23.6624 72.0196 23.3384 72.4756 22.8824C74.0836 21.2504 75.2356 19.4864 75.9316 17.5904C76.3636 16.4384 76.4476 15.5984 76.1836 15.0704C76.0636 14.8784 75.9076 14.7584 75.7156 14.7104C75.5476 14.6384 75.5236 14.5544 75.6436 14.4584C75.7876 14.3624 75.8956 14.3144 75.9676 14.3144C76.0636 14.3144 76.1356 14.3144 76.1836 14.3144C77.1436 14.5544 77.6236 15.0824 77.6236 15.8984C77.6236 16.2584 77.5276 16.6784 77.3356 17.1584C76.8076 18.5264 75.9676 19.9184 74.8156 21.3344C73.6876 22.7504 72.4996 23.8184 71.2516 24.5384C70.0276 25.2584 69.0916 25.3664 68.4436 24.8624Z" fill="white"/>
<path d="M88.3156 15.6104C88.3156 15.9224 88.1116 16.3664 87.7036 16.9424C87.3196 17.5184 86.7316 18.6104 85.9396 20.2184C85.1476 21.8024 84.7516 22.8104 84.7516 23.2424C84.7516 23.6504 84.9196 23.8544 85.2556 23.8544C85.6156 23.8544 86.0716 23.6384 86.6236 23.2064C87.1996 22.7504 87.7036 22.2704 88.1356 21.7664C88.5916 21.2624 89.1916 20.5544 89.9356 19.6424C89.9836 19.7144 90.0076 19.8224 90.0076 19.9664C90.0076 20.1104 89.8516 20.3864 89.5396 20.7944C88.3156 22.4504 87.2836 23.6024 86.4436 24.2504C85.6036 24.8984 84.8476 25.2224 84.1756 25.2224C83.4076 25.2224 83.0236 24.8504 83.0236 24.1064C83.0236 23.3384 83.4076 22.1864 84.1756 20.6504C84.9676 19.0904 85.6036 17.7824 86.0836 16.7264C86.3236 16.2224 86.1556 16.1264 85.5796 16.4384C82.8436 18.1424 80.7196 20.9984 79.2076 25.0064C79.0636 25.0064 78.7756 25.0784 78.3436 25.2224C77.9356 25.3904 77.6956 25.4744 77.6236 25.4744C77.5276 25.4744 77.5276 25.3544 77.6236 25.1144C77.7436 24.8984 77.9476 24.4304 78.2356 23.7104C78.5476 22.9904 78.9196 22.0784 79.3516 20.9744C80.1916 18.8624 80.7556 17.4704 81.0436 16.7984C79.7716 18.1664 78.6196 19.5344 77.5876 20.9024C77.4196 21.1424 77.3356 21.1184 77.3356 20.8304C77.3356 20.6384 77.3956 20.4704 77.5156 20.3264C79.2196 18.2144 80.5276 16.4984 81.4396 15.1784C82.6396 15.0104 83.3356 14.8424 83.5276 14.6744C83.7196 14.5064 83.8396 14.4224 83.8876 14.4224C83.9356 14.4224 83.9596 14.4704 83.9596 14.5664C83.9836 14.6624 83.9116 14.8064 83.7436 14.9984C83.5996 15.1664 82.6636 16.8584 80.9356 20.0744C82.0876 18.5624 83.4316 17.2304 84.9676 16.0784C85.9516 15.3584 86.7556 14.9984 87.3796 14.9984C88.0036 14.9984 88.3156 15.2024 88.3156 15.6104Z" fill="white"/>
<path d="M91.0904 20.6504C90.7304 21.5864 90.5504 22.4624 90.5504 23.2784C90.5504 24.0704 91.0424 24.4664 92.0264 24.4664C92.3864 24.4664 92.8544 24.3584 93.4304 24.1424C94.3664 23.8304 95.3384 23.2304 96.3464 22.3424C97.3544 21.4544 98.1824 20.5904 98.8304 19.7504C98.9024 19.8224 98.9384 19.9184 98.9384 20.0384C98.9384 20.1584 98.8544 20.3384 98.6864 20.5784C97.7984 21.8024 96.6944 22.8824 95.3744 23.8184C94.0544 24.7544 92.7104 25.2224 91.3424 25.2224C89.5664 25.2224 88.6784 24.5744 88.6784 23.2784C88.6784 22.2464 89.2304 20.8184 90.3344 18.9944C90.9584 18.0104 91.8464 17.0984 92.9984 16.2584C94.1504 15.3944 95.2544 14.9624 96.3104 14.9624C97.3664 14.9624 97.8944 15.4664 97.8944 16.4744C97.8944 17.5304 97.4744 18.3344 96.6344 18.8864C95.8184 19.4144 94.8824 19.8464 93.8264 20.1824C92.7944 20.4944 91.8824 20.6504 91.0904 20.6504ZM91.3784 19.9304C91.5224 19.9304 91.7864 19.9304 92.1704 19.9304C92.5784 19.9304 93.0584 19.8464 93.6104 19.6784C94.9784 19.2704 95.8664 18.5024 96.2744 17.3744C96.3944 17.0384 96.4544 16.7264 96.4544 16.4384C96.4544 16.1264 96.3584 15.9104 96.1664 15.7904C95.9744 15.6464 95.8064 15.5744 95.6624 15.5744C94.1024 15.5984 92.6744 17.0504 91.3784 19.9304Z" fill="white"/>
<path d="M39 51.1455C40.1867 51.1455 41.3467 50.822 42.3334 50.2159C43.3201 49.6099 44.0891 48.7484 44.5433 47.7406C44.9974 46.7327 45.1162 45.6237 44.8847 44.5538C44.6532 43.4838 44.0818 42.501 43.2426 41.7296C42.4035 40.9582 41.3344 40.4329 40.1705 40.2201C39.0067 40.0073 37.8003 40.1165 36.7039 40.534C35.6075 40.9515 34.6705 41.6584 34.0112 42.5655C33.3519 43.4725 33 44.5389 33 45.6298C33 47.0927 33.6321 48.4956 34.7574 49.53C35.8826 50.5644 37.4087 51.1455 39 51.1455ZM38.8064 50.078C37.6544 50.039 36.5557 49.6218 35.7097 48.9019L38.4581 46.3753C38.5641 46.4379 38.6825 46.4808 38.8064 46.5017V50.078ZM39.1935 50.078V46.5017C39.3144 46.4786 39.4294 46.4345 39.5323 46.3718L42.2903 48.8983C41.4449 49.6195 40.3461 50.0381 39.1935 50.078ZM42.5555 48.6545L39.8071 46.128C39.8765 46.0308 39.9245 45.922 39.9484 45.8077H43.8387C43.7953 46.8673 43.34 47.8773 42.5555 48.6545ZM43.8387 45.4519H39.9484C39.9233 45.3408 39.8754 45.2351 39.8071 45.1405L42.5555 42.6051C43.34 43.3823 43.7953 44.3924 43.8387 45.4519ZM39.1935 41.1817C40.3456 41.2206 41.4443 41.6379 42.2903 42.3578L39.5419 44.8843C39.4359 44.8217 39.3175 44.7788 39.1935 44.758V41.1817ZM39.5806 45.6298C39.5806 45.7354 39.5466 45.8386 39.4828 45.9264C39.419 46.0141 39.3283 46.0826 39.2222 46.123C39.1161 46.1634 38.9994 46.1739 38.8867 46.1533C38.7741 46.1327 38.6706 46.0819 38.5894 46.0073C38.5082 45.9326 38.4529 45.8375 38.4305 45.7339C38.4081 45.6304 38.4196 45.5231 38.4636 45.4255C38.5075 45.328 38.5819 45.2446 38.6774 45.186C38.7729 45.1273 38.8852 45.096 39 45.096C39.154 45.096 39.3017 45.1523 39.4106 45.2524C39.5195 45.3525 39.5806 45.4882 39.5806 45.6298ZM38.8064 41.1817V44.758C38.6856 44.781 38.5706 44.8251 38.4677 44.8879L35.7097 42.3613C36.5551 41.6401 37.6539 41.2216 38.8064 41.1817ZM35.4445 42.6051L38.1929 45.1316C38.1235 45.2289 38.0755 45.3377 38.0516 45.4519H34.1613C34.2047 44.3924 34.66 43.3823 35.4445 42.6051ZM38.0516 45.8077C38.0767 45.9189 38.1246 46.0246 38.1929 46.1191L35.4445 48.6545C34.66 47.8773 34.2047 46.8673 34.1613 45.8077H38.0516Z" fill="white"/>
<path d="M23.328 35.6784C23.328 38.1744 22.656 40.5624 21.312 42.8424C19.968 45.0984 18.132 46.9224 15.804 48.3144C13.5 49.6824 11.016 50.3664 8.352 50.3664C2.952 50.3664 0.252 48.4704 0.252 44.6784C0.252 42.3744 1.056 39.9504 2.664 37.4064C3.48 36.0624 4.452 34.8504 5.58 33.7704C6.708 32.6664 8.1 31.7664 9.756 31.0704C11.412 30.3504 13.176 29.9904 15.048 29.9904C17.904 29.9904 19.992 30.4584 21.312 31.3944C22.656 32.3064 23.328 33.7344 23.328 35.6784ZM21.276 35.3544C21.276 32.1384 19.224 30.5304 15.12 30.5304C13.08 30.5304 11.028 31.3464 8.964 32.9784C6.924 34.6104 5.28 36.5544 4.032 38.8104C2.784 41.0664 2.16 43.1304 2.16 45.0024C2.16 48.2184 4.128 49.8264 8.064 49.8264C10.416 49.8264 12.624 49.0824 14.688 47.5944C16.776 46.1064 18.396 44.2584 19.548 42.0504C20.7 39.8184 21.276 37.5864 21.276 35.3544Z" fill="white"/>
<path d="M39.771 30.1344C39.771 30.2304 39.711 30.2784 39.591 30.2784C39.495 30.2784 39.447 30.2544 39.447 30.2064C39.447 29.5584 38.967 29.2344 38.007 29.2344C37.047 29.2344 36.147 29.4144 35.307 29.7744C34.491 30.1104 33.735 30.6144 33.039 31.2864C32.367 31.9584 31.755 32.6544 31.203 33.3744C30.675 34.0944 30.147 34.9824 29.619 36.0384C29.091 37.0704 28.659 37.9584 28.323 38.7024C27.987 39.4464 27.591 40.3584 27.135 41.4384C26.703 42.4944 26.379 43.2624 26.163 43.7424C26.139 43.8384 26.151 43.8864 26.199 43.8864C28.695 41.3904 30.531 40.1424 31.707 40.1424C32.115 40.1424 32.319 40.4304 32.319 41.0064V41.3304C32.031 43.3224 31.059 45.3144 29.403 47.3064C27.771 49.2744 26.007 50.2584 24.111 50.2584C22.935 50.2584 22.347 49.9344 22.347 49.2864C22.347 48.8304 22.983 47.1504 24.255 44.2464C24.039 44.4864 23.751 44.7984 23.391 45.1824C23.055 45.5664 22.827 45.8424 22.707 46.0104C22.611 46.1544 22.551 46.1184 22.527 45.9024C22.503 45.6624 22.587 45.4344 22.779 45.2184C22.971 44.9784 23.343 44.5344 23.895 43.8864C24.447 43.2384 24.855 42.7584 25.119 42.4464C27.471 37.5024 30.003 33.6984 32.715 31.0344C34.851 28.9464 36.711 27.9024 38.295 27.9024C38.679 27.9024 39.015 28.0104 39.303 28.2264C39.591 28.4184 39.747 28.7064 39.771 29.0904V30.1344ZM30.555 41.8344C30.555 41.5224 30.447 41.3664 30.231 41.3664C29.871 41.3664 29.283 41.7504 28.467 42.5184C27.651 43.2864 26.991 43.9704 26.487 44.5704C24.759 46.5384 23.895 47.9904 23.895 48.9264C23.895 49.4064 24.195 49.6464 24.795 49.6464C25.395 49.6464 26.115 49.2264 26.955 48.3864C27.579 47.8104 28.335 46.7544 29.223 45.2184C30.111 43.6824 30.555 42.5544 30.555 41.8344Z" fill="white"/>
<path d="M45.007 48.3144C45.607 48.0024 46.147 47.8464 46.627 47.8464C47.131 47.8464 47.503 47.8704 47.743 47.9184C47.983 47.9424 48.331 48.1224 48.787 48.4584C49.267 48.8184 49.987 49.4544 50.947 50.3664C52.723 52.1424 54.055 53.0304 54.943 53.0304C55.375 52.9824 55.699 52.8624 55.915 52.6704C56.155 52.5024 56.227 52.2864 56.131 52.0224C55.987 51.4944 55.699 51.0744 55.267 50.7624C55.171 50.6664 55.195 50.5824 55.339 50.5104C55.483 50.4624 55.591 50.4624 55.663 50.5104C56.359 50.8464 56.707 51.4224 56.707 52.2384C56.707 52.6224 56.575 53.0064 56.311 53.3904C56.047 53.7984 55.711 54.0864 55.303 54.2544C54.895 54.4224 54.535 54.5064 54.223 54.5064L53.539 54.3984C53.131 54.2784 52.651 53.9544 52.099 53.4264C51.571 52.8984 50.995 52.2744 50.371 51.5544C49.747 50.8584 49.339 50.3904 49.147 50.1504C48.955 49.9344 48.823 49.7904 48.751 49.7184C48.703 49.6464 48.595 49.5144 48.427 49.3224C48.259 49.1304 48.127 49.0104 48.031 48.9624C47.935 48.8904 47.803 48.7944 47.635 48.6744C47.491 48.5544 47.359 48.4704 47.239 48.4224C46.951 48.3024 46.591 48.2424 46.159 48.2424C45.727 48.2424 45.259 48.4104 44.755 48.7464C44.275 49.0824 43.975 49.4664 43.855 49.8984C43.735 50.3064 43.627 50.5944 43.531 50.7624C43.339 51.0264 43.147 51.0744 42.955 50.9064C42.763 50.7384 42.667 50.5824 42.667 50.4384C42.667 50.3184 42.751 50.1264 42.919 49.8624C43.087 49.5744 43.627 48.9504 44.539 47.9904C45.451 47.0064 46.147 46.3104 46.627 45.9024C47.131 45.4704 47.983 44.7144 49.183 43.6344C50.407 42.5544 51.403 41.7024 52.171 41.0784C48.859 41.0784 47.023 41.3304 46.663 41.8344C46.447 42.0984 46.255 42.2064 46.087 42.1584C45.943 42.1104 45.955 42.0024 46.123 41.8344C46.291 41.6664 46.603 41.1864 47.059 40.3944C47.131 40.4424 47.515 40.4664 48.211 40.4664L52.999 40.3584C53.191 40.3584 53.359 40.5024 53.503 40.7904C53.647 41.0544 53.731 41.2944 53.755 41.5104C50.635 43.7424 48.883 45.0144 48.499 45.3264C48.115 45.6384 46.951 46.6344 45.007 48.3144Z" fill="white"/>
<path d="M59.6005 40.6104C59.6005 40.9224 59.3965 41.3784 58.9885 41.9784C58.5805 42.5784 57.9565 43.6944 57.1165 45.3264C56.3005 46.9344 55.8925 47.9544 55.8925 48.3864C55.8925 48.7944 56.0605 48.9984 56.3965 48.9984C56.8525 48.9984 57.6325 48.4704 58.7365 47.4144C59.8405 46.3584 60.8485 45.0504 61.7605 43.4904C62.6965 41.9064 63.2605 41.0664 63.4525 40.9704C64.4845 40.4424 65.1205 40.1544 65.3605 40.1064C65.6005 40.0584 65.8285 40.0344 66.0445 40.0344C66.2845 40.0344 66.4045 40.1184 66.4045 40.2864C66.4045 40.4544 66.2965 40.5384 66.0805 40.5384C65.5765 40.5384 65.1685 40.7664 64.8565 41.2224C64.2805 42.0384 62.6605 45.6264 59.9965 51.9864C59.3245 53.5704 58.6645 54.9264 58.0165 56.0544C57.3685 57.2064 56.5045 58.3464 55.4245 59.4744C53.4805 61.5144 51.3925 62.5344 49.1605 62.5344C48.2005 62.5344 47.3005 62.3184 46.4605 61.8864C44.9965 61.1184 44.2645 59.8104 44.2645 57.9624V57.3504C44.2645 56.9904 44.4085 56.8104 44.6965 56.8104C44.7445 56.8104 44.7685 56.8344 44.7685 56.8824L44.6965 57.7824C44.6965 58.8624 45.0445 59.6904 45.7405 60.2664C46.4125 60.8664 47.2405 61.1664 48.2245 61.1664C49.1845 61.1664 50.1205 60.9864 51.0325 60.6264C53.0725 59.7384 54.8005 58.3224 56.2165 56.3784C57.6565 54.4584 58.9765 52.1064 60.1765 49.3224C60.7525 47.9064 61.3645 46.2384 62.0125 44.3184C60.8845 45.8544 59.8525 47.0784 58.9165 47.9904C57.5005 49.3584 56.1565 50.0424 54.8845 50.0424C54.3085 50.0424 54.0205 49.8144 54.0205 49.3584C54.0205 48.7824 54.4885 47.5584 55.4245 45.6864C55.6405 45.2544 55.9285 44.6664 56.2885 43.9224C56.6485 43.1784 56.8885 42.6864 57.0085 42.4464C57.1525 42.2064 57.2245 42.0384 57.2245 41.9424C57.2245 41.8224 57.1885 41.7624 57.1165 41.7624C56.9485 41.7624 56.4805 42.1104 55.7125 42.8064C54.9445 43.5024 54.0565 44.5344 53.0485 45.9024C52.9045 46.1184 52.8205 46.1184 52.7965 45.9024C52.7725 45.6624 52.8325 45.4704 52.9765 45.3264C53.9605 44.0064 54.7525 43.0104 55.3525 42.3384C55.9765 41.6424 56.3125 41.2584 56.3605 41.1864C56.4325 41.1144 56.5645 40.9944 56.7565 40.8264C56.9725 40.6344 57.1405 40.5024 57.2605 40.4304C57.7405 40.1424 58.2445 39.9984 58.7725 39.9984C59.3245 39.9984 59.6005 40.2024 59.6005 40.6104Z" fill="white"/>
</svg>
