<svg width="30" height="30" viewBox="0 0 45 45" fill="none" xmlns="http://www.w3.org/2000/svg">
<path d="M38.8613 12.7441C39.7916 12.7441 40.4366 11.8036 40.0878 10.9412C38.8491 7.87896 35.8448 5.71289 32.3438 5.71289H30.7254C30.1218 2.52483 27.3267 0 23.9063 0H21.0938C17.6757 0 14.8786 2.52316 14.2747 5.71289H12.6563C9.15528 5.71289 6.151 7.87896 4.91236 10.9412C4.56352 11.8036 5.20855 12.7441 6.13887 12.7441H38.8613ZM21.0938 2.63672H23.9063C25.8311 2.63672 27.465 3.9317 28.015 5.71289H16.9851C17.5351 3.9317 19.169 2.63672 21.0938 2.63672Z" fill="#FF0000"/>
<path d="M9.7606 41.3258C9.90729 43.3862 11.6402 45 13.7057 45H31.2944C33.3598 45 35.0928 43.3862 35.2395 41.3258L37.0872 15.3809H7.91296L9.7606 41.3258ZM26.1053 22.4342C26.1417 21.707 26.7617 21.1461 27.4878 21.1833C28.215 21.2197 28.775 21.8387 28.7386 22.5658L28.0355 36.6283C28.0003 37.3331 27.4177 37.8809 26.7199 37.8809C25.9608 37.8809 25.3646 37.246 25.4021 36.4967L26.1053 22.4342ZM17.5124 21.1833C18.2386 21.1468 18.8586 21.7071 18.8949 22.4342L19.598 36.4967C19.6355 37.2464 19.0389 37.8809 18.2802 37.8809C17.5823 37.8809 16.9998 37.3331 16.9646 36.6283L16.2614 22.5658C16.2251 21.8387 16.7852 21.2197 17.5124 21.1833V21.1833Z" fill="#FF0000"/>
</svg>
