<svg width="45" height="45" viewBox="0 0 45 45" fill="none" xmlns="http://www.w3.org/2000/svg">
<g clip-path="url(#clip0)">
<path d="M44.061 2.99363L27.6066 14.8892L24.9067 16.8457C23.4763 17.9024 21.5239 17.9024 20.0936 16.8457L17.3936 14.8892L0.919678 3.01317C1.83597 1.73177 3.31611 0.973404 4.89144 0.978357H40.1088C41.6726 0.979732 43.1415 1.72874 44.061 2.99363Z" fill="#FFD54F"/>
<path d="M0.919638 3.01495L17.3936 14.891L1.42836 30.8562C0.511612 29.9372 -0.00225008 28.6913 4.27182e-05 27.3932V5.8715C-0.00426774 4.8458 0.317733 3.8454 0.919638 3.01495Z" fill="#FFC107"/>
<path d="M45 5.86974V27.3915C45.0023 28.6897 44.4885 29.9355 43.5718 30.8545L27.6066 14.8893L44.0609 2.99365C44.6718 3.82805 45.0006 4.8355 45 5.86974Z" fill="#FFC107"/>
<path d="M29.3478 36.1958C28.0487 36.1958 27.3913 35.2175 27.3913 33.261C27.4233 30.5273 25.2333 28.2854 22.4996 28.2534C19.7659 28.2214 17.524 30.4115 17.492 33.1452C17.46 35.8788 19.6501 38.1207 22.3838 38.1527C23.8489 38.1699 25.2463 37.5371 26.1998 36.4247C26.8494 37.5379 28.0599 38.2022 29.3478 38.1523C33.2609 38.1523 33.2609 34.4701 33.2609 33.261C33.261 27.318 28.4433 22.5001 22.5002 22.4999C16.5572 22.4997 11.7393 27.3175 11.7391 33.2606C11.739 39.2036 16.5568 44.0216 22.4998 44.0217C25.2919 44.0218 27.9749 42.9365 29.9817 40.9952C30.3702 40.617 30.3785 39.9956 30.0003 39.6071C29.6221 39.2186 29.0007 39.2103 28.6122 39.5885C25.1124 42.9641 19.5387 42.8634 16.163 39.3636C12.7874 35.8638 12.8881 30.2901 16.3879 26.9144C19.8877 23.5388 25.4614 23.6395 28.8371 27.1393C30.4222 28.7828 31.3069 30.9778 31.3044 33.2611C31.3044 35.4543 30.8114 36.1958 29.3478 36.1958ZM22.5001 36.1958C20.8792 36.1958 19.5653 34.8818 19.5653 33.261C19.5653 31.6402 20.8792 30.3262 22.5001 30.3262C24.1209 30.3262 25.4348 31.6402 25.4348 33.261C25.4348 34.8818 24.1209 36.1958 22.5001 36.1958Z" fill="#455A64"/>
<path d="M27.6065 14.8892L24.9065 16.8457C23.4761 17.9024 21.5238 17.9024 20.0934 16.8457L17.3934 14.8892L1.42822 30.8544C2.34727 31.7712 3.59308 32.285 4.89126 32.2827H9.83142C10.3607 25.2866 16.4611 20.0442 23.4572 20.5734C29.7174 21.047 34.6929 26.0225 35.1665 32.2827H40.1086C41.4068 32.285 42.6526 31.7712 43.5717 30.8544L27.6065 14.8892Z" fill="#FFA000"/>
</g>
<defs>
<clipPath id="clip0">
<rect width="45" height="45" fill="white"/>
</clipPath>
</defs>
</svg>
