<svg width="203" height="163" viewBox="0 0 203 163" fill="none" xmlns="http://www.w3.org/2000/svg">
<path opacity="0.1" d="M85.4112 163C116.907 163 142.44 160.427 142.44 157.253C142.44 154.079 116.907 151.506 85.4112 151.506C53.9149 151.506 28.3821 154.079 28.3821 157.253C28.3821 160.427 53.9149 163 85.4112 163Z" fill="#6C63FF"/>
<path d="M33.2406 156.63C33.2406 156.63 30.7103 142.304 21.3189 135.205C17.3783 132.225 14.495 128.174 13.2358 123.56C12.6431 121.374 12.2635 119.135 12.1021 116.876" stroke="#535461" stroke-width="2" stroke-miterlimit="10"/>
<path d="M6.21399 112.368C6.99856 113.903 12.2415 117.009 12.2415 117.009C12.2415 117.009 12.9006 111.206 12.1101 109.669C11.3196 108.132 9.36407 107.491 7.73215 108.236C6.10022 108.981 5.42352 110.831 6.21399 112.368Z" fill="#4AB937"/>
<path d="M5.71385 123.107C7.26339 123.991 13.4498 123.913 13.4498 123.913C13.4498 123.913 10.6587 118.703 9.115 117.819C7.57134 116.935 5.55301 117.401 4.61543 118.862C3.67786 120.322 4.16626 122.223 5.71385 123.107Z" fill="#2A6120"/>
<path d="M13.4045 137.557C15.2129 137.582 20.5108 134.567 20.5108 134.567C20.5108 134.567 15.3149 131.4 13.5045 131.373C11.6941 131.345 10.2054 132.709 10.1701 134.417C10.1348 136.124 11.5941 137.525 13.4045 137.557Z" fill="#4AB937"/>
<path d="M21.8311 147.245C23.6081 147.561 29.3709 145.432 29.3709 145.432C29.3709 145.432 24.8164 141.477 23.0413 141.167C21.2662 140.857 19.5499 141.951 19.2165 143.637C18.883 145.322 20.052 146.931 21.8311 147.245Z" fill="#4AB937"/>
<path d="M19.793 121.376C19.1751 122.982 14.3009 126.58 14.3009 126.58C14.3009 126.58 13.0103 120.873 13.6282 119.267C14.246 117.662 16.127 116.833 17.8276 117.415C19.5282 117.997 20.4108 119.773 19.793 121.376Z" fill="#4AB937"/>
<path d="M29.4963 132.831C28.3979 134.189 22.6077 136.247 22.6077 136.247C22.6077 136.247 23.1961 130.436 24.2867 129.079C24.8376 128.421 25.6166 127.995 26.4683 127.886C27.3199 127.777 28.1813 127.993 28.8804 128.491C29.2198 128.725 29.507 129.027 29.7238 129.377C29.9407 129.727 30.0826 130.118 30.1405 130.526C30.1983 130.934 30.171 131.349 30.0601 131.746C29.9492 132.143 29.7572 132.512 29.4963 132.831V132.831Z" fill="#2A6120"/>
<path d="M37.3066 145.185C36.4671 146.698 31.13 149.65 31.13 149.65C31.13 149.65 30.6612 143.831 31.5007 142.318C32.3402 140.804 34.3193 140.22 35.9238 141.012C37.5282 141.804 38.1441 143.672 37.3066 145.185Z" fill="#4AB937"/>
<path d="M32.9229 156.253C32.9229 156.253 36.7615 142.188 31.2263 132.106C28.9039 127.876 28.0076 123.07 28.8392 118.37C29.2385 116.135 29.8526 113.944 30.6732 111.827" stroke="#535461" stroke-width="2" stroke-miterlimit="10"/>
<path d="M27.2248 105.455C27.2876 107.16 30.7417 112.003 30.7417 112.003C30.7417 112.003 33.8368 106.948 33.7741 105.241C33.7113 103.534 32.1951 102.199 30.3866 102.258C28.5782 102.317 27.1601 103.748 27.2248 105.455Z" fill="#4AB937"/>
<path d="M22.1565 115.083C23.1922 116.482 28.8804 118.775 28.8804 118.775C28.8804 118.775 28.5665 112.946 27.5309 111.545C27.0071 110.866 26.246 110.41 25.4001 110.268C24.5541 110.126 23.6857 110.308 22.9686 110.778C22.62 110.997 22.3205 111.285 22.0888 111.625C21.857 111.965 21.698 112.349 21.6218 112.753C21.5455 113.157 21.5537 113.573 21.6457 113.974C21.7377 114.375 21.9116 114.752 22.1565 115.083Z" fill="#4AB937"/>
<path d="M22.9804 131.228C24.6241 131.943 30.7634 131.214 30.7634 131.214C30.7634 131.214 27.3721 126.329 25.7284 125.614C24.0847 124.899 22.139 125.575 21.3799 127.125C20.6208 128.676 21.3387 130.512 22.9804 131.228Z" fill="#4AB937"/>
<path d="M26.5208 143.311C28.0134 144.279 34.1939 144.536 34.1939 144.536C34.1939 144.536 31.7264 139.183 30.2357 138.217C29.5173 137.749 28.6486 137.57 27.8036 137.716C26.9586 137.861 26.1998 138.32 25.6793 139.001C25.4347 139.334 25.2618 139.713 25.1715 140.116C25.0811 140.518 25.0753 140.935 25.1544 141.341C25.2335 141.746 25.3957 142.13 25.6309 142.469C25.8661 142.808 26.1691 143.095 26.5208 143.311Z" fill="#2A6120"/>
<path d="M35.771 118.883C34.5157 120.114 28.5137 121.543 28.5137 121.543C28.5137 121.543 29.7867 115.829 31.04 114.598C31.6603 114.004 32.4817 113.666 33.3406 113.65C34.1995 113.634 35.033 113.942 35.6749 114.512C35.9834 114.784 36.2322 115.116 36.4056 115.489C36.579 115.861 36.6731 116.266 36.6822 116.677C36.6912 117.087 36.6149 117.495 36.4581 117.875C36.3012 118.255 36.0673 118.598 35.771 118.883V118.883Z" fill="#2A6120"/>
<path d="M39.7134 133.064C38.1265 133.885 31.95 133.554 31.95 133.554C31.95 133.554 34.9765 128.458 36.5633 127.643C38.1501 126.827 40.1429 127.37 41.0118 128.868C41.8808 130.365 41.308 132.243 39.7134 133.064Z" fill="#4AB937"/>
<path d="M41.5553 147.345C40.1372 148.407 33.99 149.066 33.99 149.066C33.99 149.066 36.0613 143.564 37.4794 142.502C38.1687 141.991 39.0257 141.758 39.8791 141.851C40.7325 141.943 41.5195 142.354 42.0829 143.002C42.3493 143.315 42.5479 143.68 42.6663 144.073C42.7847 144.467 42.8202 144.881 42.7706 145.289C42.721 145.697 42.5875 146.09 42.3783 146.444C42.1691 146.798 41.8889 147.105 41.5553 147.345V147.345Z" fill="#2A6120"/>
<path d="M194.617 74.1213C194.735 73.7999 193.852 72.0182 193.852 71.93C193.852 71.8418 192.94 70.848 192.94 70.2934C192.94 69.7387 191.732 68.5411 191.732 68.5411C191.732 68.5411 190.113 67.8688 189.937 66.4085C189.76 64.9483 187.997 64.9169 187.993 64.9169C187.993 64.9169 187.993 64.7836 188.005 64.5818C188.005 64.127 187.991 63.3156 187.787 62.8726C187.577 62.4694 187.217 62.1647 186.785 62.0239C186.785 62.0239 186.608 60.8851 186.255 60.5343C186.058 60.3283 185.916 60.0756 185.844 59.7999C185.772 59.5242 185.771 59.2345 185.841 58.9584C186.018 58.4037 185.606 56.9983 184.751 56.8023C183.896 56.6063 182.927 56.277 182.927 56.277C182.927 56.277 182.831 56.2947 182.691 56.3143L182.574 56.277C182.369 56.3148 182.162 56.3403 181.954 56.3535C181.773 56.3599 181.597 56.3014 181.456 56.1888C181.159 55.8674 178.774 55.2539 178.333 55.2539C177.892 55.2539 176.625 54.6659 176.625 54.6659L175.361 53.7015C175.006 53.431 174.349 52.3295 174.253 52.1746L174.241 52.1531C174.133 51.9042 174.044 51.6473 173.975 51.3847V51.3847C174.405 50.9349 174.773 50.4292 175.069 49.8814C175.1 49.8245 175.128 49.7657 175.155 49.7089C175.222 49.7077 175.288 49.6972 175.352 49.6775C175.377 49.6775 175.403 49.6579 175.428 49.6481C175.727 49.491 175.951 49.2227 176.054 48.9013V48.9013C176.075 48.8386 176.095 48.7739 176.111 48.7053C176.111 48.6838 176.111 48.6603 176.124 48.6387C176.138 48.6171 176.144 48.5505 176.152 48.5054C176.16 48.4603 176.162 48.4544 176.166 48.4309C176.169 48.4074 176.179 48.3427 176.185 48.2976C176.191 48.2526 176.185 48.2486 176.185 48.2251C176.185 48.1683 176.199 48.1134 176.207 48.0585C176.227 47.8512 176.257 47.6451 176.299 47.4411C176.299 47.4411 176.299 47.4411 176.299 47.4411C176.475 46.6571 176.952 45.9789 177.291 45.2458C177.34 45.142 177.386 45.0342 177.427 44.9264C177.468 44.8185 177.509 44.6911 177.542 44.5716L177.572 44.4618C177.593 44.3756 177.613 44.2874 177.631 44.1992C177.631 44.16 177.646 44.1208 177.652 44.0816C177.672 43.96 177.69 43.8385 177.699 43.715C177.763 43.015 177.663 42.3099 177.407 41.655C177.186 41.1062 176.858 40.6123 176.634 40.0635C176.295 39.2324 176.207 38.2994 175.793 37.4997C175.1 36.1708 173.469 35.5063 172.127 36.0061C171.486 36.2433 170.93 36.7059 170.281 36.9137C169.41 37.19 168.481 36.9823 167.58 36.8568C166.68 36.7314 165.684 36.7216 164.96 37.3096C164.126 37.9858 163.897 39.2579 163.114 40.0007C162.787 40.3124 162.377 40.5123 162.029 40.8004C161.786 40.9957 161.598 41.252 161.486 41.5433C161.486 41.5649 161.472 41.5845 161.466 41.606C161.461 41.6276 161.453 41.655 161.447 41.6805C161.441 41.706 161.435 41.7393 161.431 41.7687C161.427 41.7981 161.431 41.8099 161.431 41.8295C161.427 41.8817 161.427 41.9341 161.431 41.9863V41.9863C161.437 42.0357 161.445 42.0848 161.457 42.1333C161.457 42.147 161.457 42.1607 161.457 42.1744C161.457 42.1882 161.48 42.2548 161.494 42.296C161.493 42.3038 161.493 42.3117 161.494 42.3195C161.51 42.3646 161.527 42.4077 161.545 42.4528L161.574 42.5194L161.598 42.5743C161.713 42.7899 161.804 43.0173 161.871 43.2525C161.907 43.4013 161.898 43.5576 161.845 43.7013C161.765 43.864 161.654 44.0092 161.517 44.1286C160.932 44.7376 160.479 45.4619 160.19 46.2553C160.156 46.3454 160.123 46.4356 160.093 46.5297L160.135 46.5395C160.219 46.5651 160.305 46.5841 160.392 46.5963C160.441 46.5963 160.49 46.6081 160.541 46.612C160.742 46.6226 160.944 46.6068 161.141 46.565C161.19 46.5552 161.241 46.5434 161.29 46.5297C161.492 46.4739 161.689 46.4011 161.878 46.3121C161.878 46.3709 161.878 46.4317 161.878 46.4905C161.878 46.5493 161.878 46.5571 161.878 46.5904C161.88 47.8828 162.243 49.1489 162.925 50.2468C163.607 51.3447 164.582 52.2308 165.74 52.8058C165.74 52.8685 165.758 52.9332 165.766 53.0018C165.774 53.0704 165.78 53.1076 165.786 53.1605L165.707 53.0841C165.707 53.0841 165.176 52.8214 164.675 53.58C164.175 54.3385 163.234 54.6913 163.234 54.6913C163.234 54.6913 157.875 55.5381 157.669 56.2398L155.166 56.3848C155.166 56.3848 154.282 56.5024 154.186 58.3449C154.089 60.1873 153.627 60.3618 153.627 60.3618C153.627 60.3618 152.597 62.1729 152.685 63.1058C152.773 64.0388 151.9 64.5092 151.9 64.5092L151.783 66.1733C151.783 66.1733 150.802 66.0283 150.545 67.1671C150.288 68.3059 149.81 68.8331 149.81 68.8331C149.81 68.8331 148.189 70.1777 148.101 71.3165L147.101 71.93C147.101 71.93 144.775 71.4047 144.245 70.4698L144.082 70.3169C144.077 70.3095 144.072 70.3016 144.068 70.2934C144.068 70.2973 144.068 70.3012 144.068 70.3051C143.719 69.9758 142.982 69.2898 143.088 69.4466C143.156 69.5935 143.173 69.7594 143.135 69.917L142.962 69.721L142.499 69.2075C142.499 69.2075 138.739 65.6794 136.531 65.4089C136.501 65.3521 136.36 64.7974 135.983 65.1443C135.671 65.43 135.42 65.7774 135.249 66.1645C135.077 66.5517 134.987 66.9701 134.985 67.3936C134.983 67.8171 135.069 68.2365 135.237 68.6252C135.405 69.0139 135.652 69.3637 135.962 69.6524L139.483 72.9394L139.573 73.0061L140.33 73.9861C140.202 74.2919 140.095 74.5878 140.006 74.8583C140.006 74.8583 140.006 74.876 139.996 74.8838C139.979 74.9426 139.959 74.9975 139.942 75.0524L139.924 75.1112C139.908 75.166 139.891 75.2209 139.875 75.2719C139.859 75.3229 139.857 75.3366 139.847 75.3679C139.838 75.3993 139.847 75.4052 139.832 75.4228C139.749 75.7168 139.694 75.9422 139.667 76.0677L139.471 76.0069L139.667 76.0892C139.667 76.099 139.667 76.1108 139.667 76.1206L139.655 76.1814L139.836 76.2598C140.867 76.7086 146.016 78.9646 146.281 79.3076C146.575 79.6859 148.517 80.7973 150.284 79.8623C152.052 78.9274 152.442 77.4946 152.442 77.4946C152.442 77.4946 154.148 75.1288 154.207 74.778C154.266 74.4271 155.592 74.0175 155.592 74.0175C155.592 74.0175 155.71 77.9376 155.033 79.3645C154.356 80.7914 153.089 87.138 153.089 87.138C153.172 87.1215 153.256 87.1163 153.34 87.1224C153.293 87.3517 153.266 87.4889 153.266 87.4889C153.369 87.4702 153.474 87.4702 153.578 87.4889C153.483 88.2102 152.942 91.558 152.942 91.558C152.942 91.558 152.765 93.077 152.471 93.6023C152.177 94.1276 152.148 96.8756 152.148 96.8756L151.677 98.8611C151.731 98.9784 151.79 99.0929 151.855 99.2041V99.2041C151.855 99.2041 152.361 100.325 153.211 100.954C153.172 101.267 153.092 101.572 152.973 101.864C152.789 102.307 152.709 102.786 152.738 103.265C152.738 103.265 152.238 105.516 152.297 106.158C152.356 106.801 151.973 108.379 151.973 108.379L151.426 113.448C151.426 113.448 151.073 117.86 151.249 119.059C151.426 120.259 151.13 121.892 151.13 121.892C151.13 121.892 151.483 125.369 151.394 125.749C151.306 126.129 150.865 127.764 151.13 128.672C151.394 129.579 151.249 132.061 151.249 132.061C151.249 132.061 151.426 135.332 151.63 136.384C151.834 137.437 151.571 138.782 151.571 138.782C151.571 138.782 151.375 141.03 151.277 141.03C151.179 141.03 150.424 142.578 151.983 144.099C153.542 145.62 152.571 145.383 152.571 145.383C152.571 145.383 151.336 144.769 151.481 146.026C151.622 147.222 151.816 146.91 151.834 146.877L151.54 147.837L151.736 147.866L151.565 148.062C151.389 148.285 151.192 148.491 150.977 148.678C150.622 148.94 150.584 149.525 150.584 149.525C150.584 149.525 148.407 151.892 146.375 153.09C145.306 153.721 144.384 154.254 143.982 154.695C143.619 155.087 143.678 155.413 144.431 155.661C146.022 156.187 148.817 156.446 150.82 155.779C152.013 155.38 153.087 154.687 153.94 153.762C153.94 153.762 155.207 153.119 156.445 153.353C157.683 153.586 160.154 151.981 160.154 151.981L160.109 151.565L159.978 150.371C159.895 150.271 159.833 150.154 159.798 150.028C159.762 149.903 159.754 149.771 159.772 149.642C159.786 149.289 159.751 148.935 159.668 148.592C159.648 148.476 159.625 148.36 159.603 148.253L159.829 148.211C159.829 148.211 159.536 146.72 160.066 146.428C160.596 146.136 160.447 142.312 160.447 142.312C160.447 142.312 159.772 141.435 159.417 141.29C159.062 141.145 159.387 139.33 159.448 139.097C159.509 138.864 159.978 134.334 159.978 134.334C159.978 134.334 159.801 132.903 160.037 132.29C160.272 131.676 159.754 129.324 159.754 129.324C159.754 129.324 159.578 129.032 159.903 128.681C160.229 128.331 160.099 125.204 160.099 125.204C160.099 125.204 160.072 123.626 160.072 123.217C160.072 122.807 160.425 121.317 160.749 120.822C161.072 120.326 160.866 118.775 160.866 118.775L160.884 118.66C160.884 118.615 160.9 118.56 160.911 118.493L160.937 118.338C161.08 117.477 161.275 116.626 161.519 115.788C161.912 114.561 162.343 112.399 162.343 112.399L165.089 105.265L165.121 105.18C165.121 105.18 166.386 107.519 166.386 109.688C166.386 109.688 166.709 112.289 166.621 112.991C166.533 113.693 166.882 116.976 166.882 116.976C166.882 116.976 167.265 121.709 167.265 121.915C167.265 122.121 167.735 125.773 168.031 126.327C168.328 126.882 167.735 128.577 167.559 128.752C167.382 128.926 167.618 133.223 167.618 133.223C167.618 133.223 167.176 136.612 167.088 137.313C167 138.015 166.647 140.704 166.941 141.755C167.235 142.806 167.117 142.953 167.117 142.953C167.117 142.953 168.179 144.034 167.559 144.129C167.333 144.178 167.121 144.274 166.936 144.412C166.751 144.55 166.598 144.725 166.487 144.927C166.375 145.129 166.308 145.352 166.29 145.582C166.272 145.812 166.303 146.042 166.382 146.259C166.749 147.33 167.182 148.378 167.678 149.395C167.678 149.395 167.861 149.354 168.165 149.293V149.64L168.2 151.381C168.2 151.381 168.396 153.047 168.288 153.427C168.202 153.705 168.092 155.015 168.028 155.699C168.006 155.948 167.994 156.114 167.994 156.114C167.994 156.114 167.994 157.663 171.262 157.196C174.53 156.73 175.118 155.444 175.118 155.444C175.118 155.444 175.118 155.383 175.142 155.283C175.191 154.987 175.297 154.36 175.383 154.011C175.501 153.543 174.441 151.44 174.441 151.44C174.441 151.44 174.265 150.009 173.969 149.687C173.847 149.502 173.767 149.293 173.733 149.074C173.706 148.956 173.682 148.833 173.663 148.713C173.736 148.722 173.809 148.736 173.88 148.752C173.88 148.752 173.704 147.729 174.383 147.408C175.061 147.086 174.883 146.416 174.795 146.122C174.706 145.828 175.059 144.193 175.059 144.193C175.012 144.031 175.009 143.859 175.05 143.695C175.092 143.531 175.176 143.381 175.295 143.26C175.709 142.849 176.03 139.987 176.03 139.987L176.089 128.942C176.089 128.942 176.297 126.982 176.062 126.198C175.826 125.414 175.589 123.891 175.913 123.481C176.236 123.072 175.942 121.174 175.942 121.174C175.942 121.174 175.942 117.17 176.385 116.178C176.829 115.186 176.679 108.902 176.679 108.902L176.795 104.786C176.795 104.786 177.758 103.877 177.531 99.1355C178.557 99.0708 179.714 99.0336 179.884 99.1747C180.208 99.4393 182.299 100.782 183.535 99.9352C183.8 99.8176 185.006 98.7964 185.006 98.7964L184.488 90.035C184.812 90.5231 185.008 90.8484 185.008 90.8484C185.008 89.6214 188.481 85.6464 188.481 85.6464C188.481 85.6464 191.72 81.4696 192.426 80.9717C193.132 80.4739 194.517 77.8454 194.517 77.8454C194.721 77.3441 194.958 76.8563 195.225 76.3852C195.56 75.8462 194.499 74.4428 194.617 74.1213ZM187.018 77.1869C186.136 77.2751 184.272 79.292 184.251 79.7349C184.237 79.9662 184.041 80.2759 183.858 80.5189C183.845 80.3425 183.829 80.1622 183.815 79.9799C183.607 77.3985 183.382 74.2527 183.484 73.9469C183.662 73.4216 183.601 71.0558 183.601 71.0558L183.633 71.0107C184.221 72.8434 186.071 75.0053 186.071 75.0053C186.071 75.0053 186.395 75.9403 186.777 75.9697C187.159 75.9991 187.018 77.1869 187.018 77.1869Z" fill="url(#paint0_linear)"/>
<path d="M139.814 76.5225C139.814 76.5225 140.887 70.8971 144.341 70.8677L146.865 76.0579L145.182 77.2183C145.182 77.2183 141.526 77.3339 139.814 76.5225Z" fill="#65617D"/>
<path opacity="0.1" d="M146.865 76.0579L145.182 77.2182C145.182 77.2182 142.609 77.3006 140.769 76.8478C140.441 76.7701 140.121 76.6611 139.814 76.5224C139.814 76.5224 139.814 76.4911 139.834 76.4323C139.834 76.4323 139.834 76.4185 139.834 76.4107C139.992 75.7047 140.21 75.0136 140.487 74.3448C140.595 74.0919 140.714 73.8313 140.844 73.5706C141.35 72.5905 142.06 71.6458 143.033 71.1734C143.392 70.997 143.784 70.895 144.184 70.8735H144.286H144.337L144.392 70.9892L145.245 72.7415L146.865 76.0579Z" fill="black"/>
<path d="M175.534 99.4296C175.534 99.4296 179.163 99.0826 179.48 99.3433C179.798 99.604 181.86 100.937 183.08 100.096C184.3 99.2551 183.486 96.3268 183.486 96.2112C183.486 96.0955 183.37 91.948 183.37 91.948L181.193 89.0197L178.466 83.8883L172.896 83.3356L173.041 91.4855L173.011 95.6604L175.534 99.4296Z" fill="#65617D"/>
<path opacity="0.1" d="M175.534 99.4296C175.534 99.4296 179.163 99.0826 179.48 99.3433C179.798 99.604 181.86 100.937 183.08 100.096C184.3 99.2551 183.486 96.3268 183.486 96.2112C183.486 96.0955 183.37 91.948 183.37 91.948L181.193 89.0197L178.466 83.8883L172.896 83.3356L173.041 91.4855L173.011 95.6604L175.534 99.4296Z" fill="black"/>
<path d="M143.615 70.7187C143.615 70.7187 143.325 74.2566 141.12 74.3134C141.12 74.3134 140.494 73.9371 139.653 73.3099C137.715 71.8614 134.642 69.0762 135.491 66.485C136.709 62.7746 142.629 69.6211 142.629 69.6211L143.082 70.1307L143.615 70.7187Z" fill="#FBBEBE"/>
<path opacity="0.1" d="M143.615 70.7188C143.615 70.7188 143.325 74.2566 141.12 74.3135C141.12 74.3135 140.495 73.9372 139.653 73.3099L139.467 73.0689C139.841 73.2639 140.253 73.3749 140.675 73.3942C141.007 73.4074 141.334 73.3194 141.615 73.1419C141.895 72.9644 142.115 72.7058 142.244 72.4005C142.476 71.9456 142.68 71.4769 142.854 70.9971C142.962 70.7175 143.038 70.427 143.082 70.1307L143.615 70.7188Z" fill="black"/>
<path d="M142.658 77.132L142.162 76.493L140.491 74.3369L139.639 73.2374C140.013 73.4334 140.426 73.5445 140.848 73.5627C141.403 73.5764 142.025 73.3667 142.417 72.5709C142.648 72.1152 142.852 71.6459 143.027 71.1656C143.301 70.3816 143.297 69.9895 143.199 69.8465C143.101 69.7034 143.815 70.3718 144.159 70.6971L144.17 70.7089L144.331 70.8598L144.39 70.9774L145.231 72.6572C145.231 72.6572 145.231 72.6807 145.231 72.7277C145.314 73.2668 145.598 76.6518 142.658 77.132Z" fill="#E7EFFD"/>
<path d="M160.04 151.769C160.04 151.769 157.602 153.364 156.384 153.141C155.166 152.917 153.917 153.549 153.917 153.549C153.077 154.465 152.018 155.154 150.839 155.55C148.878 156.216 146.112 155.954 144.545 155.432C143.804 155.185 143.743 154.868 144.1 154.474C144.492 154.035 145.406 153.507 146.453 152.88C148.456 151.692 150.602 149.352 150.602 149.352C150.602 149.352 150.631 148.764 150.981 148.513C151.195 148.328 151.392 148.124 151.569 147.902C151.881 147.533 152.173 147.149 152.173 147.149L159.344 147.357C159.344 147.357 159.466 147.872 159.562 148.4C159.644 148.741 159.677 149.093 159.662 149.444C159.643 149.572 159.651 149.702 159.685 149.826C159.719 149.951 159.778 150.067 159.858 150.168L159.987 151.344L160.04 151.769Z" fill="#65617D"/>
<path d="M175.042 153.77C174.955 154.117 174.845 154.738 174.804 155.03L174.779 155.191C174.779 155.191 174.19 156.467 170.979 156.932C167.769 157.396 167.759 155.858 167.759 155.858C167.759 155.858 167.771 155.693 167.79 155.444C167.847 154.766 167.963 153.466 168.049 153.19C168.163 152.814 167.961 151.159 167.961 151.159L167.927 149.433L167.902 148.233L173.243 147.68C173.276 148.079 173.334 148.476 173.416 148.868C173.448 149.086 173.528 149.294 173.649 149.478C173.939 149.797 174.112 151.218 174.112 151.218C174.112 151.218 175.157 153.306 175.042 153.77Z" fill="#65617D"/>
<path opacity="0.1" d="M159.344 147.357C159.344 147.357 159.466 147.872 159.562 148.4C158.787 148.543 155.402 149.129 154.556 148.719C153.597 148.255 151.538 147.994 151.538 147.994L151.571 147.876C151.883 147.508 152.175 147.124 152.175 147.124L159.344 147.357Z" fill="black"/>
<path opacity="0.1" d="M173.415 148.868C172.062 148.639 169.1 149.193 167.923 149.433L167.898 148.233L173.239 147.68C173.273 148.079 173.332 148.476 173.415 148.868V148.868Z" fill="black"/>
<path d="M176.426 104.91L176.31 108.999C176.31 108.999 176.456 115.233 176.02 116.219C175.585 117.205 175.585 121.178 175.585 121.178C175.585 121.178 175.875 123.062 175.555 123.468C175.236 123.873 175.469 125.381 175.7 126.165C175.932 126.949 175.73 128.891 175.73 128.891L175.671 139.852C175.671 139.852 175.353 142.692 174.945 143.1C174.828 143.22 174.745 143.369 174.705 143.532C174.664 143.695 174.667 143.865 174.714 144.027C174.714 144.027 174.367 145.65 174.453 145.942C174.539 146.234 174.714 146.898 174.047 147.216C173.38 147.533 173.553 148.55 173.553 148.55C171.958 148.172 167.431 149.189 167.431 149.189C166.942 148.182 166.515 147.145 166.154 146.085C166.076 145.87 166.045 145.641 166.062 145.414C166.08 145.186 166.146 144.965 166.256 144.765C166.366 144.564 166.517 144.39 166.7 144.253C166.882 144.116 167.092 144.019 167.315 143.97C167.923 143.882 166.88 142.809 166.88 142.809C166.88 142.809 166.996 142.664 166.705 141.622C166.415 140.579 166.762 137.898 166.85 137.212C166.939 136.526 167.372 133.152 167.372 133.152C167.372 133.152 167.141 128.891 167.315 128.717C167.49 128.542 168.068 126.861 167.78 126.31C167.492 125.759 167.023 122.135 167.023 121.931C167.023 121.727 166.648 117.031 166.648 117.031C166.648 117.031 166.299 113.754 166.388 113.058C166.476 112.362 166.154 109.783 166.154 109.783C166.154 107.627 164.907 105.316 164.907 105.316L164.875 105.4L162.186 112.48C162.186 112.48 161.751 114.624 161.374 115.841C161.136 116.669 160.947 117.51 160.807 118.36L160.782 118.515C160.782 118.579 160.762 118.634 160.756 118.677L160.739 118.795C160.739 118.795 160.935 120.332 160.621 120.826C160.307 121.319 159.954 122.797 159.954 123.203C159.954 123.609 159.983 125.175 159.983 125.175C159.983 125.175 160.099 128.278 159.787 128.627C159.475 128.975 159.64 129.264 159.64 129.264C159.64 129.264 160.162 131.616 159.93 132.221C159.699 132.827 159.874 134.25 159.874 134.25C159.874 134.25 159.409 138.746 159.352 138.978C159.295 139.209 158.973 141.008 159.322 141.153C159.672 141.298 160.336 142.167 160.336 142.167C160.336 142.167 160.484 145.967 159.96 146.255C159.436 146.543 159.726 148.019 159.726 148.019C159.726 148.019 155.521 148.831 154.564 148.366C153.607 147.902 151.545 147.641 151.545 147.641L151.834 146.688C151.816 146.722 151.624 147.031 151.486 145.844C151.343 144.597 152.561 145.205 152.561 145.205C152.561 145.205 153.518 145.438 151.973 143.931C150.427 142.423 151.188 140.885 151.277 140.885C151.365 140.885 151.569 138.654 151.569 138.654C151.569 138.654 151.83 137.319 151.626 136.275C151.422 135.23 151.249 131.982 151.249 131.982C151.249 131.982 151.394 129.518 151.133 128.621C150.872 127.723 151.306 126.096 151.394 125.72C151.482 125.343 151.124 121.902 151.124 121.902C151.124 121.902 151.414 120.279 151.239 119.091C151.065 117.903 151.414 113.522 151.414 113.522L151.936 108.477C151.936 108.477 152.312 106.909 152.255 106.272C152.198 105.635 152.693 103.403 152.693 103.403C152.663 102.927 152.742 102.451 152.924 102.011C153.214 101.423 153.33 99.5178 153.33 99.5178L156.117 93.1378L157.49 87.5125L175.914 87.338C175.914 87.338 175.983 87.8261 176.095 88.71C176.207 89.594 176.363 90.9073 176.538 92.5282C176.699 94.0002 176.875 95.731 177.046 97.6577C177.603 103.808 176.426 104.91 176.426 104.91Z" fill="#3F3D56"/>
<path d="M174.722 54.1367L170.426 58.7193C170.426 58.7193 164.915 56.5142 165.495 55.7616C165.719 55.4695 165.691 54.5483 165.554 53.533C165.358 51.9257 164.915 50.0774 164.915 50.0774C164.915 50.0774 174.547 48.5094 173.741 50.1342C173.445 50.7223 173.496 51.42 173.68 52.061C173.914 52.8043 174.265 53.5052 174.722 54.1367Z" fill="#FBBEBE"/>
<path opacity="0.1" d="M173.735 50.1381C173.439 50.7262 173.298 50.7889 173.482 51.4298C172.223 52.7764 170.62 54.2542 168.628 54.2542C167.561 54.2559 166.509 54.0096 165.554 53.5349C165.358 51.9277 164.915 50.0793 164.915 50.0793C164.915 50.0793 174.547 48.5113 173.735 50.1381Z" fill="black"/>
<path d="M175.536 47.1765C175.505 48.987 174.764 50.713 173.472 51.9826C172.18 53.2521 170.441 53.9635 168.629 53.9635C166.817 53.9635 165.077 53.2521 163.785 51.9826C162.493 50.713 161.752 48.987 161.721 47.1765C161.721 47.1432 161.721 47.1099 161.721 47.0785C161.734 45.2482 162.475 43.498 163.779 42.2129C164.425 41.5766 165.19 41.0737 166.03 40.7328C166.87 40.3919 167.77 40.2198 168.677 40.2262C169.584 40.2326 170.48 40.4175 171.316 40.7703C172.151 41.123 172.909 41.6368 173.546 42.2822C174.183 42.9276 174.686 43.692 175.027 44.5318C175.368 45.3716 175.54 46.2702 175.534 47.1765H175.536Z" fill="#FBBEBE"/>
<path opacity="0.1" d="M176.534 92.7066C175.62 92.7066 172.574 92.7399 169.169 92.7929H169.128L168.004 92.8125H167.969C163.932 92.8771 159.952 92.0892 158.358 92.2382C154.964 92.5557 159.578 89.1021 159.578 89.1021C162.107 89.7165 164.71 89.9803 167.312 89.8861L168.292 89.8351C171.376 89.6607 174.477 89.3706 176.097 88.8845C176.205 89.7822 176.36 91.0857 176.534 92.7066Z" fill="black"/>
<path d="M176.534 92.5322C175.62 92.5322 172.574 92.5655 169.169 92.6184H169.128L168.004 92.638H167.969C163.932 92.7027 159.952 91.9148 158.358 92.0637C154.964 92.3832 159.578 88.9276 159.578 88.9276C162.107 89.542 164.71 89.8058 167.312 89.7117L168.292 89.6607C171.376 89.4863 174.477 89.1962 176.097 88.712C176.205 89.6097 176.36 90.9073 176.534 92.5322Z" fill="#5F5D7E"/>
<path opacity="0.1" d="M166.772 56.0497L161.433 58.5449L157.314 90.382C157.314 90.382 159.75 89.2804 161.145 89.9763C162.539 90.6721 166.833 90.0351 166.833 90.0351C166.833 90.0351 169.971 89.8606 170.432 90.2095C170.893 90.5584 176.348 88.7512 176.348 88.7512C176.348 88.7512 177.329 86.5481 176.579 86.2032C175.83 85.8582 176.819 82.4379 176.819 82.4379L176.348 59.472L175.418 56.5142L172.923 55.007L170.373 57.0356L169.155 57.2101L166.772 56.0497Z" fill="black"/>
<path d="M166.772 55.7027L161.433 58.1959L157.314 90.035C157.314 90.035 159.75 88.9335 161.145 89.6293C162.539 90.3251 166.833 89.6861 166.833 89.6861C166.833 89.6861 169.971 89.5137 170.432 89.8606C170.893 90.2075 176.352 88.4101 176.352 88.4101C176.352 88.4101 177.332 86.207 176.583 85.8621C175.834 85.5171 176.819 82.087 176.819 82.087L176.348 59.123L175.418 56.1673L172.923 54.658L170.373 56.6886L169.155 56.8631L166.772 55.7027Z" fill="#E7EFFD"/>
<path opacity="0.1" d="M166.684 57.1806C166.684 57.1806 168.222 59.0074 168.194 59.3857C168.167 59.764 168.106 60.6617 168.106 60.6617L166.945 63.0138C166.945 63.0138 166.307 65.9421 166.307 66.5517C166.307 67.1612 165.291 72.4318 165.291 72.4318L164.069 80.5523L162.531 91.1954L164.101 93.8905L165.956 92.3224L168.424 73.357L168.945 69.6172C168.945 69.6172 169.497 62.8903 169.497 62.1945C169.497 61.4986 169.179 59.6719 169.179 59.6719C169.179 59.6719 169.555 57.9313 171.123 57.5158C172.69 57.1003 171.007 57.4276 171.007 57.4276L170.107 56.7043L169.322 57.0219C169.322 57.0219 167.149 56.3692 166.684 57.1806Z" fill="black"/>
<path d="M166.509 57.0082C166.509 57.0082 168.049 58.8349 168.02 59.2113C167.99 59.5876 167.931 60.4873 167.931 60.4873L166.772 62.8393C166.772 62.8393 166.133 65.7677 166.133 66.3772C166.133 66.9868 165.117 72.2574 165.117 72.2574L163.899 80.3759L162.361 91.019L163.93 93.7161L165.787 92.148L168.253 73.1845L168.777 69.4467C168.777 69.4467 169.328 62.7198 169.328 62.024C169.328 61.3281 169.01 59.5014 169.01 59.5014C169.01 59.5014 169.387 57.7608 170.954 57.3551C172.521 56.9494 170.838 57.2689 170.838 57.2689L169.938 56.5436L169.153 56.8631C169.153 56.8631 166.974 56.1947 166.509 57.0082Z" fill="#6C63FF"/>
<path opacity="0.1" d="M165.495 53.9622C165.495 53.9622 165.262 54.1367 165.205 55.297C165.148 56.4574 164.334 59.0662 164.334 59.0662C164.334 59.0662 167.353 56.9787 168.861 57.21L165.495 53.9622Z" fill="black"/>
<path d="M165.495 53.6153C165.495 53.6153 165.262 53.7878 165.205 54.9481C165.148 56.1085 164.334 58.7173 164.334 58.7173C164.334 58.7173 167.353 56.6299 168.861 56.8631L165.495 53.6153Z" fill="#E7EFFD"/>
<path opacity="0.1" d="M173.735 53.0352L168.973 57.2101C168.973 57.2101 172.978 59.5876 173.5 60.1678C174.022 60.748 174.543 54.4836 174.543 54.4836L173.735 53.0352Z" fill="black"/>
<path d="M173.91 52.6862L169.151 56.8631C169.151 56.8631 173.155 59.2406 173.68 59.8208C174.206 60.401 174.724 54.1367 174.724 54.1367L173.91 52.6862Z" fill="#E7EFFD"/>
<path opacity="0.1" d="M165.668 53.9622C165.668 53.9622 165.146 53.7015 164.654 54.4562C164.291 54.9481 163.799 55.3295 163.232 55.5577C163.232 55.5577 157.95 56.3986 157.74 57.0944L155.272 57.2394C155.272 57.2394 154.401 57.3551 154.315 59.1818C154.229 61.0086 153.764 61.1831 153.764 61.1831C153.764 61.1831 152.748 62.9804 152.836 63.9075C152.924 64.8346 152.051 65.3011 152.051 65.3011L155.678 74.7251C155.678 74.7251 155.796 78.6099 155.127 80.0309C154.458 81.452 153.213 87.7437 153.213 87.7437C153.213 87.7437 153.734 87.6281 153.705 87.975C153.676 88.322 153.085 92.1225 153.085 92.1225C153.085 92.1225 152.911 93.6298 152.62 94.1531C152.33 94.6765 152.301 97.399 152.301 97.399L151.838 99.3708C151.838 99.3708 152.94 101.837 154.623 101.488C156.306 101.139 159.352 94.5589 159.352 94.5589L161.298 87.4537L162.806 80.4367L163.242 75.6816L163.938 65.1561L164.954 58.1959C164.954 58.1959 166.076 54.4503 165.668 53.9622Z" fill="black"/>
<path d="M165.495 53.6153C165.495 53.6153 164.972 53.3546 164.479 54.1073C164.117 54.5998 163.625 54.9814 163.057 55.2088C163.057 55.2088 157.777 56.0497 157.565 56.7455L155.098 56.8906C155.098 56.8906 154.229 57.0082 154.14 58.8349C154.052 60.6617 153.589 60.8342 153.589 60.8342C153.589 60.8342 152.573 62.6335 152.662 63.5606C152.75 64.4877 151.877 64.9523 151.877 64.9523L155.506 74.3762C155.506 74.3762 155.621 78.261 154.954 79.6821C154.288 81.1031 153.038 87.3968 153.038 87.3968C153.038 87.3968 153.56 87.2792 153.532 87.6281C153.505 87.977 152.893 91.7736 152.893 91.7736C152.893 91.7736 152.718 93.2829 152.428 93.8043C152.138 94.3256 152.11 97.0521 152.11 97.0521L151.646 99.0239C151.646 99.0239 152.748 101.488 154.431 101.141C156.114 100.794 159.166 94.21 159.166 94.21L161.109 87.1067L162.618 80.0898L163.053 75.3327L163.75 64.8072L164.766 57.849C164.766 57.849 165.901 54.1073 165.495 53.6153Z" fill="#65617D"/>
<path opacity="0.1" d="M146.865 76.0579L145.182 77.2183C145.182 77.2183 142.609 77.3006 140.769 76.8478L139.834 76.4323L139.637 76.35L139.834 76.4107C140.805 76.6988 141.564 76.693 142.158 76.493C144.539 75.6914 144.276 71.7615 144.184 70.8736C144.184 70.7834 144.168 70.7266 144.164 70.705C144.164 70.7011 144.164 70.6971 144.164 70.6932L144.178 70.7168C144.211 70.7703 144.248 70.8214 144.288 70.8696C144.321 70.9069 144.357 70.9461 144.394 70.9833L145.235 72.6631C145.235 72.6631 145.235 72.6866 145.235 72.7337L146.865 76.0579Z" fill="black"/>
<path d="M152.693 64.7209L151.879 64.9522L151.763 66.6046C151.763 66.6046 150.806 66.4595 150.545 67.5846C150.284 68.7097 149.819 69.2389 149.819 69.2389C149.819 69.2389 148.223 70.5717 148.136 71.7027L147.156 72.3122C147.156 72.3122 144.863 71.7889 144.341 70.8618C144.341 70.8618 145.386 78.3433 139.814 76.5166C139.814 76.5166 146.053 79.241 146.344 79.6193C146.634 79.9976 148.548 81.0972 150.29 80.1701C152.032 79.243 152.408 77.818 152.408 77.818C152.408 77.818 154.091 75.466 154.148 75.121C154.205 74.776 155.521 74.3664 155.521 74.3664L158.016 68.3353L152.693 64.7209Z" fill="#65617D"/>
<path opacity="0.1" d="M173.068 56.5142L173.91 52.6862C173.91 52.6862 174.286 53.9328 174.665 54.2229L175.912 55.1814C175.912 55.1814 177.16 55.7596 177.595 55.7596C178.031 55.7596 180.381 56.3692 180.671 56.6887C180.961 57.0081 182.122 56.7749 182.122 56.7749C182.122 56.7749 183.08 57.0944 183.921 57.2963C184.763 57.4981 185.169 58.8917 184.994 59.4523C184.923 59.7267 184.923 60.0145 184.994 60.2888C185.065 60.563 185.205 60.8148 185.4 61.0204C185.749 61.3693 185.924 62.5002 185.924 62.5002C186.349 62.6404 186.701 62.9426 186.904 63.3411C187.195 63.9781 187.101 65.3697 187.101 65.3697L182.785 71.4596C182.785 71.4596 182.842 73.8117 182.67 74.3311C182.497 74.8505 183.278 83.7256 183.278 83.7256L184.178 98.9768C184.178 98.9768 182.987 99.9921 182.727 100.108C182.466 100.223 182.205 94.7157 182.205 94.5118C182.205 94.308 175.503 84.4783 175.503 84.4783C175.503 84.4783 174.602 83.0298 174.602 82.7142C174.602 82.3987 173.761 79.4664 173.761 79.4664L172.484 73.8117L173.068 56.5142Z" fill="black"/>
<path d="M187.471 65.0346C187.471 65.2306 187.471 65.3678 187.471 65.3678L183.156 71.4439C183.156 71.4439 183.215 73.796 183.042 74.3135C182.94 74.6173 183.162 77.7377 183.368 80.3014C183.513 82.1498 183.65 83.708 183.65 83.708L184.033 90.1762L184.549 98.9572C184.549 98.9572 183.36 99.9725 183.099 100.088C182.838 100.204 182.577 94.6961 182.577 94.4922C182.577 94.2884 175.873 84.4607 175.873 84.4607C175.873 84.4607 174.973 83.0083 174.973 82.6966C174.973 82.385 174.131 79.4488 174.131 79.4488L172.856 73.794L173.435 56.5122L173.91 52.6862C173.91 52.6862 174.635 53.9348 175.012 54.2229L176.26 55.1794C176.26 55.1794 177.507 55.7674 177.942 55.7674C178.378 55.7674 180.73 56.375 181.02 56.6945C181.31 57.014 182.469 56.7808 182.469 56.7808C182.469 56.7808 183.427 57.1003 184.268 57.3021C185.11 57.504 185.518 58.8976 185.343 59.4582C185.272 59.7325 185.272 60.0204 185.343 60.2948C185.414 60.5691 185.554 60.8209 185.749 61.0262C186.096 61.3732 186.271 62.5041 186.271 62.5041C186.696 62.6456 187.048 62.9483 187.251 63.347C187.459 63.7684 187.479 64.5739 187.471 65.0346Z" fill="#65617D"/>
<path opacity="0.1" d="M152.002 142.288C152.146 142.288 158.24 142.519 158.124 143.505C158.008 144.491 152.002 142.288 152.002 142.288Z" fill="black"/>
<path opacity="0.1" d="M153.365 143.94C153.365 143.94 157.457 144.607 156.382 145.216C155.307 145.826 153.365 143.94 153.365 143.94Z" fill="black"/>
<path opacity="0.1" d="M168.581 141.649C168.581 141.649 175.371 142.237 174.355 142.984C173.339 143.731 170.93 143.852 170.824 143.882C170.719 143.911 168.581 141.649 168.581 141.649Z" fill="black"/>
<path opacity="0.1" d="M167.759 144.636C167.759 144.636 171.531 145.273 171.646 146.008C171.762 146.743 167.759 144.636 167.759 144.636Z" fill="black"/>
<path opacity="0.1" d="M169.848 127.18C169.848 127.18 173.3 127.992 173.504 128.552L169.848 127.18Z" fill="black"/>
<path opacity="0.1" d="M156.527 129.673C156.527 129.673 154.729 130.195 156.471 131.241C158.212 132.288 156.527 129.673 156.527 129.673Z" fill="black"/>
<path opacity="0.1" d="M164.509 101.807C164.705 101.807 167.874 100.764 168.977 101.219C169.766 101.515 170.6 101.674 171.442 101.688L164.509 101.807Z" fill="black"/>
<path opacity="0.1" d="M164.915 105.112L164.883 105.4L162.186 112.48C162.186 112.48 161.751 114.624 161.374 115.841C161.136 116.669 160.947 117.51 160.807 118.36L163.202 103.518L164.915 105.112Z" fill="black"/>
<path d="M169.128 92.6184L168.004 92.638H167.969L167.31 89.7156L168.29 89.6627L169.128 92.6184Z" fill="#3F3D56"/>
<path d="M182.819 89.0785L182.095 89.6665L179.684 91.6521C179.684 91.6521 173.155 95.1331 171.356 91.8265C169.771 88.9139 177.174 86.8343 178.956 86.3815C179.198 86.3207 179.335 86.2894 179.335 86.2894L182.819 89.0785Z" fill="#FBBEBE"/>
<path opacity="0.1" d="M154.933 60.5735C154.933 60.5735 156.21 61.1615 156.502 61.9651C156.794 62.7688 154.933 60.5735 154.933 60.5735Z" fill="black"/>
<path opacity="0.1" d="M150.986 69.2722C150.986 69.2722 149.129 71.5341 149.884 72.4083C150.639 73.2825 150.986 69.2722 150.986 69.2722Z" fill="black"/>
<path opacity="0.1" d="M184.182 61.8495C184.182 61.8495 182.44 62.0239 182.383 63.5312L184.182 61.8495Z" fill="black"/>
<path opacity="0.1" d="M168.049 85.6269C168.222 85.4525 172.227 79.537 173.149 80.0604L168.049 85.6269Z" fill="black"/>
<path opacity="0.1" d="M175.536 47.1765C175.538 48.3134 175.257 49.4328 174.718 50.4341L174.667 50.4243C174.23 50.3322 174.002 49.8226 173.667 49.5051C173.461 49.3092 173.199 49.1826 172.917 49.1432C172.636 49.1038 172.349 49.1536 172.097 49.2856C171.844 49.4378 171.638 49.6576 171.502 49.9203C171.366 50.1831 171.306 50.4784 171.329 50.7732C171.107 49.8442 171.178 48.8583 170.962 47.9272C170.746 46.9962 170.097 46.0554 169.206 46.0397C168.814 46.0397 168.377 46.1789 168.098 45.8927C167.931 45.7202 167.902 45.4478 167.773 45.2361C167.137 44.209 165.201 44.7284 164.411 45.2557C163.62 45.7829 162.704 46.6277 161.721 47.0785C161.734 45.2482 162.475 43.498 163.779 42.2129C164.425 41.5766 165.19 41.0736 166.03 40.7328C166.87 40.3919 167.77 40.2198 168.677 40.2262C169.584 40.2326 170.48 40.4175 171.316 40.7703C172.151 41.123 172.909 41.6368 173.546 42.2822C174.183 42.9276 174.686 43.692 175.027 44.5318C175.368 45.3716 175.54 46.2702 175.534 47.1765H175.536Z" fill="black"/>
<path d="M167.774 45.0636C167.9 45.2733 167.933 45.5458 168.1 45.7182C168.376 46.0064 168.826 45.8574 169.208 45.8652C170.099 45.8809 170.748 46.8217 170.964 47.7528C171.179 48.6838 171.109 49.6697 171.33 50.5988C171.308 50.3037 171.368 50.0081 171.504 49.7452C171.64 49.4824 171.847 49.2628 172.101 49.1111C172.353 48.9792 172.64 48.9294 172.921 48.9688C173.203 49.0081 173.465 49.1347 173.67 49.3306C174.006 49.6481 174.233 50.1578 174.671 50.2499C175.108 50.342 175.53 49.9225 175.689 49.4659C175.848 49.0092 175.836 48.4996 175.94 48.0213C176.136 47.1177 176.724 46.3749 177.054 45.5144C177.443 44.4681 177.432 43.3154 177.024 42.2764C176.807 41.7315 176.483 41.2415 176.261 40.6985C175.928 39.8714 175.842 38.9345 175.434 38.1505C174.751 36.8314 173.143 36.1728 171.819 36.6687C171.189 36.9039 170.642 37.3625 170.001 37.5683C169.143 37.8447 168.225 37.6369 167.339 37.5135C166.452 37.39 165.47 37.3782 164.756 37.9604C163.934 38.6327 163.71 39.8949 162.937 40.6319C162.614 40.9416 162.212 41.1396 161.87 41.4159C161.529 41.6923 161.233 42.1274 161.282 42.592C161.333 43.1917 161.921 43.7366 161.704 44.2933C161.625 44.4547 161.516 44.5992 161.382 44.7186C160.736 45.3955 160.255 46.2126 159.978 47.106C161.529 47.592 163.21 45.8809 164.426 45.0714C165.205 44.5559 167.139 44.0346 167.774 45.0636Z" fill="#7C5C5C"/>
<path opacity="0.1" d="M182.819 89.0785L182.095 89.6665C181.457 88.6081 178.843 86.4913 178.843 86.4913L178.957 86.3815C179.198 86.3207 179.335 86.2894 179.335 86.2894L182.819 89.0785Z" fill="black"/>
<path d="M183.515 88.0044C183.515 88.0044 183.254 88.6513 182.987 89.2079C182.721 89.7646 182.426 90.2742 182.413 89.8606C182.383 89.0492 179.017 86.3227 179.017 86.3227L179.474 85.8797L180.002 85.3662L183.515 88.0044Z" fill="#E7EFFD"/>
<path opacity="0.1" d="M183.631 83.7119L184.013 90.1801C183.111 88.7787 180.636 85.1879 179.045 85.3035L182.899 80.8718C183.06 80.6933 183.208 80.5041 183.342 80.3054C183.488 82.1537 183.631 83.7119 183.631 83.7119Z" fill="black"/>
<path opacity="0.1" d="M183.515 88.0045C183.515 88.0045 183.254 88.6513 182.987 89.2079C181.975 87.8222 180.585 86.1855 179.474 85.8758L180.002 85.3623L183.515 88.0045Z" fill="black"/>
<path d="M186.416 64.5465L187.462 65.358C187.462 65.358 189.201 65.3874 189.376 66.8378C189.55 68.2883 191.141 68.9547 191.141 68.9547C191.141 68.9547 192.33 70.1425 192.33 70.6932C192.33 71.244 193.23 72.2299 193.23 72.3181C193.23 72.4063 194.101 74.1743 193.983 74.4918C193.866 74.8093 194.913 76.2029 194.593 76.7243C194.331 77.1928 194.099 77.6772 193.897 78.1748C193.897 78.1748 192.534 80.7855 191.837 81.2775C191.141 81.7695 187.948 85.917 187.948 85.917C187.948 85.917 184.525 89.8606 184.525 91.0778C184.525 91.0778 181.191 85.5112 179.214 85.6563L183.074 81.2187C183.074 81.2187 183.741 80.4955 183.77 80.0603C183.799 79.6252 185.628 77.624 186.498 77.5377C186.498 77.5377 186.642 76.348 186.265 76.3186C185.888 76.2892 185.569 75.3621 185.569 75.3621C185.569 75.3621 183.019 72.3475 182.985 70.4325C182.952 68.5176 186.416 64.5465 186.416 64.5465Z" fill="#65617D"/>
<path opacity="0.1" d="M187.954 67.3004C187.954 67.3004 185.518 69.0997 186.039 69.6779C186.561 70.2562 187.954 67.3004 187.954 67.3004Z" fill="black"/>
<path opacity="0.1" d="M188.07 74.7251C188.07 74.7251 192.597 73.2746 193.061 74.7251H188.07Z" fill="black"/>
<path opacity="0.1" d="M160.04 151.769C160.04 151.769 157.602 153.364 156.384 153.141C155.166 152.917 153.917 153.549 153.917 153.549C153.077 154.465 152.018 155.154 150.839 155.55C148.878 156.216 146.112 155.954 144.545 155.432C143.804 155.185 143.743 154.868 144.1 154.474C145.804 154.813 149.611 155.489 150.637 154.997C151.971 154.358 153.887 152.966 153.887 152.966C153.887 152.966 156.384 152.62 156.731 152.62C156.979 152.62 158.907 151.824 159.995 151.369L160.04 151.769Z" fill="black"/>
<path opacity="0.1" d="M174.804 155.03L174.779 155.191C174.779 155.191 174.19 156.467 170.979 156.932C167.769 157.396 167.759 155.858 167.759 155.858C167.759 155.858 167.771 155.693 167.79 155.444C168.81 155.83 171.034 156.261 174.804 155.03Z" fill="black"/>
<path opacity="0.1" d="M156.137 66.9535C156.137 66.9535 156.137 73.5647 155.57 74.2174C155.003 74.8701 156.137 66.9535 156.137 66.9535Z" fill="black"/>
<path opacity="0.1" d="M182.295 69.084L183.136 71.4479C183.136 71.4479 183.472 69.1272 182.295 69.084Z" fill="black"/>
<g opacity="0.1">
<path opacity="0.1" d="M161.778 43.7386C161.99 43.1937 161.433 42.6606 161.361 42.0765C161.287 42.2412 161.255 42.4217 161.268 42.6018C161.306 43.0408 161.629 43.4505 161.716 43.8582C161.74 43.8202 161.761 43.7802 161.778 43.7386V43.7386Z" fill="black"/>
<path opacity="0.1" d="M171.409 49.9833C171.201 49.0699 171.262 48.1017 171.05 47.1863C170.838 46.271 170.185 45.3145 169.296 45.2988C168.904 45.2988 168.465 45.4399 168.188 45.1538C168.02 44.9813 167.992 44.7069 167.861 44.4971C167.225 43.4681 165.291 43.9895 164.499 44.5168C163.322 45.3008 161.682 46.9531 160.16 46.5807C160.087 46.7551 160.021 46.9335 159.964 47.1158C161.515 47.6019 163.196 45.8907 164.412 45.0812C165.197 44.556 167.139 44.0346 167.774 45.0636C167.9 45.2733 167.933 45.5458 168.1 45.7183C168.376 46.0064 168.826 45.8574 169.208 45.8653C170.099 45.8809 170.748 46.8218 170.964 47.7528C171.179 48.6838 171.109 49.6697 171.33 50.5988C171.316 50.3905 171.343 50.1814 171.409 49.9833V49.9833Z" fill="black"/>
<path opacity="0.1" d="M175.771 48.8975C175.614 49.3561 175.2 49.7795 174.753 49.6815C174.306 49.5835 174.088 49.0798 173.755 48.7603C173.548 48.5665 173.286 48.4415 173.005 48.4025C172.724 48.3636 172.438 48.4126 172.186 48.5427C171.944 48.6868 171.745 48.8929 171.609 49.1396C171.474 49.3863 171.406 49.6648 171.415 49.9461C171.532 49.5921 171.776 49.2935 172.099 49.1072C172.351 48.9753 172.638 48.9255 172.919 48.9649C173.201 49.0043 173.463 49.1308 173.668 49.3267C174.004 49.6443 174.231 50.1539 174.669 50.246C175.106 50.3381 175.528 49.9187 175.687 49.462C175.769 49.1908 175.823 48.9115 175.846 48.629C175.827 48.72 175.802 48.8097 175.771 48.8975V48.8975Z" fill="black"/>
<path opacity="0.1" d="M177.136 44.946C176.811 45.8064 176.218 46.5473 176.022 47.4529C175.983 47.6352 175.96 47.8214 175.938 48.0095C176.134 47.1079 176.723 46.369 177.05 45.5105C177.195 45.1243 177.285 44.7199 177.319 44.309C177.274 44.5256 177.213 44.7385 177.136 44.946V44.946Z" fill="black"/>
</g>
<path d="M135.202 65.9421C135.241 65.9421 135.273 65.9105 135.273 65.8715C135.273 65.8326 135.241 65.801 135.202 65.801C135.163 65.801 135.132 65.8326 135.132 65.8715C135.132 65.9105 135.163 65.9421 135.202 65.9421Z" fill="#E6E8EC"/>
<path opacity="0.1" d="M160.258 157.018C169.611 157.018 177.193 156.245 177.193 155.291C177.193 154.337 169.611 153.564 160.258 153.564C150.905 153.564 143.323 154.337 143.323 155.291C143.323 156.245 150.905 157.018 160.258 157.018Z" fill="#6C63FF"/>
<path d="M97.9842 42.0216L46.6904 75.2758L80.1645 135.606C80.3209 135.888 80.5341 136.135 80.7907 136.331C81.0473 136.526 81.3416 136.667 81.6552 136.743L111.985 144.136C112.505 144.262 113.052 144.206 113.535 143.977C114.018 143.749 114.409 143.361 114.641 142.88L129.685 111.647L146.173 89.6215L107.046 43.3642C105.957 42.0776 104.437 41.2316 102.769 40.9844C101.101 40.7373 99.3998 41.106 97.9842 42.0216V42.0216Z" fill="#DCDFED"/>
<path opacity="0.1" d="M146.695 89.8822L146.549 90.0782L136.891 102.981L136.717 103.214L130.207 111.911L117.34 138.629L116.979 139.376L115.162 143.145C114.93 143.627 114.539 144.015 114.055 144.243C113.571 144.472 113.023 144.528 112.503 144.401L82.1728 137.004C81.8591 136.928 81.5646 136.787 81.308 136.592C81.0514 136.396 80.8383 136.149 80.6821 135.867L77.7654 130.62L77.2417 129.675L56.1895 91.7168L56.009 91.3934L47.21 75.5365L48.2731 74.8466L56.3327 69.6231L56.519 69.5015L73.4914 58.4978L74.5624 57.8039L98.5018 42.2823C99.9174 41.365 101.619 40.9951 103.288 41.2419C104.957 41.4887 106.479 42.3353 107.568 43.623L125.417 64.7327L126.201 65.6736L139.157 80.9894L139.227 81.0737L145.741 88.7728L146.561 89.743L146.695 89.8822Z" fill="black"/>
<path opacity="0.1" d="M138.725 80.813L137.144 91.7893L136.668 95.1018L136.395 102.158L136.374 102.709L134.955 139.577C134.942 139.919 134.853 140.254 134.696 140.558C134.538 140.862 134.316 141.128 134.045 141.337C133.773 141.546 133.459 141.693 133.125 141.767C132.79 141.841 132.444 141.841 132.109 141.767L116.822 138.356L116.657 138.319L77.4497 129.575L76.7299 129.415L55.1755 124.605L55.6698 91.4561L55.6855 90.3487L55.8346 80.3152L55.9993 69.2409L72.9718 58.2371L74.0427 57.5433C89.7853 59.1564 110.722 62.2592 124.905 64.4721L125.69 65.4129L138.635 80.7287L138.725 80.813Z" fill="black"/>
<path d="M140.516 67.7982L138.655 80.7346L136.948 92.5811L136.472 95.8858L136.199 102.942L134.759 140.361C134.746 140.703 134.657 141.038 134.5 141.342C134.342 141.646 134.12 141.912 133.849 142.121C133.577 142.33 133.263 142.477 132.929 142.551C132.594 142.625 132.248 142.625 131.913 142.551L116.461 139.103L77.2537 130.359L54.9795 125.389L55.4895 91.1327L55.6385 81.0991L55.8131 69.3623L55.9916 57.2904C59.6752 57.1159 65.7361 57.5099 72.9719 58.2371C89.1734 59.862 111.259 63.149 125.699 65.4128C134.542 66.7986 140.516 67.7982 140.516 67.7982Z" fill="#ECEF6A"/>
<path opacity="0.1" d="M145.239 88.5121L136.948 92.5752L94.6339 113.313L55.6383 81.107L47.7552 74.5859L46.6921 75.2758L55.4912 91.1326L54.9812 125.389L77.2554 130.359L80.1662 135.606C80.3224 135.889 80.5356 136.135 80.7922 136.331C81.0488 136.527 81.3432 136.667 81.6569 136.743L111.987 144.136C112.506 144.262 113.053 144.205 113.536 143.977C114.019 143.748 114.409 143.361 114.641 142.88L116.457 139.111L131.909 142.559C132.244 142.633 132.59 142.633 132.925 142.559C133.259 142.484 133.573 142.338 133.845 142.129C134.116 141.92 134.338 141.654 134.496 141.35C134.653 141.046 134.742 140.711 134.755 140.369L136.195 102.95L146.028 89.8175L146.055 89.4862L145.239 88.5121Z" fill="black"/>
<path d="M46.6902 75.2758L43.1929 135.122C43.1606 135.676 43.3265 136.223 43.6611 136.666C43.9957 137.109 44.4771 137.418 45.019 137.539L137.898 158.149C138.223 158.22 138.56 158.221 138.886 158.151C139.212 158.082 139.52 157.943 139.788 157.745C140.056 157.547 140.278 157.294 140.44 157.003C140.603 156.712 140.701 156.39 140.728 156.057L146.171 89.6215L94.6339 114.881L46.6902 75.2758Z" fill="#DCDFED"/>
<path opacity="0.1" d="M43.8326 136.492L92.0842 106.745C92.7987 106.312 93.6433 106.145 94.4688 106.274C95.2943 106.403 96.0476 106.82 96.5955 107.45L139.783 157.782C139.94 157.963 140.016 157.833 139.783 157.782L43.8326 136.492C43.5933 136.635 43.558 136.432 43.8326 136.492Z" fill="black"/>
<path d="M44.1778 136.443L91.9312 107.617C92.6862 107.161 93.5778 106.986 94.4491 107.123C95.3203 107.26 96.1152 107.7 96.6936 108.366L139.49 157.549C139.561 157.631 139.605 157.733 139.614 157.841C139.624 157.949 139.599 158.057 139.544 158.15C139.488 158.243 139.405 158.316 139.306 158.359C139.206 158.402 139.096 158.413 138.99 158.39L44.3328 137.386C44.232 137.364 44.1401 137.313 44.069 137.238C43.9979 137.163 43.951 137.069 43.9343 136.967C43.9176 136.866 43.9319 136.761 43.9753 136.668C44.0187 136.574 44.0893 136.496 44.1778 136.443V136.443Z" fill="#E3E5F1"/>
<defs>
<linearGradient id="paint0_linear" x1="165.146" y1="157.279" x2="165.146" y2="35.8395" gradientUnits="userSpaceOnUse">
<stop stop-color="#808080" stop-opacity="0.25"/>
<stop offset="0.54" stop-color="#808080" stop-opacity="0.12"/>
<stop offset="1" stop-color="#808080" stop-opacity="0.1"/>
</linearGradient>
</defs>
</svg>
