<svg width="424" height="386" viewBox="0 0 424 386" fill="none" xmlns="http://www.w3.org/2000/svg">
<path fill-rule="evenodd" clip-rule="evenodd" d="M209.855 3.04977C251.709 -4.9237 295.781 2.95626 332.754 24.1252C372.518 46.8925 412.543 79.5205 421.782 124.39C430.807 168.22 397.49 207.431 378.878 248.128C362.738 283.419 350.696 321.099 320.607 345.616C289.396 371.047 250.091 384.313 209.855 385.853C168.452 387.437 127.954 376.203 92.7675 354.332C55.4902 331.161 19.4876 301.199 6.31734 259.339C-6.79937 217.649 1.3523 170.507 22.9817 132.528C42.5071 98.243 84.4131 87.7298 116.849 65.2563C148.275 43.482 172.294 10.2053 209.855 3.04977Z" fill="#BFE9B8"/>
<g clip-path="url(#clip0)">
<path d="M111.584 129.138C124.067 129.138 134.186 119.016 134.186 106.53C134.186 94.0445 124.067 83.9229 111.584 83.9229C99.1012 83.9229 88.9818 94.0445 88.9818 106.53C88.9818 119.016 99.1012 129.138 111.584 129.138Z" fill="#FF9901"/>
<path d="M182.462 176.198H71.5824C71.4436 176.2 71.3049 176.189 71.1681 176.165L123.609 85.309C123.929 84.7431 124.394 84.2724 124.955 83.9449C125.516 83.6174 126.155 83.4448 126.805 83.4448C127.455 83.4448 128.093 83.6174 128.655 83.9449C129.216 84.2724 129.68 84.7431 130.001 85.309L165.195 146.28L166.881 149.198L182.462 176.198Z" fill="#805333"/>
<path opacity="0.2" d="M182.462 176.198H144.605L163.189 149.198L164.526 147.253L165.195 146.281L166.881 149.198L182.462 176.198Z" fill="black"/>
<path d="M244.199 176.198H148.297L166.881 149.198L168.218 147.253L192.435 112.067C194.022 109.761 197.842 109.617 199.708 111.632C199.834 111.769 199.95 111.914 200.057 112.067L244.199 176.198Z" fill="#805333"/>
<path d="M272.35 161.251C276.112 161.251 279.161 158.201 279.161 154.438C279.161 150.676 276.112 147.626 272.35 147.626C268.589 147.626 265.539 150.676 265.539 154.438C265.539 158.201 268.589 161.251 272.35 161.251Z" fill="#6CC30D"/>
<path d="M273.007 174.958H271.612L272.248 153.412L273.007 174.958Z" fill="#3F3D56"/>
<path d="M272.37 157.496L273.868 155.423L272.35 158.009L272.186 157.722L272.37 157.496Z" fill="#3F3D56"/>
<path d="M272.207 159.589L270.709 157.516L272.227 160.102L272.391 159.814L272.207 159.589Z" fill="#3F3D56"/>
<path d="M334.826 161.251C338.588 161.251 341.637 158.201 341.637 154.438C341.637 150.676 338.588 147.626 334.826 147.626C331.065 147.626 328.016 150.676 328.016 154.438C328.016 158.201 331.065 161.251 334.826 161.251Z" fill="#6CC30D"/>
<path d="M335.483 174.958H334.088L334.724 153.412L335.483 174.958Z" fill="#3F3D56"/>
<path d="M334.847 157.496L336.345 155.423L334.826 158.009L334.662 157.722L334.847 157.496Z" fill="#3F3D56"/>
<path d="M334.683 159.589L333.185 157.516L334.704 160.102L334.867 159.814L334.683 159.589Z" fill="#3F3D56"/>
<path d="M292.08 154.714C297.635 154.714 302.139 150.209 302.139 144.652C302.139 139.096 297.635 134.591 292.08 134.591C286.524 134.591 282.021 139.096 282.021 144.652C282.021 150.209 286.524 154.714 292.08 154.714Z" fill="#6CC30D"/>
<path d="M293.049 174.958H290.989L291.928 143.137L293.049 174.958Z" fill="#3F3D56"/>
<path d="M292.11 149.168L294.322 146.107L292.08 149.926L291.837 149.501L292.11 149.168Z" fill="#3F3D56"/>
<path d="M291.868 152.259L289.656 149.198L291.898 153.016L292.141 152.593L291.868 152.259Z" fill="#3F3D56"/>
<path d="M316.61 154.714C322.166 154.714 326.669 150.209 326.669 144.652C326.669 139.096 322.166 134.591 316.61 134.591C311.055 134.591 306.552 139.096 306.552 144.652C306.552 150.209 311.055 154.714 316.61 154.714Z" fill="#6CC30D"/>
<path d="M317.58 174.958H315.52L316.459 143.137L317.58 174.958Z" fill="#3F3D56"/>
<path d="M316.641 149.168L318.853 146.107L316.61 149.926L316.368 149.501L316.641 149.168Z" fill="#3F3D56"/>
<path d="M316.398 152.259L314.186 149.198L316.429 153.016L316.671 152.593L316.398 152.259Z" fill="#3F3D56"/>
<path d="M252.984 154.714C258.54 154.714 263.043 150.209 263.043 144.652C263.043 139.096 258.54 134.591 252.984 134.591C247.429 134.591 242.925 139.096 242.925 144.652C242.925 150.209 247.429 154.714 252.984 154.714Z" fill="#6CC30D"/>
<path d="M253.954 174.958H251.893L252.833 143.137L253.954 174.958Z" fill="#3F3D56"/>
<path d="M253.014 149.168L255.226 146.107L252.984 149.926L252.742 149.501L253.014 149.168Z" fill="#3F3D56"/>
<path d="M252.772 152.259L250.56 149.198L252.803 153.016L253.045 152.593L252.772 152.259Z" fill="#3F3D56"/>
<path d="M371.991 279.499H43.7223C39.5863 279.499 35.4909 278.684 31.6698 277.101C27.8488 275.518 24.3768 273.197 21.4523 270.272C18.5278 267.347 16.2079 263.874 14.6252 260.052C13.0424 256.23 12.2278 252.134 12.2278 247.997C12.2278 243.86 13.0424 239.764 14.6252 235.942C16.2079 232.12 18.5278 228.647 21.4523 225.722C24.3768 222.797 27.8488 220.476 31.6698 218.893C35.4909 217.31 39.5863 216.495 43.7223 216.495H371.265C374.477 216.495 377.558 215.219 379.83 212.947C382.102 210.675 383.378 207.593 383.378 204.379C383.378 201.166 382.102 198.084 379.83 195.812C377.558 193.54 374.477 192.263 371.265 192.263H32.8203V172.878H371.265C379.618 172.878 387.628 176.197 393.535 182.104C399.441 188.012 402.759 196.025 402.759 204.379C402.759 212.734 399.441 220.747 393.535 226.654C387.628 232.562 379.618 235.881 371.265 235.881H43.7223C40.5096 235.881 37.4286 237.158 35.1569 239.43C32.8852 241.702 31.609 244.784 31.609 247.997C31.609 251.21 32.8852 254.292 35.1569 256.564C37.4286 258.837 40.5096 260.113 43.7223 260.113H371.991V279.499Z" fill="#333333"/>
<path d="M59.954 182.086H44.9336V183.055H59.954V182.086Z" fill="white"/>
<path d="M102.593 182.086H87.5723V183.055H102.593V182.086Z" fill="white"/>
<path d="M145.231 182.086H130.211V183.055H145.231V182.086Z" fill="white"/>
<path d="M187.87 182.086H172.85V183.055H187.87V182.086Z" fill="white"/>
<path d="M230.509 182.086H215.488V183.055H230.509V182.086Z" fill="white"/>
<path d="M273.147 182.086H258.127V183.055H273.147V182.086Z" fill="white"/>
<path d="M315.786 182.086H300.765V183.055H315.786V182.086Z" fill="white"/>
<path d="M358.424 182.086H343.404V183.055H358.424V182.086Z" fill="white"/>
<path d="M59.954 225.704H44.9336V226.673H59.954V225.704Z" fill="white"/>
<path d="M102.593 225.704H87.5723V226.673H102.593V225.704Z" fill="white"/>
<path d="M145.231 225.704H130.211V226.673H145.231V225.704Z" fill="white"/>
<path d="M187.87 225.704H172.85V226.673H187.87V225.704Z" fill="white"/>
<path d="M230.509 225.704H215.488V226.673H230.509V225.704Z" fill="white"/>
<path d="M273.147 225.704H258.127V226.673H273.147V225.704Z" fill="white"/>
<path d="M315.786 225.704H300.765V226.673H315.786V225.704Z" fill="white"/>
<path d="M358.424 225.704H343.404V226.673H358.424V225.704Z" fill="white"/>
<path d="M59.954 269.321H44.9336V270.29H59.954V269.321Z" fill="white"/>
<path d="M102.593 269.321H87.5723V270.29H102.593V269.321Z" fill="white"/>
<path d="M145.231 269.321H130.211V270.29H145.231V269.321Z" fill="white"/>
<path d="M187.87 269.321H172.85V270.29H187.87V269.321Z" fill="white"/>
<path d="M230.509 269.321H215.488V270.29H230.509V269.321Z" fill="white"/>
<path d="M273.147 269.321H258.127V270.29H273.147V269.321Z" fill="white"/>
<path d="M315.786 269.321H300.765V270.29H315.786V269.321Z" fill="white"/>
<path d="M358.424 269.321H343.404V270.29H358.424V269.321Z" fill="white"/>
<path d="M271.64 99.0161C273.218 99.0146 274.77 99.4158 276.15 100.182H267.141C268.517 99.4161 270.065 99.0148 271.64 99.0161V99.0161Z" fill="#A3EFFF"/>
<path d="M254.159 97.8504C256.795 97.8473 259.367 98.6618 261.521 100.182H246.807C248.958 98.6636 251.526 97.8491 254.159 97.8504Z" fill="#A3EFFF"/>
<path d="M155.137 83.0942C155.456 77.4401 157.773 72.0833 161.674 67.9789C165.575 63.8746 170.807 61.2894 176.436 60.6843C182.066 60.0792 187.727 61.4936 192.411 64.6753C197.095 67.8569 200.497 72.599 202.01 78.0561C202.3 78.0457 202.589 78.034 202.881 78.034C208.042 78.035 213.065 79.7075 217.197 82.8013C221.329 85.8951 224.348 90.244 225.803 95.1972C229.224 93.6941 233.046 93.368 236.671 94.2699C240.296 95.1719 243.52 97.251 245.838 100.182H171.315C169.141 100.188 166.988 99.7552 164.985 98.9095C162.982 98.0638 161.17 96.8226 159.658 95.2601C158.146 93.6976 156.965 91.846 156.185 89.8161C155.405 87.7862 155.043 85.6198 155.12 83.4466C155.125 83.3293 155.13 83.2118 155.137 83.0942Z" fill="#A3EFFF"/>
<path d="M277.077 116.463C275.499 116.462 273.947 116.863 272.567 117.629H281.576C280.2 116.863 278.652 116.462 277.077 116.463Z" fill="#A3EFFF"/>
<path d="M294.559 115.297C291.923 115.294 289.351 116.109 287.197 117.629H301.91C299.759 116.111 297.191 115.296 294.559 115.297Z" fill="#A3EFFF"/>
<path d="M393.58 100.541C393.261 94.8872 390.944 89.5304 387.043 85.4261C383.142 81.3217 377.91 78.7365 372.281 78.1315C366.651 77.5264 360.99 78.9408 356.306 82.1224C351.622 85.304 348.22 90.0461 346.707 95.5032C346.417 95.4928 346.128 95.4812 345.836 95.4812C340.675 95.4821 335.652 97.1546 331.52 100.248C327.388 103.342 324.369 107.691 322.914 112.644C319.494 111.141 315.671 110.815 312.046 111.717C308.421 112.619 305.197 114.698 302.879 117.629H377.402C379.576 117.635 381.729 117.202 383.732 116.357C385.735 115.511 387.547 114.27 389.059 112.707C390.571 111.145 391.752 109.293 392.532 107.263C393.312 105.233 393.674 103.067 393.597 100.894C393.593 100.776 393.587 100.659 393.58 100.541Z" fill="#A3EFFF"/>
<path d="M343.897 265.952L352.558 265.956L352.559 264.581L343.898 264.577L343.897 265.952Z" fill="#3F3D56"/>
<path d="M281.275 264.887L283.062 265.3L350.978 265.337L351.588 263.913C352.653 261.472 353.019 258.783 352.644 256.146C352.352 254.18 351.619 252.227 349.954 251.379L346.94 231.3L309.366 231.233L294.828 242.961C294.828 242.961 287.971 242.837 284.245 247.476C282.901 249.201 282.108 251.291 281.968 253.474L281.821 255.887L281.275 264.887Z" fill="#6C63FF"/>
<path d="M296.192 272.939C300.823 272.939 304.578 269.184 304.578 264.551C304.578 259.918 300.823 256.163 296.192 256.163C291.56 256.163 287.805 259.918 287.805 264.551C287.805 269.184 291.56 272.939 296.192 272.939Z" fill="#3F3D56"/>
<path d="M296.192 268.966C298.629 268.966 300.606 266.989 300.606 264.551C300.606 262.113 298.629 260.136 296.192 260.136C293.754 260.136 291.778 262.113 291.778 264.551C291.778 266.989 293.754 268.966 296.192 268.966Z" fill="#CCCCCC"/>
<path d="M337.573 272.961C342.205 272.961 345.96 269.206 345.96 264.573C345.96 259.94 342.205 256.185 337.573 256.185C332.942 256.185 329.187 259.94 329.187 264.573C329.187 269.206 332.942 272.961 337.573 272.961Z" fill="#3F3D56"/>
<path d="M337.574 268.988C340.011 268.988 341.987 267.011 341.987 264.573C341.987 262.135 340.011 260.158 337.574 260.158C335.136 260.158 333.16 262.135 333.16 264.573C333.16 267.011 335.136 268.988 337.574 268.988Z" fill="#CCCCCC"/>
<path d="M300.604 241.59L320.892 241.599H323.368L327.549 241.602V241.297L327.552 237.619L327.555 233.49H324.773L322.297 233.487L317.91 233.484H315.434L310.369 233.481L300.604 241.59Z" fill="white"/>
<path d="M330.85 241.605L341.572 241.611L341.574 239.506V235.829L341.577 233.498H340.007L337.531 233.495L330.853 233.493L330.85 241.605Z" fill="white"/>
<path d="M326.17 250.266L327.545 250.266L327.546 247.654L326.172 247.653L326.17 250.266Z" fill="#3F3D56"/>
<path d="M306.1 245.304L306.101 243.929L303.489 243.928L303.488 245.303L306.1 245.304Z" fill="#3F3D56"/>
<path d="M305.139 244.534L304.987 244.534C304.61 244.534 304.237 244.459 303.888 244.314C303.539 244.17 303.223 243.958 302.956 243.691C302.689 243.424 302.478 243.107 302.334 242.758C302.19 242.409 302.115 242.036 302.116 241.658V241.658C302.116 241.281 302.19 240.907 302.335 240.559C302.48 240.21 302.691 239.893 302.958 239.627C303.225 239.36 303.542 239.148 303.891 239.004C304.24 238.86 304.613 238.786 304.991 238.786L305.142 238.786L305.139 244.534Z" fill="#3F3D56"/>
<path d="M281.821 255.887C282.861 256 283.907 255.743 284.776 255.16C285.644 254.577 286.279 253.706 286.569 252.701C286.859 251.696 286.784 250.621 286.359 249.665C285.934 248.71 285.186 247.934 284.245 247.477C282.902 249.202 282.108 251.291 281.968 253.474L281.821 255.887Z" fill="#3F3D56"/>
<path d="M322.297 233.487L327.549 241.297L327.552 237.619L324.773 233.49L322.297 233.487Z" fill="#F2F2F2"/>
<path d="M337.531 233.495L341.574 239.506V235.829L340.007 233.498L337.531 233.495Z" fill="#F2F2F2"/>
<path d="M315.433 233.484L320.891 241.599H323.368L317.91 233.484H315.433Z" fill="#F2F2F2"/>
<path d="M30.3976 199.048C42.7072 199.048 52.686 189.067 52.686 176.755C52.686 164.443 42.7072 154.461 30.3976 154.461C18.0881 154.461 8.10925 164.443 8.10925 176.755C8.10925 189.067 18.0881 199.048 30.3976 199.048Z" fill="#359325"/>
<path d="M30.4903 183.467L19.3364 172.31C18.9736 171.946 18.77 171.454 18.7703 170.94C18.7705 170.426 18.9747 169.933 19.338 169.57C19.7012 169.207 20.1938 169.002 20.7074 169.002C21.2211 169.002 21.7139 169.205 22.0775 169.568L30.3049 177.798L56.5587 147.852C56.8978 147.467 57.3761 147.231 57.8886 147.198C58.4011 147.165 58.9058 147.336 59.2919 147.675C59.678 148.014 59.9139 148.492 59.9479 149.004C59.9818 149.517 59.811 150.022 59.473 150.409L30.4903 183.467Z" fill="#6C63FF"/>
</g>
<defs>
<clipPath id="clip0">
<rect width="394.65" height="218.95" fill="white" transform="translate(8.10925 60.5491)"/>
</clipPath>
</defs>
</svg>
