<svg width="283" height="542" viewBox="0 0 283 542" fill="none" xmlns="http://www.w3.org/2000/svg">
<path d="M111.208 501.08C111.208 501.08 114.786 506.569 104.692 512.284C104.692 512.284 102.154 508.944 104.065 504.726C105.976 500.508 108.388 500.657 111.208 501.08Z" fill="#6CC30D"/>
<path d="M110.86 500.297C110.86 500.297 112.289 495.225 99.9714 489.496C99.9714 489.496 98.7421 492.571 102.3 496.619C105.857 500.668 108.208 500.605 110.86 500.297Z" fill="#6CC30D"/>
<path d="M121.261 500.301C121.261 500.301 126.612 493.548 115.348 484.35C115.348 484.35 110.282 490.256 118.218 500.303L121.261 500.301Z" fill="#6CC30D"/>
<path d="M133.763 498.633C133.763 498.633 137.664 488.989 125.281 481.497C125.281 481.497 120.586 488.618 130.713 498.974L133.763 498.633Z" fill="#6CC30D"/>
<path d="M144.512 494.914C144.512 494.914 147.291 484.547 135.033 477.12C135.033 477.12 132.858 486.719 142.836 495.748L144.512 494.914Z" fill="#6CC30D"/>
<path d="M154.87 491.159C154.87 491.159 157.898 480.563 145.954 473.552C145.954 473.552 144.222 484.675 153.268 491.956L154.87 491.159Z" fill="#6CC30D"/>
<path d="M163.204 486.193C163.204 486.193 168.008 474.259 156.909 467.632C156.909 467.632 153.65 479.519 161.525 487.028L163.204 486.193Z" fill="#6CC30D"/>
<path d="M172.407 479.399C172.407 479.399 176.882 467.021 165.212 461.05C165.212 461.05 162.69 474.32 170.802 480.198L172.407 479.399Z" fill="#6CC30D"/>
<path d="M180.039 472.215C180.039 472.215 183.201 458.626 175.5 451.962C175.5 451.962 172.039 466.204 178.064 473.702L180.039 472.215Z" fill="#6CC30D"/>
<path d="M186.848 464.609C186.848 464.609 191.073 448.646 184.324 443.958C184.324 443.958 180.82 455.912 185.373 466.361L186.848 464.609Z" fill="#6CC30D"/>
<path d="M121.602 500.515C121.602 500.515 129.867 506.625 122.961 516.679C122.961 516.679 115.359 511.374 118.623 500.798L121.602 500.515Z" fill="#6CC30D"/>
<path d="M134.302 498.687C134.302 498.687 143.157 506.822 135.614 516.665C135.614 516.665 127.381 511.08 131.269 499.065L134.302 498.687Z" fill="#6CC30D"/>
<path d="M144.154 495.674C144.154 495.674 154.499 499.509 153.633 513.468C153.633 513.468 144.29 509.602 142.478 496.508L144.154 495.674Z" fill="#6CC30D"/>
<path d="M162.954 486.317C162.954 486.317 175.524 486.445 177.115 499.522C177.115 499.522 165.2 497.968 161.552 487.578L162.954 486.317Z" fill="#6CC30D"/>
<path d="M172.125 478.754C172.125 478.754 184.847 478.761 186.121 492.21C186.121 492.21 173.271 489.972 170.845 480.028L172.125 478.754Z" fill="#6CC30D"/>
<path d="M179.416 471.17C179.416 471.17 191.498 467.675 197.38 476.375C197.38 476.375 184.718 480.205 178.085 473.387L179.416 471.17Z" fill="#6CC30D"/>
<path d="M186.714 464.398C186.714 464.398 200.395 458.561 204.926 465.953C204.926 465.953 194.71 470.711 185.285 466.186L186.714 464.398Z" fill="#6CC30D"/>
<path d="M194.222 453.896C194.222 453.896 206.477 450.672 211.699 457.271C211.699 457.271 200.524 461.692 191.901 455.955L194.222 453.896Z" fill="#6CC30D"/>
<path d="M184.654 466.224L185.29 466.898C186.466 465.435 187.649 463.906 188.762 462.352C198.571 448.836 207.986 436.807 215.608 428.305L215.514 427.489C207.881 436.009 197.936 448.184 188.11 461.709C186.987 463.249 185.823 464.769 184.654 466.224Z" fill="#444053"/>
<path d="M83.0903 495.911C83.2414 495.972 98.315 501.871 118.355 501.239C130.089 500.873 141.285 498.35 151.525 493.764C164.322 488.035 176.548 477.742 186.217 465.722L185.32 465.387C163.603 492.373 136.452 499.462 118.145 500.049C98.2927 500.682 83.3922 494.852 83.2373 494.797L83.0903 495.911Z" fill="#444053"/>
<path d="M206.176 439.824C206.176 439.824 210.719 426.016 207.34 421.4C207.34 421.4 201.901 431.105 205.23 440.295L206.176 439.824Z" fill="#6CC30D"/>
<path d="M215.322 429.447C215.322 429.447 218.236 417.79 215.898 413.442C215.898 413.442 209.661 424.603 213.146 430.948L215.322 429.447Z" fill="#6CC30D"/>
<path d="M221.594 422.88L232.465 407.613C232.465 407.613 218.678 413.98 219.336 425.259L221.594 422.88Z" fill="#6CC30D"/>
<path d="M236.472 411.472C236.472 411.472 248.311 403.939 249.791 404.262C249.791 404.262 236.396 403.881 230.962 414.283L236.472 411.472Z" fill="#6CC30D"/>
<path d="M199.296 447.526C199.296 447.526 210.841 441.875 214.9 445.481C214.9 445.481 205.954 453.419 198.515 449.546L199.296 447.526Z" fill="#6CC30D"/>
<path d="M206.121 439.425C206.121 439.425 218.3 434.15 222.421 437.925C222.421 437.925 213.885 444.163 205.713 440.501L206.121 439.425Z" fill="#6CC30D"/>
<path d="M214.037 429.278C214.037 429.278 223.682 424.514 227.695 426.67C227.695 426.67 218.883 435.191 213.014 431.959L214.037 429.278Z" fill="#6CC30D"/>
<path d="M222.275 423.033L240.015 418.243C240.015 418.243 229.189 429.13 219.301 424.317L222.275 423.033Z" fill="#6CC30D"/>
<path d="M237.881 414.474C237.881 414.474 253.029 417.314 254.146 416.544C254.146 416.544 242.386 421.298 231.25 413.771L237.881 414.474Z" fill="#6CC30D"/>
<path d="M240.551 411.929C240.551 411.929 259.99 412.051 263.096 414.94C263.096 414.94 252.754 406.091 240.644 411.065L240.551 411.929Z" fill="#6CC30D"/>
<path d="M213.073 431.021L213.482 431.485C226.854 416.563 236.746 409.577 241.328 411.818L241.444 411.279C236.591 408.922 226.783 415.749 213.073 431.021Z" fill="#444053"/>
<path d="M183.216 468.671L183.851 469.345C185.027 467.882 186.211 466.353 187.324 464.799C197.133 451.283 206.548 439.254 214.169 430.752L214.076 429.936C206.443 438.456 196.498 450.631 186.672 464.156C185.548 465.696 184.385 467.216 183.216 468.671Z" fill="#444053"/>
<path d="M192.383 458.133C192.383 458.133 196.609 442.17 189.859 437.481C189.859 437.481 186.356 449.436 190.909 459.885L192.383 458.133Z" fill="#6CC30D"/>
<path d="M199.8 448.397C199.8 448.397 202.912 434.716 197.139 428.723C197.139 428.723 192.99 441.172 197.919 450.965L199.8 448.397Z" fill="#6CC30D"/>
<path d="M190.189 459.747L190.825 460.422C192.001 458.959 193.184 457.43 194.297 455.876C204.106 442.36 213.521 430.33 221.142 421.829L221.049 421.012C213.416 429.533 203.471 441.708 193.645 455.232C192.521 456.773 191.358 458.293 190.189 459.747Z" fill="#444053"/>
<path d="M156.152 491.534C156.152 491.534 166.833 495.306 165.801 508.775C165.801 508.775 155.427 503.678 154.55 492.331L156.152 491.534Z" fill="#6CC30D"/>
<path d="M91.6912 507.493C91.6912 507.493 90.7572 510.533 83.4904 507.831C83.4904 507.831 83.8946 505.828 86.735 505.471C89.5755 505.113 90.6044 506.178 91.6912 507.493Z" fill="#6CC30D"/>
<path d="M91.8987 507.128C91.8987 507.128 94.9183 506.329 91.9835 499.513C91.9835 499.513 89.9877 499.843 89.7172 502.475C89.4467 505.107 90.5468 506.088 91.8987 507.128Z" fill="#6CC30D"/>
<path d="M96.6352 511.545C96.6352 511.545 102.226 511.946 101.392 504.615C101.392 504.615 96.326 504.101 95.2485 510.254L96.6352 511.545Z" fill="#6CC30D"/>
<path d="M103.108 516.39C103.108 516.39 109.389 515.374 107.248 508.042C107.248 508.042 101.784 508.022 101.56 515.19L103.108 516.39Z" fill="#6CC30D"/>
<path d="M109.741 519.923C109.741 519.923 115.849 518.23 113.734 510.969C113.734 510.969 108.261 512.705 108.588 519.443L109.741 519.923Z" fill="#6CC30D"/>
<path d="M116.212 523.28C116.212 523.28 122.54 521.629 120.374 514.617C120.374 514.617 114.39 516.963 115.11 522.82L116.212 523.28Z" fill="#6CC30D"/>
<path d="M122.328 525.441C122.328 525.441 130.09 524.175 128.13 517.627C128.13 517.627 121.093 519.537 121.173 524.96L122.328 525.441Z" fill="#6CC30D"/>
<path d="M129.692 527.466C129.692 527.466 137.512 525.936 134.985 519.328C134.985 519.328 127.638 521.934 128.588 527.006L129.692 527.466Z" fill="#6CC30D"/>
<path d="M136.525 528.717C136.525 528.717 144.311 526.294 143.916 521.178C143.916 521.178 135.688 523.655 134.931 528.29L136.525 528.717Z" fill="#6CC30D"/>
<path d="M143.178 529.5C143.178 529.5 152.558 526.871 151.674 522.707C151.674 522.707 144.495 524.531 141.688 529.359L143.178 529.5Z" fill="#6CC30D"/>
<path d="M96.6895 511.748C96.6895 511.748 97.6 516.95 89.7589 516.804C89.7589 516.804 88.7739 512.107 95.2002 510.562L96.6895 511.748Z" fill="#6CC30D"/>
<path d="M103.328 516.634C103.328 516.634 103.562 522.647 95.5292 522.172C95.5292 522.172 94.388 517.129 101.77 515.451L103.328 516.634Z" fill="#6CC30D"/>
<path d="M109.223 519.981C109.223 519.981 112.143 525.435 105.23 528.935C105.23 528.935 102.779 523.898 108.07 519.501L109.223 519.981Z" fill="#6CC30D"/>
<path d="M141.424 529.015L141.399 529.472C142.617 529.566 143.871 529.644 145.103 529.686C155.884 530.106 165.79 530.77 173.232 531.65L173.571 531.384C166.115 530.504 155.899 529.656 145.107 529.231C143.876 529.181 142.636 529.108 141.424 529.015Z" fill="#444053"/>
<path d="M81.2996 494.125C81.3399 494.206 85.4507 502.239 94.8735 510.572C100.389 515.452 106.667 519.505 113.473 522.582C121.977 526.427 132.353 528.766 142.371 529.54L142.118 529.067C119.624 527.324 103.946 517.762 95.3338 510.153C85.9957 501.9 81.9318 493.959 81.8868 493.879L81.2996 494.125Z" fill="#444053"/>
<path d="M139.627 529.083L139.601 529.539C140.82 529.633 142.073 529.712 143.306 529.754C154.086 530.173 163.993 530.837 171.435 531.718L171.774 531.452C164.317 530.572 154.102 529.723 143.309 529.299C142.078 529.249 140.838 529.176 139.627 529.083Z" fill="#444053"/>
<path d="M148.724 530.054C148.724 530.054 158.104 527.426 157.219 523.261C157.219 523.261 150.04 525.086 147.234 529.914L148.724 530.054Z" fill="#6CC30D"/>
<path d="M156.648 530.506C156.648 530.506 164.456 528.036 164.625 523.925C164.625 523.925 156.921 525.613 154.592 530.419L156.648 530.506Z" fill="#6CC30D"/>
<path d="M146.97 529.57L146.945 530.027C148.163 530.121 149.417 530.199 150.649 530.241C161.429 530.661 171.336 531.325 178.778 532.205L179.117 531.939C171.661 531.059 161.445 530.211 150.653 529.786C149.421 529.736 148.182 529.663 146.97 529.57Z" fill="#444053"/>
<path d="M80.6201 489.569C80.6201 489.569 79.1302 489.477 79.2092 493.041C79.2092 493.041 80.1583 493.193 80.7535 492.029C81.3486 490.865 81.0351 490.25 80.6201 489.569Z" fill="#6CC30D"/>
<path d="M80.8129 489.539C80.8129 489.539 81.631 488.37 84.1983 490.738C84.1983 490.738 83.7453 491.543 82.5381 491.232C81.3308 490.922 81.0657 490.289 80.8129 489.539Z" fill="#6CC30D"/>
<path d="M79.586 486.785C79.586 486.785 80.2685 484.315 83.3865 485.864C83.3865 485.864 82.8351 488.126 79.9447 487.591L79.586 486.785Z" fill="#6CC30D"/>
<path d="M78.4352 483.215C78.4352 483.215 79.851 480.678 82.7691 482.789C82.7691 482.789 81.9375 485.143 78.7286 484.075L78.4352 483.215Z" fill="#6CC30D"/>
<path d="M77.8912 479.788C77.8912 479.788 79.5801 477.436 82.4708 479.524C82.4708 479.524 80.8602 481.597 77.9267 480.362L77.8912 479.788Z" fill="#6CC30D"/>
<path d="M77.3993 476.46C77.3993 476.46 79.1032 474.006 81.8759 476.076C81.8759 476.076 79.9165 478.269 77.4331 477.009L77.3993 476.46Z" fill="#6CC30D"/>
<path d="M77.3826 473.479C77.3826 473.479 79.1373 470.346 81.7357 472.252C81.7357 472.252 79.8077 474.968 77.4181 474.054L77.3826 473.479Z" fill="#6CC30D"/>
<path d="M77.6181 469.983C77.6181 469.983 79.4983 466.868 82.0362 469.027C82.0362 469.027 79.7523 471.764 77.652 470.532L77.6181 469.983Z" fill="#6CC30D"/>
<path d="M78.1162 466.841C78.1162 466.841 80.3866 463.885 82.5913 464.885C82.5913 464.885 80.2291 468.022 78.0598 467.596L78.1162 466.841Z" fill="#6CC30D"/>
<path d="M78.7919 463.852C78.7919 463.852 81.3987 460.245 83.1069 461.301C83.1069 461.301 81.1947 464.093 78.6251 464.516L78.7919 463.852Z" fill="#6CC30D"/>
<path d="M79.5038 486.729C79.5038 486.729 77.3402 485.493 76.1991 488.889C76.1991 488.889 78.1278 490.075 79.8002 487.562L79.5038 486.729Z" fill="#6CC30D"/>
<path d="M78.3612 483.08C78.3612 483.08 75.7342 482.004 74.7092 485.536C74.7092 485.536 76.7669 486.845 78.6454 483.942L78.3612 483.08Z" fill="#6CC30D"/>
<path d="M77.785 480.001C77.785 480.001 75.8187 477.86 73.2054 480.266C73.2054 480.266 75.0595 482.137 77.8204 480.575L77.785 480.001Z" fill="#6CC30D"/>
<path d="M77.3876 473.564C77.3876 473.564 75.8799 470.255 73.1484 471.873C73.1484 471.873 74.8562 474.786 77.3076 474.132L77.3876 473.564Z" fill="#6CC30D"/>
<path d="M77.7766 469.957C77.7766 469.957 76.2745 466.589 73.5082 468.349C73.5082 468.349 75.4594 471.402 77.6799 470.494L77.7766 469.957Z" fill="#6CC30D"/>
<path d="M78.3927 466.844C78.3927 466.844 77.6476 463.099 75.2612 462.898C75.2612 462.898 76.0098 466.848 78.1186 467.542L78.3927 466.844Z" fill="#6CC30D"/>
<path d="M78.8487 463.855C78.8487 463.855 78.3704 459.322 76.3979 459.275C76.3979 459.275 76.6776 462.722 78.6695 464.513L78.8487 463.855Z" fill="#6CC30D"/>
<path d="M80.0062 460.229C80.0062 460.229 79.1876 456.482 77.2881 456.128C77.2881 456.128 77.7462 459.776 79.8794 461.165L80.0062 460.229Z" fill="#6CC30D"/>
<path d="M78.737 464.685L78.5308 464.622C78.6766 464.083 78.8345 463.531 79.0055 462.994C80.4777 458.289 81.7071 453.92 82.4618 450.577L82.6317 450.474C81.8747 453.824 80.6794 458.355 79.2076 463.066C79.0404 463.604 78.882 464.149 78.737 464.685Z" fill="#444053"/>
<path d="M84.9416 496.208C84.9118 496.178 81.9864 493.106 79.7453 487.7C78.4324 484.536 77.6026 481.178 77.2869 477.751C76.8917 473.47 77.4518 468.627 78.6494 464.193L78.8204 464.378C76.1325 474.336 77.9564 482.631 80.0017 487.571C82.2202 492.926 85.112 495.963 85.1409 495.996L84.9416 496.208Z" fill="#444053"/>
<path d="M81.3335 454.871C81.3335 454.871 83.4836 451.515 84.7802 451.69C84.7802 451.69 83.5338 454.643 81.3535 455.195L81.3335 454.871Z" fill="#6CC30D"/>
<path d="M82.2735 450.83C82.2735 450.83 84.1973 448.241 85.319 448.182C85.319 448.182 83.8835 451.574 82.2382 451.641L82.2735 450.83Z" fill="#6CC30D"/>
<path d="M82.8102 448.146L84.4977 442.887C84.4977 442.887 84.8855 447.53 82.614 449.115L82.8102 448.146Z" fill="#6CC30D"/>
<path d="M83.2752 442.427C83.2752 442.427 83.344 438.118 83.1068 437.776C83.1068 437.776 84.761 441.264 83.3784 444.325L83.2752 442.427Z" fill="#6CC30D"/>
<path d="M80.6468 457.893C80.6468 457.893 80.3842 453.955 79.2041 453.442C79.2041 453.442 78.7152 457.048 80.346 458.415L80.6468 457.893Z" fill="#6CC30D"/>
<path d="M81.4175 454.823C81.4175 454.823 81.0071 450.775 79.7868 450.273C79.7868 450.273 79.58 453.506 81.2564 455.099L81.4175 454.823Z" fill="#6CC30D"/>
<path d="M82.4577 451.144C82.4577 451.144 82.2468 447.847 81.354 447.121C81.354 447.121 80.7358 450.783 82.0568 451.833L82.4577 451.144Z" fill="#6CC30D"/>
<path d="M82.7004 447.989L81.5396 442.545C81.5396 442.545 80.6988 447.109 82.8013 448.977L82.7004 447.989Z" fill="#6CC30D"/>
<path d="M82.5248 442.522C82.5248 442.522 80.1856 438.954 80.2035 438.538C80.2035 438.538 80.6661 442.393 83.4437 444.168L82.5248 442.522Z" fill="#6CC30D"/>
<path d="M82.7061 441.418C82.7061 441.418 80.3893 436.29 79.4609 435.918C79.4609 435.918 82.4022 437.277 82.8632 441.259L82.7061 441.418Z" fill="#6CC30D"/>
<path d="M82.2322 451.672L82.0936 451.636C83.4188 445.768 83.6111 442.059 82.6347 441.195L82.7259 441.081C83.7567 441.998 83.5856 445.66 82.2322 451.672Z" fill="#444053"/>
<path d="M78.4303 465.448L78.2242 465.384C78.3699 464.845 78.5279 464.293 78.6989 463.756C80.171 459.051 81.4005 454.683 82.1552 451.339L82.3251 451.237C81.568 454.586 80.3727 459.118 78.9009 463.829C78.7337 464.366 78.5753 464.911 78.4303 465.448Z" fill="#444053"/>
<path d="M79.3991 461.377C79.3991 461.377 82.0059 457.77 83.7141 458.826C83.7141 458.826 81.8019 461.618 79.2323 462.041L79.3991 461.377Z" fill="#6CC30D"/>
<path d="M80.4179 457.895C80.4179 457.895 82.7123 454.938 84.5589 455.533C84.5589 455.533 82.6268 458.572 80.1403 458.794L80.4179 457.895Z" fill="#6CC30D"/>
<path d="M79.3439 462.21L79.1378 462.147C79.2835 461.608 79.4415 461.056 79.6124 460.519C81.0846 455.814 82.3141 451.445 83.0687 448.102L83.2387 447.999C82.4816 451.349 81.2863 455.881 79.8145 460.591C79.6473 461.129 79.4889 461.674 79.3439 462.21Z" fill="#444053"/>
<path d="M77.1753 476.179C77.1753 476.179 75.1816 473.938 72.6833 476.312C72.6833 476.312 74.8986 478.264 77.2092 476.727L77.1753 476.179Z" fill="#6CC30D"/>
<path d="M58.7148 474.578C58.7148 474.578 52.7346 475.102 54.2035 485.795C54.2035 485.795 58.0429 485.741 60.0433 481.916C62.0437 478.091 60.5924 476.406 58.7148 474.578Z" fill="#6CC30D"/>
<path d="M59.477 474.384C59.477 474.384 62.3659 470.423 73.3857 476.178C73.3857 476.178 71.8368 478.846 66.9148 478.558C61.9929 478.27 60.7295 476.508 59.477 474.384Z" fill="#6CC30D"/>
<path d="M53.683 466.749C53.683 466.749 55.6093 458.942 68.5633 461.933C68.5633 461.933 67.0929 469.043 55.3764 468.984L53.683 466.749Z" fill="#6CC30D"/>
<path d="M47.9335 456.611C47.9335 456.611 52.7672 448.21 65.1043 453.001C65.1043 453.001 62.5448 460.537 49.3838 459.046L47.9335 456.611Z" fill="#6CC30D"/>
<path d="M44.6492 446.583C44.6492 446.583 50.6328 438.591 62.8531 443.328C62.8531 443.328 57.0916 450.435 44.9764 448.293L44.6492 446.583Z" fill="#6CC30D"/>
<path d="M41.6106 436.821C41.6106 436.821 47.6217 428.516 59.3646 433.26C59.3646 433.26 52.2491 440.918 41.9234 438.456L41.6106 436.821Z" fill="#6CC30D"/>
<path d="M40.5793 427.852C40.5793 427.852 46.5735 417.472 57.5673 421.817C57.5673 421.817 50.7465 431.035 40.9071 429.564L40.5793 427.852Z" fill="#6CC30D"/>
<path d="M40.3885 417.193C40.3885 417.193 46.8895 406.801 57.7239 411.942C57.7239 411.942 49.4884 421.413 40.7019 418.83L40.3885 417.193Z" fill="#6CC30D"/>
<path d="M41.3579 407.464C41.3579 407.464 49.4687 397.341 58.5975 399.17C58.5975 399.17 50.1787 409.887 41.3771 409.768L41.3579 407.464Z" fill="#6CC30D"/>
<path d="M43.0926 398.099C43.0926 398.099 52.3358 385.832 59.4996 388.096C59.4996 388.096 52.7661 397.531 42.641 400.187L43.0926 398.099Z" fill="#6CC30D"/>
<path d="M53.3386 466.622C53.3386 466.622 44.2977 464.061 40.8396 474.904C40.8396 474.904 48.9258 477.44 54.7917 468.972L53.3386 466.622Z" fill="#6CC30D"/>
<path d="M47.5937 456.246C47.5937 456.246 36.7542 454.414 33.8034 465.604C33.8034 465.604 42.4453 468.443 49.0078 458.69L47.5937 456.246Z" fill="#6CC30D"/>
<path d="M44.2965 447.282C44.2965 447.282 35.7508 441.888 26.0925 450.537C26.0925 450.537 34.1028 455.179 44.6237 448.991L44.2965 447.282Z" fill="#6CC30D"/>
<path d="M40.627 428.106C40.627 428.106 33.5348 418.949 23.1496 425.289C23.1496 425.289 30.9125 433.145 40.4913 429.859L40.627 428.106Z" fill="#6CC30D"/>
<path d="M41.0144 417.03C41.0144 417.03 33.9257 407.693 23.4471 414.478C23.4471 414.478 32.2278 422.629 40.8021 418.702L41.0144 417.03Z" fill="#6CC30D"/>
<path d="M42.4645 407.322C42.4645 407.322 38.2771 396.444 28.6814 397.12C28.6814 397.12 32.9491 408.616 41.5954 409.572L42.4645 407.322Z" fill="#6CC30D"/>
<path d="M43.3202 398.075C43.3202 398.075 39.943 384.679 32.0503 385.596C32.0503 385.596 34.2824 395.829 42.817 400.152L43.3202 398.075Z" fill="#6CC30D"/>
<path d="M46.7686 386.533C46.7686 386.533 42.2865 375.684 34.5857 375.637C34.5857 375.637 37.5959 386.381 46.5648 389.419L46.7686 386.533Z" fill="#6CC30D"/>
<path d="M43.1411 400.636L42.2974 400.557C42.7049 398.854 43.1572 397.107 43.6661 395.397C48.0231 380.435 51.5196 366.616 53.4515 356.139L54.097 355.739C52.1574 366.235 48.8502 380.527 44.4965 395.507C44.0028 397.216 43.5466 398.943 43.1411 400.636Z" fill="#444053"/>
<path d="M78.1248 492.256C77.9963 492.181 65.3188 484.499 54.6195 469.421C48.3518 460.595 43.9512 450.926 41.5813 440.773C38.6176 428.088 39.2874 413.201 42.6353 399.201L43.3783 399.668C35.8662 431.106 45.8346 455.113 55.6013 468.892C66.1946 483.833 78.7261 491.427 78.8521 491.509L78.1248 492.256Z" fill="#444053"/>
<path d="M50.3348 369.677C50.3348 369.677 57.8358 358.414 63.0708 358.245C63.0708 358.245 59.049 367.81 50.5195 370.642L50.3348 369.677Z" fill="#6CC30D"/>
<path d="M52.7809 357.004C52.7809 357.004 59.626 348.171 64.0866 347.392C64.0866 347.392 59.4515 358.379 52.902 359.463L52.7809 357.004Z" fill="#6CC30D"/>
<path d="M54.0588 348.628L59.0964 331.881C59.0964 331.881 62.1478 345.659 53.5886 351.652L54.0588 348.628Z" fill="#6CC30D"/>
<path d="M54.0628 331.154C54.0628 331.154 52.9431 318.136 51.8851 317.235C51.8851 317.235 59.6202 326.852 55.089 336.814L54.0628 331.154Z" fill="#6CC30D"/>
<path d="M48.5714 379.15C48.5714 379.15 46.2483 367.429 41.3692 366.519C41.3692 366.519 40.5838 377.645 47.539 380.884L48.5714 379.15Z" fill="#6CC30D"/>
<path d="M50.6562 369.489C50.6562 369.489 47.7074 357.517 42.6711 356.659C42.6711 356.659 42.8917 366.508 50.1021 370.406L50.6562 369.489Z" fill="#6CC30D"/>
<path d="M53.6197 357.85C53.6197 357.85 51.7103 348.033 47.9098 346.324C47.9098 346.324 46.6261 357.686 52.2414 360.14L53.6197 357.85Z" fill="#6CC30D"/>
<path d="M53.5691 348.215L47.1713 332.44C47.1713 332.44 45.2905 346.639 54.2916 351.137L53.5691 348.215Z" fill="#6CC30D"/>
<path d="M51.0978 331.843C51.0978 331.843 40.601 322.35 40.538 321.088C40.538 321.088 43.6328 332.452 55.3006 336.308L51.0978 331.843Z" fill="#6CC30D"/>
<path d="M51.4605 328.421C51.4605 328.421 40.5484 314.218 36.7202 313.596C36.7202 313.596 48.9064 316.109 52.0365 327.857L51.4605 328.421Z" fill="#6CC30D"/>
<path d="M52.8902 359.559L52.325 359.525C55.7189 341.139 55.2865 329.866 51.1074 327.787L51.4348 327.393C55.8482 329.603 56.3501 340.724 52.8902 359.559Z" fill="#444053"/>
<path d="M42.1643 403.097L41.3206 403.017C41.7281 401.314 42.1804 399.567 42.6893 397.858C47.0463 382.896 50.5428 369.076 52.4747 358.599L53.1202 358.199C51.1806 368.696 47.8734 382.988 43.5197 397.967C43.026 399.677 42.5698 401.403 42.1643 403.097Z" fill="#444053"/>
<path d="M44.7161 390.316C44.7161 390.316 53.9594 378.049 61.1231 380.313C61.1231 380.313 54.3897 389.749 44.2645 392.405L44.7161 390.316Z" fill="#6CC30D"/>
<path d="M47.6575 379.281C47.6575 379.281 55.8638 369.141 63.4311 369.939C63.4311 369.939 56.6983 380.133 46.8396 382.136L47.6575 379.281Z" fill="#6CC30D"/>
<path d="M44.7647 392.855L43.9209 392.775C44.3284 391.072 44.7807 389.325 45.2897 387.616C49.6467 372.653 53.1431 358.834 55.075 348.357L55.7205 347.957C53.7809 358.453 50.4737 372.745 46.1201 387.725C45.6264 389.434 45.1702 391.161 44.7647 392.855Z" fill="#444053"/>
<path d="M40.6243 436.095C40.6243 436.095 31.937 430.418 22.7273 438.909C22.7273 438.909 32.2063 443.6 40.9371 437.729L40.6243 436.095Z" fill="#6CC30D"/>
<path d="M117.547 435.859C117.547 435.859 129.528 434.418 130.666 463.373C130.666 463.373 123.081 465.044 117.697 455.881C112.313 446.717 114.537 441.577 117.547 435.859Z" fill="#6CC30D"/>
<path d="M115.972 435.708C115.972 435.708 108.786 426.605 89.245 447.025C89.245 447.025 93.3027 453.343 102.892 450.256C112.481 447.169 114.305 441.914 115.972 435.708Z" fill="#6CC30D"/>
<path d="M124.509 412.788C124.509 412.788 117.77 393.068 93.3754 407.094C93.3754 407.094 98.9538 425.191 122.016 419.497L124.509 412.788Z" fill="#6CC30D"/>
<path d="M132.013 383.279C132.013 383.279 119.322 363.36 96.821 381.853C96.821 381.853 104.706 400.56 130.074 390.399L132.013 383.279Z" fill="#6CC30D"/>
<path d="M134.701 355.226C134.701 355.226 119.898 336.931 97.6069 355.226C97.6069 355.226 111.639 371.288 134.701 359.899V355.226Z" fill="#6CC30D"/>
<path d="M137.008 327.99C137.008 327.99 122.032 308.879 100.685 326.968C100.685 326.968 117.592 343.845 137.008 332.456V327.99Z" fill="#6CC30D"/>
<path d="M135.659 303.794C135.659 303.794 119.935 279.194 99.9124 295.874C99.9124 295.874 116.827 317.012 135.659 308.475V303.794Z" fill="#6CC30D"/>
<path d="M132.013 275.536C132.013 275.536 115.286 251.142 95.8776 269.849C95.8776 269.849 115.675 290.987 132.013 280.01V275.536Z" fill="#6CC30D"/>
<path d="M126.434 250.279C126.434 250.279 106.637 227.358 89.3404 236.506C89.3404 236.506 109.969 260.852 127.266 256.377L126.434 250.279Z" fill="#6CC30D"/>
<path d="M119.487 226.345C119.487 226.345 96.6493 198.292 83.3886 207.662C83.3886 207.662 100.213 229.418 121.164 231.651L119.487 226.345Z" fill="#6CC30D"/>
<path d="M125.14 412.29C125.14 412.29 141.987 401.249 152.889 428.272C152.889 428.272 137.914 438.798 123.163 419.188L125.14 412.29Z" fill="#6CC30D"/>
<path d="M132.545 382.154C132.545 382.154 153.211 372.191 163.244 400.37C163.244 400.37 147.288 411.957 130.68 389.282L132.545 382.154Z" fill="#6CC30D"/>
<path d="M135.659 356.905C135.659 356.905 150.462 338.61 172.753 356.905C172.753 356.905 158.721 372.959 135.659 361.578V356.905Z" fill="#6CC30D"/>
<path d="M135.659 304.491C135.659 304.491 146.18 276.937 169.032 288.786C169.032 288.786 156.7 313.219 136.588 309.061L135.659 304.491Z" fill="#6CC30D"/>
<path d="M130.719 275.401C130.719 275.401 141.164 247.372 164.369 260.353C164.369 260.353 150.142 286.045 131.767 279.717L130.719 275.401Z" fill="#6CC30D"/>
<path d="M124.203 250.429C124.203 250.429 128.351 219.7 147.512 216.952C147.512 216.952 143.439 249.352 126.764 255.965L124.203 250.429Z" fill="#6CC30D"/>
<path d="M119.029 226.392C119.029 226.392 120.631 189.39 136.527 188.083C136.527 188.083 135.988 216.183 120.803 231.643L119.029 226.392Z" fill="#6CC30D"/>
<path d="M107.881 197.516C107.881 197.516 112.62 166.723 127.775 162.961C127.775 162.961 125.896 192.78 109.371 205.048L107.881 197.516Z" fill="#6CC30D"/>
<path d="M120.347 233.076L121.979 232.467C120.534 228.158 118.984 223.755 117.337 219.478C103.11 181.993 91.0101 147.121 83.2529 120.344L81.8302 119.591C89.6099 146.416 101.515 182.626 115.742 220.159C117.359 224.444 118.909 228.792 120.347 233.076Z" fill="#444053"/>
<path d="M85.9707 491.758C86.1954 491.497 108.277 465.203 123.671 420.297C132.692 394.008 137.716 366.373 138.557 338.42C139.613 303.493 132.679 264.463 120.803 229.045L119.516 230.629C146.172 310.17 135.584 378.329 121.537 419.362C106.3 463.856 84.4732 489.85 84.256 490.127L85.9707 491.758Z" fill="#444053"/>
<path d="M94.4985 154.653C94.4985 154.653 75.4723 128.43 65.0943 130.458C65.0943 130.458 76.6254 153.837 94.4985 157.291V154.653Z" fill="#6CC30D"/>
<path d="M84.9 122.316C84.9 122.316 68.0826 102.207 59.0001 102.254C59.0001 102.254 72.2757 129.103 85.5889 128.873L84.9 122.316Z" fill="#6CC30D"/>
<path d="M79.2244 100.782L62.9836 58.9008C62.9836 58.9008 62.1674 96.7582 81.291 108.551L79.2244 100.782Z" fill="#6CC30D"/>
<path d="M72.6277 54.6002C72.6277 54.6002 69.9246 19.6652 71.6692 16.7823C71.6692 16.7823 60.0558 45.8565 72.74 70.0441L72.6277 54.6002Z" fill="#6CC30D"/>
<path d="M101.546 178.856C101.546 178.856 101.703 146.78 110.973 142.068C110.973 142.068 116.716 171.103 104.234 182.951L101.546 178.856Z" fill="#6CC30D"/>
<path d="M93.796 154.305C93.796 154.305 95.0914 121.27 104.691 116.621C104.691 116.621 107.97 142.757 95.2337 156.467L93.796 154.305Z" fill="#6CC30D"/>
<path d="M83.5676 124.945C83.5676 124.945 83.6276 98.0965 90.4713 91.7843C90.4713 91.7843 97.2851 121.207 87.1468 130.347L83.5676 124.945Z" fill="#6CC30D"/>
<path d="M80.0334 99.459L86.69 54.7429C86.69 54.7429 95.7501 91.3807 79.7115 107.522L80.0334 99.459Z" fill="#6CC30D"/>
<path d="M78.73 55.0199C78.73 55.0199 95.8319 24.9716 95.48 21.6056C95.48 21.6056 93.668 53.1033 72.1334 68.8086L78.73 55.0199Z" fill="#6CC30D"/>
<path d="M76.7238 46.1496C76.7238 46.1496 92.8673 3.4531 100.175 0C100.175 0 77.1132 12.4027 75.376 44.9299L76.7238 46.1496Z" fill="#6CC30D"/>
<path d="M85.6483 129.119L86.749 128.763C73.1289 81.7736 69.7295 51.7728 77.1797 44.3043L76.3861 43.4172C68.524 51.3451 71.7287 80.9737 85.6483 129.119Z" fill="#444053"/>
<path d="M123.199 239.119L124.832 238.509C123.387 234.201 121.837 229.797 120.189 225.521C105.963 188.036 93.8627 153.164 86.1054 126.387L84.6827 125.634C92.4625 152.459 104.368 188.669 118.595 226.202C120.212 230.487 121.762 234.835 123.199 239.119Z" fill="#444053"/>
<path d="M113.354 206.545C113.354 206.545 90.5168 178.492 77.256 187.861C77.256 187.861 94.0809 209.618 115.031 211.851L113.354 206.545Z" fill="#6CC30D"/>
<path d="M103.396 178.769C103.396 178.769 83.4038 155.849 68.7953 161.536C68.7953 161.536 85.9046 185.296 106.084 185.929L103.396 178.769Z" fill="#6CC30D"/>
<path d="M114.214 213.277L115.847 212.667C114.402 208.358 112.852 203.955 111.204 199.678C96.9777 162.193 84.8776 127.321 77.1203 100.544L75.6976 99.7915C83.4774 126.616 95.3828 162.826 109.609 200.359C111.227 204.644 112.777 208.992 114.214 213.277Z" fill="#444053"/>
<path d="M138.677 325.603C138.677 325.603 153.652 306.492 175 324.581C175 324.581 158.093 341.459 138.677 330.07V325.603Z" fill="#6CC30D"/>
</svg>
