<svg width="659" height="483" viewBox="0 0 659 483" fill="none" xmlns="http://www.w3.org/2000/svg">
<g clip-path="url(#clip0)">
<path d="M285.092 196.861C280.406 196.858 275.783 197.942 271.588 200.028C267.392 202.115 263.737 205.146 260.912 208.885C257.879 207.58 254.57 207.048 251.282 207.338C247.993 207.628 244.828 208.73 242.07 210.545C239.312 212.36 237.048 214.831 235.482 217.737C233.915 220.643 233.094 223.892 233.094 227.194H315.425C315.425 223.211 314.64 219.266 313.116 215.586C311.591 211.906 309.357 208.562 306.54 205.746C303.724 202.929 300.38 200.695 296.7 199.17C293.02 197.646 289.075 196.861 285.092 196.861Z" fill="#A3EFFF"/>
<path d="M398.825 175.871H38.4924C33.6737 175.877 29.0543 177.795 25.6469 181.202C22.2395 184.609 20.3223 189.229 20.3154 194.048V464.564C20.3222 469.383 22.2395 474.002 25.6469 477.41C29.0543 480.817 33.6737 482.734 38.4924 482.741H398.825C403.644 482.734 408.263 480.817 411.67 477.41C415.078 474.002 416.995 469.383 417.002 464.564V194.048C416.995 189.229 415.078 184.609 411.67 181.202C408.263 177.795 403.644 175.877 398.825 175.871V175.871ZM414.863 464.564C414.858 468.816 413.167 472.893 410.16 475.9C407.153 478.906 403.077 480.598 398.825 480.603H38.4924C34.2403 480.598 30.1639 478.906 27.1572 475.9C24.1505 472.893 22.4591 468.816 22.4539 464.564V194.048C22.4591 189.796 24.1505 185.719 27.1572 182.712C30.1639 179.706 34.2403 178.014 38.4924 178.009H398.825C403.077 178.014 407.153 179.706 410.16 182.712C413.167 185.719 414.858 189.796 414.863 194.048V464.564Z" fill="#3F3D56"/>
<path d="M80.7273 370.471C125.312 370.471 161.455 334.329 161.455 289.744C161.455 245.16 125.312 209.017 80.7273 209.017C36.1428 209.017 0 245.16 0 289.744C0 334.329 36.1428 370.471 80.7273 370.471Z" fill="#E3BD40"/>
<path d="M417.002 404.762V427.141H20.3154V404.655L22.4539 401.576L148.218 220.479C148.788 219.657 149.549 218.986 150.435 218.523C151.321 218.059 152.307 217.817 153.307 217.817C154.307 217.817 155.293 218.059 156.179 218.523C157.065 218.986 157.826 219.657 158.397 220.479L242.738 341.912L302.775 256.224C303.347 255.407 304.107 254.739 304.991 254.279C305.875 253.818 306.857 253.577 307.854 253.577C308.851 253.577 309.834 253.818 310.718 254.279C311.602 254.739 312.362 255.407 312.933 256.224L414.863 401.704L417.002 404.762Z" fill="#805333"/>
<path d="M107.458 452.803H44.3733C44.0903 452.802 43.8192 452.689 43.6194 452.488C43.4196 452.288 43.3074 452.016 43.3074 451.733C43.3074 451.45 43.4196 451.179 43.6194 450.978C43.8192 450.778 44.0903 450.665 44.3733 450.664H107.458C107.742 450.664 108.014 450.777 108.214 450.977C108.415 451.178 108.527 451.45 108.527 451.733C108.527 452.017 108.415 452.289 108.214 452.489C108.014 452.69 107.742 452.803 107.458 452.803V452.803Z" fill="#3F3D56"/>
<path d="M202.62 452.803H139.535C139.394 452.803 139.255 452.776 139.125 452.722C138.995 452.669 138.877 452.59 138.777 452.491C138.677 452.391 138.598 452.273 138.544 452.143C138.49 452.013 138.463 451.874 138.463 451.733C138.463 451.593 138.49 451.453 138.544 451.323C138.598 451.194 138.677 451.076 138.777 450.976C138.877 450.877 138.995 450.798 139.125 450.745C139.255 450.691 139.394 450.664 139.535 450.664H202.62C202.904 450.664 203.176 450.777 203.376 450.977C203.577 451.178 203.689 451.45 203.689 451.733C203.689 452.017 203.577 452.289 203.376 452.489C203.176 452.69 202.904 452.803 202.62 452.803V452.803Z" fill="#3F3D56"/>
<path d="M297.782 452.803H234.697C234.414 452.802 234.143 452.689 233.943 452.488C233.744 452.288 233.631 452.016 233.631 451.733C233.631 451.45 233.744 451.179 233.943 450.978C234.143 450.778 234.414 450.665 234.697 450.664H297.782C298.066 450.664 298.338 450.777 298.538 450.977C298.739 451.178 298.852 451.45 298.852 451.733C298.852 452.017 298.739 452.289 298.538 452.489C298.338 452.69 298.066 452.803 297.782 452.803V452.803Z" fill="#3F3D56"/>
<path d="M392.944 452.803H329.859C329.576 452.802 329.305 452.689 329.105 452.488C328.905 452.288 328.793 452.016 328.793 451.733C328.793 451.45 328.905 451.179 329.105 450.978C329.305 450.778 329.576 450.665 329.859 450.664H392.944C393.228 450.664 393.5 450.777 393.7 450.977C393.901 451.178 394.013 451.45 394.013 451.733C394.013 452.017 393.901 452.289 393.7 452.489C393.5 452.69 393.228 452.803 392.944 452.803V452.803Z" fill="#3F3D56"/>
<path d="M637.303 27.5601C658.224 50.6777 662.221 85.4446 651.362 123.247C640.511 161.024 614.871 201.585 576.953 235.902C539.035 270.219 496.124 291.697 457.455 298.737C418.76 305.782 384.563 298.347 363.641 275.229C342.719 252.111 338.723 217.345 349.581 179.542C360.433 141.766 386.073 101.204 423.991 66.887C461.909 32.5703 504.82 11.0922 543.489 4.05212C582.184 -2.99268 616.381 4.44244 637.303 27.5601Z" fill="#6CC30D" stroke="#805333" stroke-width="3"/>
<path d="M356.301 425.76C346.027 404.537 342.389 380.624 344.178 357.211C346.119 333.946 352.982 311.36 364.313 290.948C375.134 271.163 389.436 253.453 405.693 237.88C422.947 221.352 442.403 207.321 462.874 195.058C484.49 182.109 507.204 171.104 530.183 160.808C533.046 159.525 535.914 158.252 538.787 156.988C540.672 156.158 539.041 153.394 537.168 154.219C513.74 164.534 490.51 175.405 468.295 188.16C447.073 200.346 426.769 214.286 408.629 230.759C391.707 246.126 376.626 263.705 364.933 283.387C352.774 303.567 344.889 326.03 341.768 349.382C338.772 372.9 341.088 397.356 350.004 419.423C351.091 422.114 352.267 424.766 353.531 427.379C354.43 429.237 357.197 427.612 356.301 425.76V425.76Z" fill="black"/>
<path d="M444.782 203.238C443.722 185.748 445.038 168.196 448.694 151.06C452.34 133.914 458.257 117.332 466.289 101.752C470.811 93.0063 475.992 84.6175 481.789 76.659C483.006 74.9883 480.224 73.3859 479.019 75.04C468.604 89.386 460.174 105.073 453.957 121.675C447.725 138.279 443.727 155.637 442.067 173.294C441.13 183.248 440.965 193.259 441.574 203.238C441.699 205.289 444.908 205.303 444.782 203.238V203.238Z" fill="black"/>
<path d="M220.263 247.509C214.481 247.505 208.778 248.843 203.601 251.417C198.424 253.991 193.916 257.731 190.43 262.344C186.689 260.733 182.606 260.078 178.548 260.435C174.491 260.792 170.586 262.152 167.183 264.391C163.781 266.631 160.988 269.68 159.055 273.265C157.122 276.85 156.109 280.859 156.108 284.933H257.686C257.686 280.018 256.718 275.152 254.837 270.611C252.956 266.071 250.2 261.945 246.725 258.47C243.25 254.995 239.124 252.239 234.584 250.358C230.043 248.477 225.177 247.509 220.263 247.509V247.509Z" fill="#A3EFFF"/>
</g>
<defs>
<clipPath id="clip0">
<rect width="658.717" height="482.741" fill="white"/>
</clipPath>
</defs>
</svg>
