<svg width="92" height="92" viewBox="0 0 92 92" fill="none" xmlns="http://www.w3.org/2000/svg">
<path d="M48.7708 4.33524L41.6015 4.39723C40.5595 4.40622 39.722 5.25832 39.7309 6.30035L39.7987 14.1703C39.8076 15.2123 40.6597 16.0498 41.7018 16.0408L48.8712 15.979C49.3923 15.9746 49.8622 15.7593 50.2007 15.415C50.5391 15.0706 50.7463 14.597 50.7417 14.076L50.6739 6.206C50.6696 5.70558 50.4668 5.22733 50.1099 4.87655C49.753 4.52576 49.2713 4.33084 48.7708 4.33524V4.33524Z" fill="#61729B"/>
<path d="M48.7708 4.33528L45.1513 4.36658L45.2084 10.9889L46.6354 15.9983L48.8712 15.9791C49.3924 15.9747 49.8622 15.7593 50.2006 15.4149C50.539 15.0706 50.7462 14.5969 50.7418 14.0759L50.674 6.20595C50.6699 5.70553 50.4668 5.22737 50.11 4.8765C49.7529 4.52554 49.2713 4.33088 48.7708 4.33528V4.33528Z" fill="#47568C"/>
<path d="M50.7136 22.503L39.9722 22.5955L38.1016 24.4986L38.4603 65.4103L40.3563 67.1313L51.0976 67.0387L52.9635 65.2853L52.6167 24.3736L50.7136 22.503Z" fill="#D9F2FF"/>
<path d="M46.566 22.5387L45.3243 24.4362L42.8855 33.3913L45.4719 41.5583L45.6771 65.3481L46.95 67.0744L51.0976 67.0387L52.9635 65.2853L52.6167 24.3735L50.7136 22.503L46.566 22.5387Z" fill="#C4E1FF"/>
<path d="M52.6167 24.3736L52.5422 15.7486C52.5311 14.4604 52.019 13.2536 51.1004 12.3507C50.1817 11.4477 48.9662 10.9565 47.6781 10.9676L42.8084 11.0096C40.1492 11.0323 38.0043 13.2145 38.0273 15.8738L38.1017 24.4987L52.6167 24.3736Z" fill="#FF6699"/>
<path d="M38.4603 65.4103C39.2002 73.8009 40.915 79.4022 43.4465 86.9899L44.1208 89.0111C44.3798 89.7871 45.1091 90.3079 45.9272 90.3008C46.4398 90.2963 46.9139 90.0852 47.257 89.7362C47.4613 89.5283 47.6192 89.2715 47.7107 88.9801L48.3501 86.9477C50.7504 79.3173 52.3682 73.6872 52.9634 65.2852L38.4603 65.4103Z" fill="#61729B"/>
<path d="M47.678 10.9674L45.2083 10.9887L45.2829 19.6326L44.5695 24.4428L52.6166 24.3736L52.5422 15.7486C52.5311 14.4604 52.019 13.2536 51.1003 12.3507C50.1816 11.4475 48.9662 10.9563 47.678 10.9674V10.9674Z" fill="#E62E6B"/>
<path d="M45.8921 90.2997C45.9038 90.2997 45.9153 90.3008 45.927 90.3007C46.4397 90.2963 46.9139 90.0852 47.257 89.7361C47.4613 89.5282 47.6192 89.2714 47.7107 88.98L48.3502 86.9477C50.7504 79.3172 52.3683 73.6871 52.9634 65.2852L45.677 65.348L45.8921 90.2997Z" fill="#47568C"/>
<path d="M43.3697 17.7622L35.7742 17.8277C34.7322 17.8367 33.8947 18.6888 33.9036 19.7308L34.0926 41.6564C34.1015 42.6984 34.9536 43.536 35.9957 43.527L43.5914 43.4616C44.0918 43.4573 44.5701 43.2544 44.9209 42.8976C45.2716 42.5407 45.4664 42.059 45.4619 41.5586L45.2728 19.6329C45.264 18.5906 44.4119 17.7531 43.3697 17.7622V17.7622Z" fill="#FED843"/>
</svg>
