<svg width="45" height="45" viewBox="0 0 45 45" fill="none" xmlns="http://www.w3.org/2000/svg">
<g clip-path="url(#clip0)">
<path d="M33.0181 10.8377C33.0181 13.816 31.95 16.394 29.8431 18.5013C27.7361 20.6083 25.1577 21.6764 22.1794 21.6764H22.1743C19.1997 21.6753 16.6231 20.6073 14.5161 18.5013C12.4088 16.394 11.3411 13.816 11.3411 10.8377C11.3411 7.86037 12.4088 5.28202 14.5161 3.17505C16.6221 1.06876 19.1987 0.00102997 22.1743 0H22.1794C25.1567 0 27.7351 1.06808 29.8431 3.17505C31.95 5.28202 33.0181 7.86037 33.0181 10.8377Z" fill="#FFBB85"/>
<path d="M41.2355 37.2608C41.2355 39.6105 40.4881 41.5129 39.0159 42.914C37.5609 44.2986 35.6366 45 33.2968 45H11.629C9.28928 45 7.36496 44.2986 5.91099 42.914C4.43779 41.5118 3.69141 39.6098 3.69141 37.2608C3.69141 36.3572 3.72128 35.4632 3.78101 34.6035C3.84178 33.7246 3.96469 32.7681 4.14597 31.7591C4.32861 30.7418 4.56345 29.7801 4.84463 28.9012C5.13645 27.9914 5.53127 27.094 6.01982 26.2343C6.52725 25.342 7.12326 24.5647 7.79137 23.9248C8.49175 23.255 9.34799 22.717 10.3378 22.3249C11.3242 21.9349 12.4176 21.7371 13.5877 21.7371C14.0467 21.7371 14.4913 21.9249 15.3482 22.4832C15.8845 22.833 16.5025 23.2313 17.1847 23.6673C17.7738 24.0429 18.5717 24.3951 19.5581 24.7134C20.425 24.9939 21.3049 25.1504 22.1742 25.1776C22.27 25.181 22.3658 25.1827 22.4615 25.1827C23.427 25.1827 24.4034 25.0244 25.3661 24.7134C26.3524 24.3951 27.1513 24.0429 27.7401 23.6673C28.4295 23.2268 29.0475 22.8289 29.5759 22.4842C30.4335 21.9249 30.8774 21.7371 31.3375 21.7371C32.5065 21.7371 33.6 21.9349 34.587 22.3249C35.5768 22.717 36.4331 23.256 37.1328 23.9248C37.8019 24.5647 38.3979 25.342 38.905 26.2343C39.3939 27.0947 39.7894 27.9914 40.0802 28.9002C40.3617 29.7801 40.5972 30.7418 40.7799 31.7597C40.9601 32.7698 41.0834 33.7263 41.1438 34.6028C41.2046 35.4597 41.2344 36.3537 41.2355 37.2608Z" fill="#6AA9FF"/>
<path d="M22.1795 21.6764H22.1743V0H22.1795C25.1568 0 27.7351 1.06808 29.8431 3.17505C31.9501 5.28202 33.0182 7.86037 33.0182 10.8377C33.0182 13.816 31.9501 16.394 29.8431 18.5013C27.7361 20.6083 25.1578 21.6764 22.1795 21.6764Z" fill="#FFBB85"/>
<path d="M41.2356 37.2608C41.2356 39.6105 40.4882 41.5129 39.016 42.914C37.561 44.2986 35.6367 45 33.297 45H22.1743V25.1776C22.2701 25.181 22.3659 25.1827 22.4617 25.1827C23.4271 25.1827 24.4035 25.0244 25.3662 24.7134C26.3526 24.3951 27.1515 24.0429 27.7403 23.6673C28.4297 23.2268 29.0476 22.8289 29.576 22.4842C30.4336 21.9249 30.8776 21.7371 31.3376 21.7371C32.5066 21.7371 33.6001 21.9349 34.5872 22.3249C35.577 22.717 36.4332 23.256 37.1329 23.9248C37.802 24.5647 38.3981 25.342 38.9051 26.2343C39.394 27.0947 39.7895 27.9914 40.0803 28.9002C40.3619 29.7801 40.5974 30.7418 40.78 31.7597C40.9603 32.7698 41.0835 33.7263 41.144 34.6028C41.2047 35.4597 41.2346 36.3537 41.2356 37.2608Z" fill="#6AA9FF"/>
</g>
<defs>
<clipPath id="clip0">
<rect width="45" height="45" fill="white"/>
</clipPath>
</defs>
</svg>
