<svg width="33" height="33" viewBox="0 0 33 33" fill="none" xmlns="http://www.w3.org/2000/svg">
<path d="M16.5 0C7.4018 0 0 7.4018 0 16.5C0 25.5982 7.4018 33 16.5 33C25.5982 33 33 25.5982 33 16.5C33 7.4018 25.5982 0 16.5 0ZM16.5 30.6429C8.70137 30.6429 2.35712 24.2986 2.35712 16.5C2.35712 8.70137 8.70137 2.35712 16.5 2.35712C24.2986 2.35712 30.6429 8.70137 30.6429 16.5C30.6429 24.2986 24.2986 30.6429 16.5 30.6429Z" fill="#258478"/>
<path d="M16.4999 8.64288C15.8489 8.64288 15.3213 9.1705 15.3213 9.82147V23.1786C15.3213 23.8296 15.8489 24.3572 16.4999 24.3572C17.1508 24.3572 17.6785 23.8296 17.6785 23.1786V9.82147C17.6785 9.1705 17.1508 8.64288 16.4999 8.64288Z" fill="#258478"/>
<path d="M23.1785 15.3214H9.82141C9.17044 15.3214 8.64282 15.849 8.64282 16.5C8.64282 17.151 9.17044 17.6786 9.82141 17.6786H23.1785C23.8295 17.6786 24.3571 17.151 24.3571 16.5C24.3571 15.849 23.8295 15.3214 23.1785 15.3214Z" fill="#258478"/>
</svg>
