<svg width="123" height="123" viewBox="0 0 173 173" fill="none" xmlns="http://www.w3.org/2000/svg">
<circle cx="86.5" cy="86.5" r="86.5" fill="url(#paint0_linear)"/>
<path d="M132.262 130.551V141.502C132.262 142.734 131.199 143.733 129.885 143.733H43.116C41.8026 143.733 40.7388 142.734 40.7388 141.502V130.551C40.7388 123.725 44.2422 117.667 49.6534 113.873V42.062C49.6534 26.7347 62.8916 14.3082 79.2203 14.3082H94.078C110.407 14.3082 123.645 26.7347 123.645 42.062V114.088C128.887 117.89 132.262 123.851 132.262 130.551Z" fill="#FFDFBA"/>
<path d="M132.262 130.551V141.502C132.262 142.735 131.199 143.733 129.885 143.733H43.116C41.8026 143.733 40.7388 142.735 40.7388 141.502V130.551C40.7388 119.076 50.6471 109.751 62.8976 109.751C65.6166 109.751 68.1305 108.925 70.169 107.525L70.7038 110.774L85.0445 121.198C85.9033 121.82 87.0979 121.82 87.9566 121.198L102.297 110.774L102.832 107.525C104.871 108.925 107.385 109.751 110.104 109.751C122.311 109.751 132.262 119.04 132.262 130.551Z" fill="#FFA4B8"/>
<path d="M102.297 110.774L96.8889 143.733H76.1118L70.7036 110.774L85.0449 121.198C85.9016 121.82 87.0988 121.82 87.9555 121.198L102.297 110.774Z" fill="#D6F4FC"/>
<path d="M115.919 70.6889V56.9339C115.919 55.9961 115.297 55.1574 114.357 54.8383C109.186 53.083 104.821 49.7012 102.014 45.1833C101.195 43.8651 99.2472 43.6723 98.1834 44.826C88.3892 55.4486 74.8868 62.4707 59.1765 64.2643C57.9814 64.4007 57.0822 65.3488 57.0822 66.4787V70.6884C57.0822 82.1999 64.5853 92.0658 75.2532 96.2107L75.2086 96.3145V98.2196C75.2086 104.606 69.68 109.751 62.8975 109.751C57.932 109.751 53.3499 111.285 49.6533 113.873C49.6533 111.647 49.6533 39.9486 49.6533 42.062C49.6533 26.7341 62.891 14.3082 79.2202 14.3082H94.0779C110.407 14.3082 123.645 26.7341 123.645 42.062V114.088C119.901 111.368 115.203 109.751 110.103 109.751C103.328 109.751 97.7923 104.613 97.7923 98.2196V96.3145L97.7478 96.2113C108.416 92.0663 115.919 82.2005 115.919 70.6889V70.6889Z" fill="#C79A83"/>
<path d="M114.357 54.8386C115.296 55.1575 115.919 55.9962 115.919 56.9343V70.6893C115.919 82.2008 108.415 92.0667 97.7476 96.2116C78.4572 103.728 57.082 90.375 57.082 70.689V66.4793C57.082 65.3491 57.9812 64.4013 59.1764 64.2649C74.8777 62.4725 88.3831 55.4554 98.1832 44.8266C99.2471 43.6727 101.195 43.8657 102.014 45.1839C104.818 49.6979 109.182 53.0819 114.357 54.8386Z" fill="#FFEBD2"/>
<path d="M98.1279 100.895C90.8069 103.771 82.7614 103.994 74.8726 100.895C75.2755 99.3253 75.2083 98.3089 75.2083 96.3145L75.2529 96.2113C82.409 98.9995 90.5775 99.0051 97.7475 96.2113L97.7921 96.3145C97.7921 98.3097 97.7249 99.3259 98.1279 100.895Z" fill="#FFD6A6"/>
<path d="M105.213 16.3436C108.835 17.7268 107.635 22.7738 103.726 22.6846C103.126 22.6709 87.8365 22.6762 88.1348 22.6762C71.8056 22.6762 58.568 35.1021 58.568 50.43V62.8138C58.568 64.8475 57.0822 64.9027 57.0822 66.4798C57.0822 70.9394 56.8602 74.2576 58.3992 78.8854C58.5079 79.2123 58.568 79.552 58.568 79.8945V107.579C58.568 109.009 57.6016 110.297 56.1509 110.733C53.7885 111.442 51.5991 112.512 49.6533 113.874V42.062C49.6533 26.7341 62.891 14.3082 79.2202 14.3082H94.0779C98.0176 14.3082 101.777 15.0312 105.213 16.3436V16.3436Z" fill="#E0B7A3"/>
<path d="M79.9603 88.3351C84.9189 91.2321 81.0024 98.3772 75.5814 96.3369C64.5775 92.1958 57.082 82.1707 57.082 70.689V66.4799C57.082 65.3516 57.9774 64.4019 59.1707 64.266C60.2969 64.1377 61.4609 63.9762 62.6558 63.7771C64.373 63.4906 65.9886 64.6426 66.139 66.2738C67.0792 76.4794 72.5858 84.027 79.9603 88.3351V88.3351Z" fill="#FFF3E4"/>
<path d="M71.8627 117.834C57.9292 118.17 49.3563 128.018 49.3563 138.64V143.733H43.116C41.8032 143.733 40.7388 142.734 40.7388 141.502V130.551C40.7388 119.076 50.6471 109.751 62.8976 109.751C65.6166 109.751 68.1305 108.925 70.169 107.525C70.8447 111.631 70.4893 109.468 71.8627 117.834V117.834Z" fill="#FFB1BF"/>
<path d="M101.138 117.834C115.072 118.17 123.645 128.018 123.645 138.64V143.733H129.885C131.198 143.733 132.262 142.734 132.262 141.502V130.551C132.262 119.076 122.354 109.751 110.103 109.751C107.384 109.751 104.87 108.925 102.832 107.525C102.156 111.631 102.512 109.468 101.138 117.834V117.834Z" fill="#FF99AF"/>
<path d="M82.0549 143.733H76.1118L70.7036 110.774L77.452 115.678L82.0549 143.733Z" fill="#BDEFFC"/>
<defs>
<linearGradient id="paint0_linear" x1="125.074" y1="173" x2="32.7297" y2="-1.43225e-05" gradientUnits="userSpaceOnUse">
<stop offset="0.198275" stop-color="#FF9901"/>
<stop offset="0.94888" stop-color="#FF7B01" stop-opacity="0.02"/>
</linearGradient>
</defs>
</svg>
