<svg width="123" height="123" viewBox="0 0 173 173" fill="none" xmlns="http://www.w3.org/2000/svg">
<circle cx="86.5" cy="86.5" r="86.5" fill="url(#paint0_linear)"/>
<path d="M108.579 102.067V86.9606H69.7344V102.067L89.1568 119.331L108.579 102.067Z" fill="#E6AF78"/>
<path d="M138.611 109.133L111.907 102.85C111.504 102.755 111.133 102.594 110.786 102.398L89.1568 115.015L68.3714 101.788C67.8333 102.295 67.1654 102.671 66.4068 102.85L39.7026 109.133C35.8031 110.051 33.0474 113.53 33.0474 117.536V134.438C33.0474 136.822 34.9797 138.754 37.3634 138.754H140.95C143.334 138.754 145.266 136.822 145.266 134.438V117.536C145.266 113.53 142.51 110.05 138.611 109.133Z" fill="#EFF2FA"/>
<path d="M69.7344 86.9606V102.899C94.2014 111.714 108.579 89.6519 108.579 89.6519V86.9604H69.7344V86.9606Z" fill="#D29B6E"/>
<path d="M61.1025 37.3257L62.9831 78.6984C63.1586 82.5634 65.0538 86.1477 68.1489 88.469L77.0719 95.1614C79.3133 96.8422 82.0392 97.7511 84.841 97.7511H93.4733C96.275 97.7511 99.001 96.8424 101.242 95.1614L110.165 88.469C113.26 86.1474 115.156 82.5636 115.331 78.6984L117.212 37.3257C117.211 37.3257 61.1025 37.3257 61.1025 37.3257Z" fill="#F0C087"/>
<path d="M82.6832 45.9578C91.3155 45.9578 104.264 43.7998 107.335 37.3255H61.1025L62.9831 78.6982C63.1586 82.5632 65.0538 86.1473 68.1492 88.4688L77.0722 95.1612C79.3136 96.842 82.0395 97.751 84.8412 97.751H89.1573C84.8412 97.751 76.2089 89.1187 76.2089 78.3286C76.2089 73.0512 76.2089 58.9062 76.2089 52.4319C76.2089 50.2739 78.3669 45.9578 82.6832 45.9578Z" fill="#E6AF78"/>
<path d="M48.8906 124.748L34.9066 112.186C33.7348 113.67 33.0479 115.537 33.0479 117.536V134.438C33.0479 136.822 34.9802 138.754 37.3639 138.754H52.4703V132.776C52.47 129.713 51.1686 126.795 48.8906 124.748Z" fill="#E4EAF6"/>
<path d="M129.423 124.748L143.407 112.186C144.579 113.67 145.266 115.537 145.266 117.536V134.438C145.266 136.822 143.334 138.754 140.95 138.754H125.844V132.776C125.844 129.713 127.145 126.795 129.423 124.748Z" fill="#E4EAF6"/>
<path d="M94.5521 138.754H83.7617L85.1105 119.331H93.2033L94.5521 138.754Z" fill="#5B5D6E"/>
<path d="M94.5521 115.015H83.7617V119.077C83.7617 120.409 84.8418 121.489 86.1745 121.489H92.139C93.4717 121.489 94.5518 120.409 94.5518 119.077V115.015H94.5521Z" fill="#515262"/>
<path d="M69.4316 97.2622L89.1572 115.015C89.1572 115.015 83.6329 117.804 76.8159 123.425C75.4096 124.584 73.2824 124.114 72.5282 122.455L63.2607 102.067L66.1925 97.6695C66.9221 96.5743 68.4535 96.3821 69.4316 97.2622Z" fill="#E4EAF6"/>
<path d="M108.882 97.2622L89.1567 115.015C89.1567 115.015 94.681 117.804 101.498 123.425C102.904 124.584 105.032 124.114 105.786 122.455L115.053 102.067L112.121 97.6695C111.392 96.5743 109.86 96.3821 108.882 97.2622Z" fill="#E4EAF6"/>
<path d="M102.24 23.0286L104.263 37.3257C113.498 39.1727 114.829 53.6659 115.021 57.8055C115.055 58.5568 115.295 59.2821 115.703 59.9141L119.226 65.3802C119.226 65.3802 118.02 56.3432 123.542 50.2738C123.543 50.2738 125.439 14.3962 102.24 23.0286Z" fill="#785550"/>
<path d="M121.391 64.46L118.955 74.2051C118.666 75.3603 117.629 76.1703 116.438 76.1703C115.129 76.1703 114.026 75.196 113.863 73.8976L112.617 63.9302C112.284 61.2622 114.364 58.9059 117.053 58.9059H117.054C119.963 58.9061 122.097 61.6387 121.391 64.46Z" fill="#F0C087"/>
<path d="M63.1705 19.1619L66.3624 21.3424C51.9306 31.9978 54.6279 50.2739 54.6279 50.2739C58.944 54.5899 58.944 65.3802 58.944 65.3802L63.26 61.0642C63.26 61.0642 61.5944 48.5962 69.734 43.7998C77.2872 39.3488 83.8962 41.6418 90.6402 41.6418C108.714 41.6418 113.772 34.8304 112.895 26.5354C112.441 22.2433 105.879 13.3027 89.1567 13.5871C82.4081 13.7017 69.7345 15.7451 63.1705 19.1619Z" fill="#694B4B"/>
<path d="M61.9114 39.7534C61.9114 39.7534 59.6185 30.7165 66.3624 21.3427C51.9306 31.998 54.6279 50.2741 54.6279 50.2741C58.944 54.5901 58.944 65.3804 58.944 65.3804L63.26 61.0644C63.26 61.0644 61.5944 48.5965 69.734 43.8C77.2872 39.349 83.8962 41.642 90.6402 41.642C93.5796 41.642 96.141 41.4452 98.4225 41.1078C84.5038 41.5743 76.2988 31.0311 61.9114 39.7534Z" fill="#5A4146"/>
<path d="M56.9228 64.46L59.359 74.2051C59.6477 75.3603 60.6853 76.1703 61.8762 76.1703C63.1849 76.1703 64.2885 75.196 64.4508 73.8976L65.6969 63.9302C66.0304 61.2622 63.9503 58.9059 61.2616 58.9059H61.2596C58.3513 58.9061 56.2175 61.6387 56.9228 64.46Z" fill="#E6AF78"/>
<path d="M117.212 134.438H102.105C100.913 134.438 99.9473 135.404 99.9473 136.596V138.754H119.37V136.596C119.37 135.404 118.403 134.438 117.212 134.438Z" fill="#E4EAF6"/>
<defs>
<linearGradient id="paint0_linear" x1="125.074" y1="173" x2="32.7297" y2="-1.43225e-05" gradientUnits="userSpaceOnUse">
<stop offset="0.198275" stop-color="#FF9901"/>
<stop offset="0.94888" stop-color="#FF7B01" stop-opacity="0.02"/>
</linearGradient>
</defs>
</svg>
